<svg xmlns="http://www.w3.org/2000/svg" xmlns:xlink="http://www.w3.org/1999/xlink" width="108" height="108" viewBox="0 0 108 108">
  <defs>
    <filter id="Path_904820" x="0" y="0" width="108" height="108" filterUnits="userSpaceOnUse">
      <feOffset dy="3" input="SourceAlpha"/>
      <feGaussianBlur stdDeviation="3" result="blur"/>
      <feFlood flood-opacity="0.161"/>
      <feComposite operator="in" in2="blur"/>
      <feComposite in="SourceGraphic"/>
    </filter>
  </defs>
  <g id="Group_1203960" data-name="Group 1203960" transform="translate(-206.711 -3647.264)">
    <g id="Group_1203915" data-name="Group 1203915">
      <g id="Group_1203602" data-name="Group 1203602" transform="translate(10.234 3176.14)">
        <g id="Group_1177315" data-name="Group 1177315" transform="translate(205.477 477.124)">
          <g id="Group_1173585" data-name="Group 1173585" transform="translate(0 0)">
            <g id="Group_1173428" data-name="Group 1173428">
              <g id="Group_1171958" data-name="Group 1171958">
                <g id="Group_1167341" data-name="Group 1167341">
                  <g id="Group_1166792" data-name="Group 1166792">
                    <g transform="matrix(1, 0, 0, 1, -9, -6)" filter="url(#Path_904820)">
                      <g id="Path_904820-2" data-name="Path 904820" transform="translate(9 6)" fill="#f7fbfc">
                        <path d="M 44.99999618530273 88.49999237060547 C 39.12687301635742 88.49999237060547 33.43022155761719 87.35006713867188 28.06829643249512 85.08216857910156 C 22.88852119445801 82.89130401611328 18.23629570007324 79.75457763671875 14.24084663391113 75.75914001464844 C 10.24540901184082 71.76369476318359 7.108683586120605 67.11146545410156 4.917821407318115 61.93169403076172 C 2.649921178817749 56.56976699829102 1.499996185302734 50.87311553955078 1.499996185302734 44.99999237060547 C 1.499996185302734 39.12686920166016 2.649921178817749 33.43021774291992 4.917821407318115 28.06829261779785 C 7.108683586120605 22.88851737976074 10.24540901184082 18.23630523681641 14.24084663391113 14.24085521697998 C 18.23629570007324 10.24540519714355 22.88852119445801 7.108692169189453 28.06829643249512 4.917829990386963 C 33.43022155761719 2.649929761886597 39.12687301635742 1.500004887580872 44.99999618530273 1.500004887580872 C 50.87311935424805 1.500004887580872 56.56977081298828 2.649929761886597 61.93169784545898 4.917829990386963 C 67.11147308349609 7.108692169189453 71.76369476318359 10.24540519714355 75.75914764404297 14.24085521697998 C 79.75458526611328 18.23630523681641 82.89131164550781 22.88851737976074 85.08216857910156 28.06829261779785 C 87.35007476806641 33.43021774291992 88.5 39.12686920166016 88.5 44.99999237060547 C 88.5 50.87311553955078 87.35007476806641 56.56976699829102 85.08216857910156 61.93169403076172 C 82.89131164550781 67.11146545410156 79.75458526611328 71.76369476318359 75.75914764404297 75.75914001464844 C 71.76369476318359 79.75457763671875 67.11147308349609 82.89130401611328 61.93169784545898 85.08216857910156 C 56.56977081298828 87.35006713867188 50.87311935424805 88.49999237060547 44.99999618530273 88.49999237060547 Z" stroke="none"/>
                        <path d="M 44.99999618530273 2.999992370605469 C 39.32870864868164 2.999992370605469 33.82865142822266 4.11004638671875 28.65262603759766 6.299331665039062 C 23.65165710449219 8.414566040039062 19.15968322753906 11.44333648681641 15.301513671875 15.30150604248047 C 11.44333648681641 19.15967559814453 8.414566040039062 23.65164947509766 6.299339294433594 28.65262222290039 C 4.110054016113281 33.82864761352539 2.999992370605469 39.32870483398438 2.999992370605469 44.99999237060547 C 2.999992370605469 50.67127990722656 4.110054016113281 56.17132186889648 6.299339294433594 61.34736633300781 C 8.414566040039062 66.34833526611328 11.44333648681641 70.84029388427734 15.301513671875 74.69846343994141 C 19.15968322753906 78.55663299560547 23.65165710449219 81.58540344238281 28.65262603759766 83.70063781738281 C 33.82865142822266 85.88992309570312 39.32870864868164 86.99997711181641 44.99999618530273 86.99997711181641 C 50.67128372192383 86.99997711181641 56.17134094238281 85.88992309570312 61.34736633300781 83.70063781738281 C 66.34834289550781 81.58540344238281 70.84030914306641 78.55663299560547 74.69847869873047 74.69846343994141 C 78.55665588378906 70.84029388427734 81.58542633056641 66.34833526611328 83.70065307617188 61.34736633300781 C 85.88993835449219 56.17132186889648 87 50.67127990722656 87 44.99999237060547 C 87 39.32870483398438 85.88993835449219 33.82864761352539 83.70065307617188 28.65262222290039 C 81.58542633056641 23.65164947509766 78.55665588378906 19.15967559814453 74.69847869873047 15.30150604248047 C 70.84030914306641 11.44333648681641 66.34834289550781 8.414566040039062 61.34736633300781 6.299331665039062 C 56.17134094238281 4.11004638671875 50.67128372192383 2.999992370605469 44.99999618530273 2.999992370605469 M 44.99999618530273 -7.62939453125e-06 C 69.85281372070312 -7.62939453125e-06 90 20.14717864990234 90 44.99999237060547 C 90 69.85279083251953 69.85281372070312 89.99997711181641 44.99999618530273 89.99997711181641 C 20.14717864990234 89.99997711181641 -7.62939453125e-06 69.85279083251953 -7.62939453125e-06 44.99999237060547 C -7.62939453125e-06 20.14717864990234 20.14717864990234 -7.62939453125e-06 44.99999618530273 -7.62939453125e-06 Z" stroke="none" fill="#62797e"/>
                      </g>
                    </g>
                  </g>
                </g>
              </g>
            </g>
          </g>
        </g>
      </g>
      <g id="baby_2641005" transform="translate(228.525 3666)">
        <g id="Group_1203913" data-name="Group 1203913">
          <g id="Group_1203903" data-name="Group 1203903">
            <path id="Path_1045140" data-name="Path 1045140" d="M16,6l-.25,2.03a8.115,8.115,0,0,1-.56,1.59,8.5,8.5,0,0,1-2.26,2.94l-1.71,1.42A3.4,3.4,0,0,0,11,19l1,1-.3.15A3.071,3.071,0,0,0,10,22.9v.03A3.064,3.064,0,0,0,13.07,26a3.015,3.015,0,0,0,1.7-.52L17,24a9.341,9.341,0,0,1,2.94,2.34,9.052,9.052,0,0,1,1.75,3.3,3.877,3.877,0,0,0-.61,1.41A12.034,12.034,0,0,0,16.17,30H14.42a11.981,11.981,0,0,1-8.38-3.41,11.849,11.849,0,0,1-2.36-3.22l-.5-1.01A11.163,11.163,0,0,1,8.44,7.25,1.962,1.962,0,0,1,8,6a4,4,0,1,1,8,0Z" fill="#b27946"/>
          </g>
          <g id="Group_1203904" data-name="Group 1203904">
            <path id="Path_1045141" data-name="Path 1045141" d="M30,53v9H18V53a1,1,0,0,1,1-1H29A1,1,0,0,1,30,53Z" fill="#b4dd7f"/>
          </g>
          <g id="Group_1203905" data-name="Group 1203905">
            <path id="Path_1045142" data-name="Path 1045142" d="M46,53v9H34V53a1,1,0,0,1,1-1H45A1,1,0,0,1,46,53Z" fill="#b4dd7f"/>
          </g>
          <g id="Group_1203906" data-name="Group 1203906">
            <path id="Path_1045143" data-name="Path 1045143" d="M14.72,38.74c-.03-.04-.06-.09-.09-.13A4.158,4.158,0,0,1,14,36.39,2.39,2.39,0,0,1,16.39,34a2.453,2.453,0,0,1,1.15.29l6.29,3.44a5.736,5.736,0,0,1,.53.32A8,8,0,0,1,28,44.75V52H20a6.7,6.7,0,0,0-3-3L9.52,45.26a7.02,7.02,0,0,1-3.47-3.91L2.54,31.51A9.169,9.169,0,0,1,2,28.4a2.4,2.4,0,0,1,4.01-1.78,2.324,2.324,0,0,1,.61.86l3.36,8.06a4.974,4.974,0,0,0,3.63,2.98Z" fill="#f0d0b4"/>
          </g>
          <g id="Group_1203907" data-name="Group 1203907">
            <path id="Path_1045144" data-name="Path 1045144" d="M59.6,26l.4.04a2.372,2.372,0,0,1,2,2.36,9.169,9.169,0,0,1-.54,3.11l-3.51,9.84a7.019,7.019,0,0,1-3.47,3.91L47,49a6.7,6.7,0,0,0-3,3H36V44.75a8.02,8.02,0,0,1,2.35-5.67,7.9,7.9,0,0,1,1.82-1.35l6.29-3.44A2.453,2.453,0,0,1,47.61,34l.82.15A2.373,2.373,0,0,1,50,36.39a4.158,4.158,0,0,1-.63,2.22c-.03.04-.06.09-.09.13l1.11-.22a4.974,4.974,0,0,0,3.63-2.98l2.13-5.12h.01l1.22-2.94A2.407,2.407,0,0,1,59.6,26Z" fill="#f0d0b4"/>
          </g>
          <g id="Group_1203908" data-name="Group 1203908">
            <path id="Path_1045145" data-name="Path 1045145" d="M60,24.61v1.43L59.6,26a2.407,2.407,0,0,0-2.22,1.48l-1.22,2.94h-.01l-.37.19a3.652,3.652,0,0,1-1.66.39,3.772,3.772,0,0,1-2.06-.62l-4.67-3.12a6.219,6.219,0,0,0,.67,1.34,5.549,5.549,0,0,1,.37,5.54v.01L47.61,34a2.453,2.453,0,0,0-1.15.29l-6.29,3.44a7.9,7.9,0,0,0-1.82,1.35L38.26,39a9.962,9.962,0,0,0,1.6-2.14l1.17-2.11A7.7,7.7,0,0,0,42,31a2.993,2.993,0,0,0-.88-2.12,2.948,2.948,0,0,0-.95-.64l.52-2.33.33-1.5A5.628,5.628,0,0,1,46.52,20h.08a5.773,5.773,0,0,1,4.08,1.68L54,25l1.23-1.84A2.6,2.6,0,0,1,57.39,22,2.595,2.595,0,0,1,60,24.61Z" fill="#f0d0b4"/>
          </g>
          <g id="Group_1203909" data-name="Group 1203909">
            <path id="Path_1045146" data-name="Path 1045146" d="M35.08,24.31l5.61,1.6-.52,2.33L39,28a3,3,0,0,0-3,3v1l-3.17,1.59c-.24.12-.47.25-.7.39l-3.98-4.64a3.851,3.851,0,0,0-2.38-1.3l.81-1.02A8.071,8.071,0,0,1,32.87,24,7.815,7.815,0,0,1,35.08,24.31Z" fill="#f0d0b4"/>
          </g>
          <g id="Group_1203910" data-name="Group 1203910">
            <path id="Path_1045147" data-name="Path 1045147" d="M32.13,33.98c.23-.14.46-.27.7-.39L36,32V31a3,3,0,0,1,3-3l1.17.24a2.948,2.948,0,0,1,.95.64A2.993,2.993,0,0,1,42,31a7.7,7.7,0,0,1-.97,3.75l-1.17,2.11A10.011,10.011,0,0,1,31.12,42H27.51a7.944,7.944,0,0,0-3.15-3.95v-.01l-2.72-4.07A3.833,3.833,0,0,1,21,31.84a4.069,4.069,0,0,1,.08-.79A3.838,3.838,0,0,1,24.84,28h.39a3.272,3.272,0,0,1,.54.04,3.851,3.851,0,0,1,2.38,1.3Z" fill="#f0d0b4"/>
          </g>
          <g id="Group_1203911" data-name="Group 1203911">
            <path id="Path_1045148" data-name="Path 1045148" d="M30,20.85a9.028,9.028,0,0,1-.28,2.26l-.43,1.73a7.921,7.921,0,0,0-2.71,2.18l-.81,1.02a3.272,3.272,0,0,0-.54-.04h-.39a3.855,3.855,0,0,0-3.15,1.64,9.052,9.052,0,0,0-1.75-3.3A9.34,9.34,0,0,0,17,24l-2.23,1.48a3.015,3.015,0,0,1-1.7.52A3.064,3.064,0,0,1,10,22.93V22.9a3.071,3.071,0,0,1,1.7-2.75L12,20l-1-1a3.4,3.4,0,0,1,.22-5.02l1.71-1.42a8.5,8.5,0,0,0,2.26-2.94,8.115,8.115,0,0,0,.56-1.59h.01A9.969,9.969,0,0,1,20.5,9.66l1,.68A9.954,9.954,0,0,0,27,12v2l.27.27a9.151,9.151,0,0,1,1.43,1.85l-3.25,1.3A2.3,2.3,0,0,0,24,19.56v.14A2.3,2.3,0,0,0,26.3,22a2.245,2.245,0,0,0,1.28-.39l2.38-1.59h.01c.02.28.03.55.03.83Z" fill="#f0d0b4"/>
          </g>
          <g id="Group_1203912" data-name="Group 1203912">
            <path id="Path_1045149" data-name="Path 1045149" d="M29.97,20.02h-.01l-2.38,1.59A2.245,2.245,0,0,1,26.3,22,2.3,2.3,0,0,1,24,19.7v-.14a2.3,2.3,0,0,1,1.45-2.14l3.25-1.3a9.257,9.257,0,0,1,1.27,3.9Z" fill="#ff826e"/>
          </g>
        </g>
        <g id="Group_1203914" data-name="Group 1203914">
          <path id="Path_1045150" data-name="Path 1045150" d="M61,25.31v-.7a3.605,3.605,0,0,0-6.6-2l-.55.825-2.453-2.453A6.783,6.783,0,0,0,46.518,19a6.593,6.593,0,0,0-6.476,5.2l-.1.46-4.58-1.309a9.019,9.019,0,0,0-4.652-.081A10.261,10.261,0,0,0,28,13.585V11H27a8.886,8.886,0,0,1-4.941-1.5l-1.008-.672a10.915,10.915,0,0,0-4.13-1.646A9.721,9.721,0,0,0,17,6,5,5,0,1,0,7,6a2.951,2.951,0,0,0,.124.807,12.165,12.165,0,0,0-4.84,16l.505,1.007a13.263,13.263,0,0,0,.758,1.308A3.4,3.4,0,0,0,1,28.4a10.158,10.158,0,0,0,.6,3.442l3.516,9.846a7.972,7.972,0,0,0,3.956,4.464l7.484,3.742a5.726,5.726,0,0,1,1.653,1.272A2,2,0,0,0,17,53V63H31V53a2,2,0,0,0-2-2V44.749A8.922,8.922,0,0,0,28.808,43h2.308a10.982,10.982,0,0,0,4.285-.87,8.983,8.983,0,0,0-.4,2.619V51a2,2,0,0,0-2,2V63H47V53a2,2,0,0,0-1.206-1.834,5.726,5.726,0,0,1,1.653-1.272l7.484-3.742a7.967,7.967,0,0,0,3.956-4.465L62.4,31.843A10.168,10.168,0,0,0,63,28.4a3.4,3.4,0,0,0-2-3.09Zm-19-.68A4.628,4.628,0,0,1,46.6,21a4.743,4.743,0,0,1,3.379,1.392l4.178,4.178,1.9-2.854A1.6,1.6,0,0,1,59,24.6v.453a3.386,3.386,0,0,0-2.538,2.033l-1.084,2.6-.041.021a2.751,2.751,0,0,1-2.717-.169l-4.4-2.93A5.344,5.344,0,0,1,48,25.08V25l-2,.08a7.318,7.318,0,0,0,1.233,4.072,4.51,4.51,0,0,1,.56,3.867c-.062,0-.121-.019-.184-.019a3.4,3.4,0,0,0-1.623.414l-4.408,2.4.324-.584A8.732,8.732,0,0,0,43,31a3.989,3.989,0,0,0-1.7-3.259Zm7.674,9.086a6.293,6.293,0,0,0,.112-3.66l1.73,1.154a4.7,4.7,0,0,0,2.613.79c.1,0,.2-.011.3-.018L53.1,35.157a3.993,3.993,0,0,1-2.193,2.163A5.3,5.3,0,0,0,51,36.391a3.375,3.375,0,0,0-1.331-2.675ZM34.811,25.271l4.694,1.342-.1.428A3.829,3.829,0,0,0,35,31v.382l-2.619,1.31-.029.016L28.909,28.69a4.8,4.8,0,0,0-1.454-1.143A7.009,7.009,0,0,1,32.872,25a7.081,7.081,0,0,1,1.939.271ZM28.887,19.54l-1.862,1.242A1.3,1.3,0,0,1,25,19.7v-.139a1.294,1.294,0,0,1,.818-1.209l2.416-.966a8.169,8.169,0,0,1,.653,2.157ZM16.469,9.138A8.9,8.9,0,0,1,19.942,10.5l1.008.672A10.86,10.86,0,0,0,26,12.954v1.46l.567.567a8.466,8.466,0,0,1,.6.674l-2.092.837A3.286,3.286,0,0,0,23,19.559V19.7a3.3,3.3,0,0,0,5.135,2.747l.794-.529a8.365,8.365,0,0,1-.177.953l-.327,1.308A9.041,9.041,0,0,0,25.8,26.4l-.485.606c-.027,0-.054,0-.081,0h-.4a4.809,4.809,0,0,0-2.758.872,10.163,10.163,0,0,0-4.633-4.767l-.52-.26-2.709,1.807a2.084,2.084,0,1,1-2.073-3.608l1.544-.771L11.7,18.288a2.4,2.4,0,0,1,.16-3.539l1.7-1.42A9.516,9.516,0,0,0,16.469,9.138ZM13,36.391a5.29,5.29,0,0,0,.092.929A3.993,3.993,0,0,1,10.9,35.157L8.6,29.63A13,13,0,0,0,14.416,31h1.751a10.9,10.9,0,0,1,3.846.709c0,.044-.013.085-.013.129a4.828,4.828,0,0,0,.813,2.684l.439.658-3.238-1.766A3.39,3.39,0,0,0,13,36.391ZM8.3,8.467A2.995,2.995,0,0,0,13,6V5H11V6A1,1,0,0,1,9,6a3,3,0,0,1,6,0,7.517,7.517,0,0,1-2.714,5.792l-1.7,1.421a4.4,4.4,0,0,0-.294,6.489l.117.117a4.083,4.083,0,0,0,4.923,6.5l1.725-1.149a8.151,8.151,0,0,1,3.553,4.375c-.038.07-.08.139-.115.211A12.9,12.9,0,0,0,16.167,29H14.416a10.938,10.938,0,0,1-9.838-6.082l-.505-1.007A10.133,10.133,0,0,1,8.3,8.467ZM29,61H19V53H29ZM20.559,51a7.753,7.753,0,0,0-3.112-2.9L9.963,44.363A5.978,5.978,0,0,1,7,41.015L3.479,31.17A8.214,8.214,0,0,1,3,28.4a1.4,1.4,0,0,1,2.692-.539l3.36,8.065A5.993,5.993,0,0,0,13.414,39.5l.726.145a5.215,5.215,0,0,0,1.746,1.414l1.136.568a16.418,16.418,0,0,1,4.271,3.077l1.414-1.414a18.416,18.416,0,0,0-4.79-3.452l-1.136-.568A3.2,3.2,0,0,1,15,36.391a1.391,1.391,0,0,1,2.057-1.221l6.3,3.434A7,7,0,0,1,27,44.749V51Zm7.61-10A8.975,8.975,0,0,0,25.1,37.353l-2.627-3.94A2.838,2.838,0,0,1,24.838,29h.4a2.837,2.837,0,0,1,2.155.99l3.285,3.833a8.575,8.575,0,0,0-2.623,3.86l1.9.633a6.593,6.593,0,0,1,3.327-3.836L37,32.618V31a2,2,0,1,1,4,0,6.721,6.721,0,0,1-.846,3.263l-1.171,2.108A9,9,0,0,1,31.116,41ZM45,61H35V53H45ZM60.521,31.171l-3.516,9.844a5.977,5.977,0,0,1-2.968,3.349l-7.484,3.742A7.753,7.753,0,0,0,43.441,51H37V44.75A7,7,0,0,1,40.647,38.6l6.3-3.434A1.391,1.391,0,0,1,49,36.391a3.2,3.2,0,0,1-1.781,2.882l-1.136.568a18.416,18.416,0,0,0-4.79,3.452l1.414,1.414a16.418,16.418,0,0,1,4.271-3.077l1.136-.568a5.225,5.225,0,0,0,1.746-1.414l.727-.145a5.994,5.994,0,0,0,4.361-3.576l3.36-8.065A1.4,1.4,0,0,1,61,28.4a8.224,8.224,0,0,1-.479,2.771Z"/>
          <path id="Path_1045151" data-name="Path 1045151" d="M21,13H19a2,2,0,0,1-2,2v2A4,4,0,0,0,21,13Z"/>
        </g>
      </g>
    </g>
  </g>
</svg>
