<svg xmlns="http://www.w3.org/2000/svg" xmlns:xlink="http://www.w3.org/1999/xlink" width="113" height="113" viewBox="0 0 113 113">
  <defs>
    <filter id="Path_982547" x="0" y="0" width="113" height="113" filterUnits="userSpaceOnUse">
      <feOffset dy="3" input="SourceAlpha"/>
      <feGaussianBlur stdDeviation="3" result="blur"/>
      <feFlood flood-opacity="0.161"/>
      <feComposite operator="in" in2="blur"/>
      <feComposite in="SourceGraphic"/>
    </filter>
  </defs>
  <g id="Group_1203944" data-name="Group 1203944" transform="translate(-921.51 -4045.893)">
    <g id="Group_1203574" data-name="Group 1203574" transform="translate(930.51 4051.893)">
      <g id="Group_1177337" data-name="Group 1177337" transform="translate(0 0)">
        <g id="Group_1176922" data-name="Group 1176922">
          <g id="Group_1172322" data-name="Group 1172322">
            <g id="Group_1164700" data-name="Group 1164700">
              <g id="Group_1160931" data-name="Group 1160931">
                <g id="Group_1160749" data-name="Group 1160749">
                  <g id="Group_1158891" data-name="Group 1158891">
                    <g id="Group_1157406" data-name="Group 1157406">
                      <g id="Group_1155793" data-name="Group 1155793">
                        <g id="Group_1154704" data-name="Group 1154704">
                          <g id="Group_1150790" data-name="Group 1150790">
                            <g id="Group_1154214" data-name="Group 1154214">
                              <g id="Group_1152583" data-name="Group 1152583">
                                <g id="Group_1146973" data-name="Group 1146973">
                                  <g id="Group_1146954" data-name="Group 1146954">
                                    <g transform="matrix(1, 0, 0, 1, -9, -6)" filter="url(#Path_982547)">
                                      <g id="Path_982547-2" data-name="Path 982547" transform="translate(9 6)" fill="#fff6f9">
                                        <path d="M 47.5000114440918 93.49987030029297 C 41.28938293457031 93.49987030029297 35.26534652709961 92.28384399414062 29.5951976776123 89.88558959960938 C 24.11773109436035 87.56881713867188 19.19814491271973 84.25183868408203 14.97310447692871 80.02680206298828 C 10.74805164337158 75.80176544189453 7.43107795715332 70.88218688964844 5.114304542541504 65.40472412109375 C 2.716038227081299 59.73458862304688 1.500011444091797 53.71054840087891 1.500011444091797 47.49993515014648 C 1.500011444091797 41.28932189941406 2.716038227081299 35.26528167724609 5.114304542541504 29.59514808654785 C 7.43107795715332 24.1176815032959 10.74805164337158 19.1981086730957 14.97310447692871 14.97306823730469 C 19.19814491271973 10.74802875518799 24.11773109436035 7.431055068969727 29.5951976776123 5.11428165435791 C 35.26534652709961 2.716028451919556 41.28938293457031 1.500001788139343 47.5000114440918 1.500001788139343 C 53.71063995361328 1.500001788139343 59.73467636108398 2.716028451919556 65.40482330322266 5.11428165435791 C 70.88229370117188 7.431055068969727 75.8018798828125 10.74802875518799 80.02691650390625 14.97306823730469 C 84.25196838378906 19.1981086730957 87.56894683837891 24.1176815032959 89.88571929931641 29.59514808654785 C 92.28398132324219 35.26528167724609 93.50001525878906 41.28932189941406 93.50001525878906 47.49993515014648 C 93.50001525878906 53.71054840087891 92.28398132324219 59.73458862304688 89.88571929931641 65.40472412109375 C 87.56894683837891 70.88218688964844 84.25196838378906 75.80176544189453 80.02691650390625 80.02680206298828 C 75.8018798828125 84.25183868408203 70.88229370117188 87.56881713867188 65.40482330322266 89.88558959960938 C 59.73467636108398 92.28384399414062 53.71063995361328 93.49987030029297 47.5000114440918 93.49987030029297 Z" stroke="none"/>
                                        <path d="M 47.5000114440918 3 C 41.49122619628906 3 35.66378021240234 4.1761474609375 30.17951965332031 6.495796203613281 C 24.880859375 8.7369384765625 20.12153625488281 11.94596862792969 16.03376770019531 16.03373718261719 C 11.94598388671875 20.12149047851562 8.736968994140625 24.88081359863281 6.495811462402344 30.17947387695312 C 4.176162719726562 35.66371917724609 3.000007629394531 41.49116516113281 3.000007629394531 47.49993515014648 C 3.000007629394531 53.50870513916016 4.176162719726562 59.33615112304688 6.495811462402344 64.82039642333984 C 8.736968994140625 70.11905670166016 11.94598388671875 74.87837982177734 16.03376770019531 78.96613311767578 C 20.12153625488281 83.05390167236328 24.880859375 86.26293182373047 30.17951965332031 88.50407409667969 C 35.66378021240234 90.82372283935547 41.49122619628906 91.99987030029297 47.5000114440918 91.99987030029297 C 53.50879669189453 91.99987030029297 59.33624267578125 90.82372283935547 64.82050323486328 88.50407409667969 C 70.11916351318359 86.26293182373047 74.87848663330078 83.05390167236328 78.96625518798828 78.96613311767578 C 83.05403900146484 74.87837982177734 86.2630615234375 70.11905670166016 88.50421142578125 64.82039642333984 C 90.82386016845703 59.33615112304688 92.00001525878906 53.50870513916016 92.00001525878906 47.49993515014648 C 92.00001525878906 41.49116516113281 90.82386016845703 35.66371917724609 88.50421142578125 30.17947387695312 C 86.2630615234375 24.88081359863281 83.05403900146484 20.12149047851562 78.96625518798828 16.03373718261719 C 74.87848663330078 11.94596862792969 70.11916351318359 8.7369384765625 64.82050323486328 6.495796203613281 C 59.33624267578125 4.1761474609375 53.50879669189453 3 47.5000114440918 3 M 47.5000114440918 0 C 73.73353576660156 0 95.00001525878906 21.26644134521484 95.00001525878906 47.49993515014648 C 95.00001525878906 73.73342895507812 73.73353576660156 94.99987030029297 47.5000114440918 94.99987030029297 C 21.26648712158203 94.99987030029297 7.62939453125e-06 73.73342895507812 7.62939453125e-06 47.49993515014648 C 7.62939453125e-06 21.26644134521484 21.26648712158203 0 47.5000114440918 0 Z" stroke="none" fill="#8b5e6f"/>
                                      </g>
                                    </g>
                                  </g>
                                </g>
                              </g>
                            </g>
                          </g>
                        </g>
                      </g>
                    </g>
                  </g>
                </g>
              </g>
            </g>
          </g>
        </g>
      </g>
    </g>
    <g id="perseguir" transform="translate(930.51 3984.973)">
      <path id="Path_1044672" data-name="Path 1044672" d="M131.625,276.206l-4.025,9.717-7.288-3.019a2.629,2.629,0,1,0-2.012,4.859l7.288,3.019a5.259,5.259,0,0,0,6.871-2.846l4.025-9.717Z" transform="translate(-96.222 -155.509)" fill="#25d4f2"/>
      <path id="Path_1044673" data-name="Path 1044673" d="M269.539,95.142v13.147a6.574,6.574,0,0,0,0-13.147Z" transform="translate(-222.289 -6.185)" fill="#3992e3"/>
      <path id="Path_1044674" data-name="Path 1044674" d="M239.927,101.716c0-3.631-.589-6.574-1.315-6.574a6.574,6.574,0,1,0,0,13.147C239.339,108.289,239.927,105.346,239.927,101.716Z" transform="translate(-191.363 -6.185)" fill="#2fb3ea"/>
      <path id="Path_1044675" data-name="Path 1044675" d="M239.964,229.849l-10.276-4.259-2.012,4.859,10.276,4.259a2.629,2.629,0,0,0,2.012-4.859Z" transform="translate(-187.765 -113.766)" fill="#25d4f2"/>
      <path id="Path_1044676" data-name="Path 1044676" d="M146.763,188.074l4.092-9.879a5.237,5.237,0,0,0,0-4.025c-.513-1.243-3.932-3.3-5.275-3.853l-7.288-3.019a5.274,5.274,0,0,0-6.871,2.846l-2.08,5.021a2.629,2.629,0,0,0,4.859,2.012l2.08-5.021,4.858,2.012-4.092,9.879a5.259,5.259,0,0,0,2.846,6.871l7.288,3.019Z" transform="translate(-106.502 -65.364)" fill="#2fb3ea"/>
      <path id="Path_1044677" data-name="Path 1044677" d="M225.9,224.163a2.629,2.629,0,1,1-5.258,0V211.618l-3.872-1.6a5.261,5.261,0,0,1-2.846-6.871l4.092-9.879a5.261,5.261,0,0,0-2.846-6.871l4.859,2.012a5.259,5.259,0,0,1,2.846,6.871l-4.092,9.879,3.832,1.587a5.3,5.3,0,0,1,3.286,4.839Z" transform="translate(-176.089 -81.439)" fill="#3992e3"/>
      <path id="Path_1044678" data-name="Path 1044678" d="M329.085,276.206l-4.025,9.717-7.288-3.019a2.629,2.629,0,0,0-2.012,4.859l7.288,3.019a5.259,5.259,0,0,0,6.871-2.846l4.025-9.717Z" transform="translate(-259.068 -155.509)" fill="#ffba48"/>
      <path id="Path_1044679" data-name="Path 1044679" d="M467,95.142v13.147a6.574,6.574,0,1,0,0-13.147Z" transform="translate(-385.136 -6.185)" fill="#ff7a3c"/>
      <path id="Path_1044680" data-name="Path 1044680" d="M437.388,101.716c0-3.631-.589-6.574-1.315-6.574a6.574,6.574,0,0,0,0,13.147C436.8,108.289,437.388,105.346,437.388,101.716Z" transform="translate(-354.21 -6.185)" fill="#ff9a42"/>
      <path id="Path_1044681" data-name="Path 1044681" d="M437.425,229.849l-10.276-4.259-2.012,4.859,10.276,4.259a2.629,2.629,0,0,0,2.012-4.859Z" transform="translate(-350.611 -113.766)" fill="#ffba48"/>
      <path id="Path_1044682" data-name="Path 1044682" d="M362.545,149.22l4.092-9.879a5.237,5.237,0,0,0,0-4.025c-.513-1.243-3.932-3.3-5.275-3.853l-7.288-3.019,2.08-5.021a2.629,2.629,0,1,0-4.859-2.012l-2.08,5.021a5.275,5.275,0,0,0,2.846,6.871l4.859,2.012-4.092,9.879a5.259,5.259,0,0,0,2.846,6.871l7.288,3.019Z" transform="translate(-287.67 -26.511)" fill="#ff9a42"/>
      <path id="Path_1044683" data-name="Path 1044683" d="M423.359,224.163a2.629,2.629,0,1,1-5.258,0V211.618l-3.872-1.6a5.261,5.261,0,0,1-2.846-6.871l4.092-9.879a5.261,5.261,0,0,0-2.846-6.871l4.859,2.012a5.259,5.259,0,0,1,2.846,6.871l-4.092,9.879,3.832,1.587a5.3,5.3,0,0,1,3.286,4.839Z" transform="translate(-338.937 -81.439)" fill="#ff7a3c"/>
      <path id="Path_1044684" data-name="Path 1044684" d="M189.131,111.871l3.354-3.46-4.452-1.844a3.287,3.287,0,1,0,1.1,5.3Z" transform="translate(-151.309 -15.395)" fill="#2fb3ea"/>
      <path id="Path_1044685" data-name="Path 1044685" d="M429.888,103.419A7.888,7.888,0,1,0,422,95.53,7.9,7.9,0,0,0,429.888,103.419Zm0-13.147a5.259,5.259,0,1,1-5.259,5.259A5.265,5.265,0,0,1,429.888,90.271Z" transform="translate(-348.024)"/>
      <path id="Path_1044686" data-name="Path 1044686" d="M340.2,135.187l-4.324-1.793a6.577,6.577,0,0,0-3.939-7.324l-10.932-4.528,1.577-3.806a3.944,3.944,0,1,0-7.288-3.019l-2.08,5.021a6.589,6.589,0,0,0,3.558,8.589l3.644,1.509L316.83,138.5a6.578,6.578,0,0,0,2.393,7.964l-1.057,2.551-6.073-2.516a3.944,3.944,0,1,0-3.019,7.288l7.288,3.019a6.574,6.574,0,0,0,8.589-3.558l1.509-3.644,4.275,1.771v11.667a3.944,3.944,0,0,0,7.888,0V150.455a6.579,6.579,0,0,0-4.1-6.048l-2.617-1.084,1.073-2.591,4.2,1.743a3.944,3.944,0,0,0,3.019-7.288Zm-17.682,17.055a3.949,3.949,0,0,1-5.153,2.135l-7.288-3.019a1.315,1.315,0,1,1,1.006-2.43l7.288,3.019a1.314,1.314,0,0,0,1.718-.712l1.509-3.644,2.429,1.006Zm11-5.406A4.006,4.006,0,0,1,336,150.46v12.582a1.315,1.315,0,1,1-2.629,0V150.5a1.315,1.315,0,0,0-.812-1.215l-11.16-4.622a3.944,3.944,0,0,1-2.135-5.154l4.092-9.879a1.314,1.314,0,0,0-.712-1.718l-4.859-2.012a3.96,3.96,0,0,1-2.135-5.153l2.08-5.021a1.315,1.315,0,1,1,2.429,1.006l-2.08,5.021a1.314,1.314,0,0,0,.712,1.718l12.146,5.032a3.944,3.944,0,0,1,2.135,5.153l-4.092,9.879a1.314,1.314,0,0,0,.712,1.718Zm6.39-7.5a1.317,1.317,0,0,1-1.717.712l-4.2-1.743,1.006-2.429,4.2,1.743A1.316,1.316,0,0,1,339.909,139.334Z" transform="translate(-252.887 -20.319)"/>
      <path id="Path_1044687" data-name="Path 1044687" d="M139.724,181.324a3.944,3.944,0,0,0,3.019-7.288l-4.324-1.793a6.577,6.577,0,0,0-3.939-7.325l-12.147-5.031a6.58,6.58,0,0,0-8.589,3.558l-2.08,5.021a3.944,3.944,0,1,0,7.288,3.019l1.576-3.806,2.429,1.006-3.589,8.665a6.585,6.585,0,0,0,2.394,7.964l-1.057,2.551-6.073-2.516a3.944,3.944,0,0,0-3.019,7.288l7.288,3.019a6.574,6.574,0,0,0,8.589-3.558L129,188.454l4.275,1.771v11.667a3.944,3.944,0,0,0,7.888,0V189.3a6.579,6.579,0,0,0-4.1-6.048l-2.617-1.084,1.073-2.591Zm2.724-3.141a1.317,1.317,0,0,1-1.717.712l-4.2-1.743,1.006-2.429,4.2,1.742a1.316,1.316,0,0,1,.712,1.718Zm-17.387,12.909a3.949,3.949,0,0,1-5.153,2.135l-7.288-3.019a1.315,1.315,0,1,1,1.006-2.43l7.288,3.019a1.314,1.314,0,0,0,1.718-.712l1.509-3.644,2.429,1.006Zm11-5.406a4.006,4.006,0,0,1,2.475,3.624v12.582a1.315,1.315,0,1,1-2.629,0V189.346a1.315,1.315,0,0,0-.812-1.215l-11.16-4.622a3.944,3.944,0,0,1-2.135-5.154l4.092-9.879a1.315,1.315,0,0,0-.712-1.718l-4.859-2.012a1.314,1.314,0,0,0-1.718.712l-2.08,5.021a1.315,1.315,0,0,1-2.429-1.006l2.08-5.021a3.96,3.96,0,0,1,5.153-2.135l12.147,5.031a3.944,3.944,0,0,1,2.135,5.153l-4.092,9.879a1.315,1.315,0,0,0,.712,1.718Z" transform="translate(-90.04 -59.168)"/>
      <path id="Path_1044688" data-name="Path 1044688" d="M15.646,305.773H1.315a1.315,1.315,0,0,0,0,2.629H15.646a1.315,1.315,0,0,0,0-2.629Z" transform="translate(0 -179.893)"/>
      <path id="Path_1044689" data-name="Path 1044689" d="M40.387,335.773H31.315a1.315,1.315,0,1,0,0,2.629h9.073a1.315,1.315,0,1,0,0-2.629Z" transform="translate(-24.741 -204.634)"/>
      <path id="Path_1044690" data-name="Path 1044690" d="M13.624,365.773H1.315a1.315,1.315,0,1,0,0,2.629H13.624a1.315,1.315,0,1,0,0-2.629Z" transform="translate(0 -229.375)"/>
      <path id="Path_1044691" data-name="Path 1044691" d="M104.164,365.773h-2.629a1.315,1.315,0,1,0,0,2.629h2.629a1.315,1.315,0,1,0,0-2.629Z" transform="translate(-82.652 -229.375)"/>
      <path id="Path_1044692" data-name="Path 1044692" d="M1.315,229.921H3.944a1.315,1.315,0,0,0,0-2.629H1.315a1.315,1.315,0,0,0,0,2.629Z" transform="translate(0 -115.17)"/>
      <path id="Path_1044693" data-name="Path 1044693" d="M54.943,227.292H46.315a1.315,1.315,0,0,0,0,2.629h8.628a1.315,1.315,0,1,0,0-2.629Z" transform="translate(-37.112 -115.17)"/>
      <path id="Path_1044694" data-name="Path 1044694" d="M1.315,199.921H17.748a1.315,1.315,0,0,0,0-2.629H1.315a1.315,1.315,0,0,0,0,2.629Z" transform="translate(0 -90.429)"/>
      <path id="Path_1044695" data-name="Path 1044695" d="M178.042,98.047a4.569,4.569,0,0,0,2.517.757,4.652,4.652,0,0,0,.942-.1,4.575,4.575,0,0,0,2.386-1.319l.679-.7a7.9,7.9,0,1,0,1.123-5.346l-3.335-1.382a4.6,4.6,0,0,0-4.312,8.087Zm14.327-7.776a5.259,5.259,0,1,1-5.259,5.259A5.265,5.265,0,0,1,192.369,90.271Zm-13.448,2.847a1.96,1.96,0,0,1,1.248-.848,1.968,1.968,0,0,1,1.171.116L184,93.49l-2.013,2.077a1.972,1.972,0,0,1-3.071-2.448Z" transform="translate(-145.119 0)"/>
    </g>
  </g>
</svg>
