<svg xmlns="http://www.w3.org/2000/svg" xmlns:xlink="http://www.w3.org/1999/xlink" width="113" height="113" viewBox="0 0 113 113">
  <defs>
    <filter id="Path_982547" x="0" y="0" width="113" height="113" filterUnits="userSpaceOnUse">
      <feOffset dy="3" input="SourceAlpha"/>
      <feGaussianBlur stdDeviation="3" result="blur"/>
      <feFlood flood-opacity="0.161"/>
      <feComposite operator="in" in2="blur"/>
      <feComposite in="SourceGraphic"/>
    </filter>
  </defs>
  <g id="Group_1203926" data-name="Group 1203926" transform="translate(-901.56 -1154.448)">
    <g id="Group_1203716" data-name="Group 1203716">
      <g id="Group_1203494" data-name="Group 1203494" transform="translate(0 -984.148)">
        <g id="Group_1202591" data-name="Group 1202591" transform="translate(910.561 2144.596)">
          <g id="Group_1172010" data-name="Group 1172010" transform="translate(0)">
            <g id="Group_1171046" data-name="Group 1171046">
              <g id="Group_1148525" data-name="Group 1148525">
                <g transform="matrix(1, 0, 0, 1, -9, -6)" filter="url(#Path_982547)">
                  <g id="Path_982547-2" data-name="Path 982547" transform="translate(9 6)" fill="#f4f4fd">
                    <path d="M 47.5 93.5 C 41.28937149047852 93.5 35.26533508300781 92.28397369384766 29.59518623352051 89.88570404052734 C 24.11771965026855 87.56893157958984 19.19813346862793 84.25196075439453 14.97309303283691 80.02691650390625 C 10.74804019927979 75.80186462402344 7.431066513061523 70.88229370117188 5.114293098449707 65.40481567382812 C 2.716026782989502 59.73468017578125 1.5 53.71062850952148 1.5 47.5 C 1.5 41.28937149047852 2.716026782989502 35.26533508300781 5.114293098449707 29.59518623352051 C 7.431066513061523 24.11771965026855 10.74804019927979 19.19813346862793 14.97309303283691 14.97309303283691 C 19.19813346862793 10.74804019927979 24.11771965026855 7.431066513061523 29.59518623352051 5.114293098449707 C 35.26533508300781 2.716026782989502 41.28937149047852 1.5 47.5 1.5 C 53.71062850952148 1.5 59.73468017578125 2.716026782989502 65.40481567382812 5.114293098449707 C 70.88229370117188 7.431066513061523 75.80186462402344 10.74804019927979 80.02691650390625 14.97309303283691 C 84.25196075439453 19.19813346862793 87.56893157958984 24.11771965026855 89.88570404052734 29.59518623352051 C 92.28397369384766 35.26533508300781 93.5 41.28937149047852 93.5 47.5 C 93.5 53.71062850952148 92.28397369384766 59.73468017578125 89.88570404052734 65.40481567382812 C 87.56893157958984 70.88229370117188 84.25196075439453 75.80186462402344 80.02691650390625 80.02691650390625 C 75.80186462402344 84.25196075439453 70.88229370117188 87.56893157958984 65.40481567382812 89.88570404052734 C 59.73468017578125 92.28397369384766 53.71062850952148 93.5 47.5 93.5 Z" stroke="none"/>
                    <path d="M 47.5 3 C 41.49121475219727 3 35.66376876831055 4.176155090332031 30.17950439453125 6.495796203613281 C 24.88084411621094 8.736953735351562 20.12152099609375 11.94598388671875 16.03375244140625 16.03375244140625 C 11.94598388671875 20.12152099609375 8.736953735351562 24.88084411621094 6.495796203613281 30.17950439453125 C 4.176155090332031 35.66376876831055 3 41.49121475219727 3 47.5 C 3 53.50878524780273 4.176155090332031 59.33623123168945 6.495796203613281 64.82049560546875 C 8.736953735351562 70.11915588378906 11.94598388671875 74.87847900390625 16.03375244140625 78.96624755859375 C 20.12152099609375 83.05401611328125 24.88084411621094 86.26304626464844 30.17950439453125 88.50419616699219 C 35.66376876831055 90.82384490966797 41.49121475219727 92 47.5 92 C 53.50878524780273 92 59.33623123168945 90.82384490966797 64.82049560546875 88.50419616699219 C 70.11915588378906 86.26304626464844 74.87847900390625 83.05401611328125 78.96624755859375 78.96624755859375 C 83.05401611328125 74.87847900390625 86.26304626464844 70.11915588378906 88.50419616699219 64.82049560546875 C 90.82384490966797 59.33623123168945 92 53.50878524780273 92 47.5 C 92 41.49121475219727 90.82384490966797 35.66376876831055 88.50419616699219 30.17950439453125 C 86.26304626464844 24.88084411621094 83.05401611328125 20.12152099609375 78.96624755859375 16.03375244140625 C 74.87847900390625 11.94598388671875 70.11915588378906 8.736953735351562 64.82049560546875 6.495796203613281 C 59.33623123168945 4.176155090332031 53.50878524780273 3 47.5 3 M 47.5 0 C 73.7335205078125 0 95 21.2664794921875 95 47.5 C 95 73.7335205078125 73.7335205078125 95 47.5 95 C 21.2664794921875 95 0 73.7335205078125 0 47.5 C 0 21.2664794921875 21.2664794921875 0 47.5 0 Z" stroke="none" fill="#6f6e88"/>
                  </g>
                </g>
              </g>
            </g>
          </g>
        </g>
      </g>
      <g id="cough_10282399" transform="translate(885.273 1169.207)">
        <g id="Group_1203714" data-name="Group 1203714" transform="translate(46.442 7.5)">
          <g id="Group_1203712" data-name="Group 1203712" transform="translate(10.575 42.399)">
            <path id="Path_1044416" data-name="Path 1044416" d="M162.1,360.627q0-.078,0-.156a15.771,15.771,0,0,0-31.541.054q0,.061,0,.123a4.234,4.234,0,0,0,4.24,4.19h23.06A4.239,4.239,0,0,0,162.1,360.627Z" transform="translate(-130.558 -344.754)" fill="#f85647"/>
            <path id="Path_1044417" data-name="Path 1044417" d="M139.111,358.032a14.044,14.044,0,0,1,2.961-8.647,15.777,15.777,0,0,0-11.515,15.188q0,.061,0,.123a4.234,4.234,0,0,0,4.24,4.19h9.41A14.076,14.076,0,0,1,139.111,358.032Z" transform="translate(-130.558 -348.803)" fill="#e83826"/>
          </g>
          <circle id="Ellipse_12676" data-name="Ellipse 12676" cx="5.671" cy="5.671" r="5.671" transform="translate(0 20.037)" fill="#ffddcf"/>
          <circle id="Ellipse_12677" data-name="Ellipse 12677" cx="5.671" cy="5.671" r="5.671" transform="translate(41.349 20.037)" fill="#ffcbbe"/>
          <path id="Path_1044418" data-name="Path 1044418" d="M132.049,61.34c-.06,6.017-1.663,11.449-5.262,15.358-3.536,3.912-9.067,6.3-15.556,6.3s-12.02-2.393-15.556-6.3c-3.6-3.909-5.2-9.34-5.262-15.358.06-6.017,1.663-11.449,5.262-15.358,3.536-3.912,9.067-6.3,15.556-6.3s12.019,2.393,15.556,6.3C130.385,49.891,131.989,55.322,132.049,61.34Z" transform="translate(-84.886 -35.632)" fill="#ffddcf"/>
          <path id="Path_1044419" data-name="Path 1044419" d="M99.429,62.55a30.307,30.307,0,0,1,7.833-20.375,19.64,19.64,0,0,0-11.585,5.991c-3.6,3.909-5.2,9.34-5.262,15.358.06,6.017,1.663,11.449,5.262,15.358a20.21,20.21,0,0,0,13.783,6.243A30.341,30.341,0,0,1,99.429,62.55Z" transform="translate(-84.887 -37.816)" fill="#ffcbbe"/>
          <circle id="Ellipse_12678" data-name="Ellipse 12678" cx="5.357" cy="5.357" r="5.357" transform="translate(33.792 40.914)" fill="#ffcbbe"/>
          <ellipse id="Ellipse_12679" data-name="Ellipse 12679" cx="3.9" cy="3.106" rx="3.9" ry="3.106" transform="translate(11.876 30.473)" fill="#ffa1ac"/>
          <ellipse id="Ellipse_12680" data-name="Ellipse 12680" cx="3.9" cy="3.106" rx="3.9" ry="3.106" transform="translate(33.015 30.473)" fill="#ffa1ac"/>
          <ellipse id="Ellipse_12681" data-name="Ellipse 12681" cx="2.07" cy="2.317" rx="2.07" ry="2.317" transform="translate(24.275 28.876)" fill="#3b4456"/>
          <path id="Path_1044420" data-name="Path 1044420" d="M198.868,310.789h-.042a1.838,1.838,0,0,1-1.817-1.831v-2.745a2.547,2.547,0,0,0-2.547-2.547H191.03a2.547,2.547,0,0,0-2.547,2.547v2.745a1.838,1.838,0,0,1-1.817,1.831h-.041a3.075,3.075,0,1,0,1.542,5.791,4.613,4.613,0,1,0,9.159,0,3.075,3.075,0,1,0,1.542-5.791Z" transform="translate(-166.401 -266.432)" fill="#a4e7ff"/>
          <g id="Group_1203713" data-name="Group 1203713" transform="translate(4.158 0)">
            <path id="Path_1044421" data-name="Path 1044421" d="M123.665,20.412a18.206,18.206,0,0,0-2.428-1.116,25.686,25.686,0,0,0,1.169-2.625,1.941,1.941,0,0,0-1.777-2.626,28.951,28.951,0,0,0-4.05.182,3.708,3.708,0,0,1-2.289-.485,25.037,25.037,0,0,0-12.6-3.2h-.015A3.216,3.216,0,0,1,99.279,9.5q-.734-.81-1.517-1.535a1.732,1.732,0,0,0-2.441.091,21.635,21.635,0,0,0-1.475,1.764A3.2,3.2,0,0,1,90,10.835a28.714,28.714,0,0,0-4.66-1.585,1.986,1.986,0,0,0-2.4,1.433,21.957,21.957,0,0,0-.539,7.966,3.25,3.25,0,0,1-.435,2.083A22.829,22.829,0,0,0,79.6,26.226a1.951,1.951,0,0,0,1.315,2.422,29.268,29.268,0,0,0,8.138,1.136,27.164,27.164,0,0,0,16.108-5.015,3.1,3.1,0,0,1,3.685,0,26.511,26.511,0,0,0,13.123,4.863,1.957,1.957,0,0,0,2.079-2.423,25.51,25.51,0,0,0-.926-2.969,21.224,21.224,0,0,0,1.132-1.834A1.474,1.474,0,0,0,123.665,20.412Z" transform="translate(-79.518 -7.503)" fill="#5d6a85"/>
            <path id="Path_1044422" data-name="Path 1044422" d="M99.7,9.881A3.1,3.1,0,0,1,99.28,9.5q-.734-.81-1.517-1.535a1.732,1.732,0,0,0-2.441.091,21.636,21.636,0,0,0-1.475,1.764A3.2,3.2,0,0,1,90,10.836a28.717,28.717,0,0,0-4.66-1.585,1.986,1.986,0,0,0-2.4,1.433A21.958,21.958,0,0,0,82.4,18.65a3.25,3.25,0,0,1-.435,2.083A22.831,22.831,0,0,0,79.6,26.227a1.951,1.951,0,0,0,1.315,2.422,29.268,29.268,0,0,0,8.138,1.136c.319,0,.636-.006.952-.016A30.338,30.338,0,0,1,99.7,9.881Z" transform="translate(-79.519 -7.504)" fill="#475066"/>
          </g>
        </g>
        <g id="Group_1203715" data-name="Group 1203715" transform="translate(46.442 7.499)">
          <path id="Path_1044423" data-name="Path 1044423" d="M382.16,183.6a32.419,32.419,0,0,1,.229,3.568,30.323,30.323,0,0,1-.564,5.656,19.854,19.854,0,0,1-4.7,9.7q-.185.2-.376.4" transform="translate(-335.226 -161.464)" fill="none" stroke="#000" stroke-linecap="round" stroke-linejoin="round" stroke-miterlimit="10" stroke-width="2"/>
          <path id="Path_1044424" data-name="Path 1044424" d="M94.383,194.68a20.73,20.73,0,0,1-3.405-8.119,30.323,30.323,0,0,1-.564-5.656,31.169,31.169,0,0,1,.355-4.469" transform="translate(-84.885 -155.197)" fill="none" stroke="#000" stroke-linecap="round" stroke-linejoin="round" stroke-miterlimit="10" stroke-width="2"/>
          <path id="Path_1044425" data-name="Path 1044425" d="M151.3,350.488q-.377-.149-.746-.313a18.846,18.846,0,0,1-4.452-2.743" transform="translate(-133.577 -304.696)" fill="none" stroke="#000" stroke-linecap="round" stroke-linejoin="round" stroke-miterlimit="10" stroke-width="2"/>
          <path id="Path_1044426" data-name="Path 1044426" d="M150.26,386.257H134.8a4.234,4.234,0,0,1-4.24-4.19v-.123a15.746,15.746,0,0,1,6.407-12.69" transform="translate(-119.987 -323.775)" fill="none" stroke="#000" stroke-linecap="round" stroke-linejoin="round" stroke-miterlimit="10" stroke-width="2"/>
          <path id="Path_1044427" data-name="Path 1044427" d="M328.159,416.594a15.639,15.639,0,0,1,1.521,6.686c0,.052,0,.1,0,.156a4.24,4.24,0,0,1-4.24,4.21h-3.2" transform="translate(-287.565 -365.163)" fill="none" stroke="#000" stroke-linecap="round" stroke-linejoin="round" stroke-miterlimit="10" stroke-width="2"/>
          <path id="Path_1044428" data-name="Path 1044428" d="M85.374,29.556h0a29.956,29.956,0,0,0,3.68.225,27.158,27.158,0,0,0,16.107-5.015,3.1,3.1,0,0,1,3.686,0,25.591,25.591,0,0,0,9.651,4.306,28.878,28.878,0,0,0,3.471.558,1.914,1.914,0,0,0,.328.005,1.962,1.962,0,0,0,1.751-2.429,25.566,25.566,0,0,0-.927-2.969,20.966,20.966,0,0,0,1.133-1.834,1.475,1.475,0,0,0-.587-2,18.222,18.222,0,0,0-2.428-1.116,25.6,25.6,0,0,0,1.169-2.624,1.941,1.941,0,0,0-1.778-2.626,28.875,28.875,0,0,0-4.049.181,3.713,3.713,0,0,1-2.289-.485,25.039,25.039,0,0,0-12.6-3.2h-.015A3.216,3.216,0,0,1,99.284,9.5q-.734-.811-1.516-1.536a1.731,1.731,0,0,0-2.44.091,21.757,21.757,0,0,0-1.475,1.765A3.205,3.205,0,0,1,90,10.833a28.633,28.633,0,0,0-4.66-1.585,1.986,1.986,0,0,0-2.4,1.433,21.986,21.986,0,0,0-.539,7.965,3.249,3.249,0,0,1-.435,2.083A22.779,22.779,0,0,0,79.6,26.223a1.976,1.976,0,0,0,.146,1.462,1.916,1.916,0,0,0,1.169.959l.331.093" transform="translate(-75.365 -7.499)" fill="none" stroke="#000" stroke-linecap="round" stroke-linejoin="round" stroke-miterlimit="10" stroke-width="2"/>
          <path id="Path_1044429" data-name="Path 1044429" d="M50.825,168.064a5.67,5.67,0,0,0,1.289,11.193c.142,0,.282-.005.421-.015" transform="translate(-46.442 -147.878)" fill="none" stroke="#000" stroke-linecap="round" stroke-linejoin="round" stroke-miterlimit="10" stroke-width="2"/>
          <path id="Path_1044430" data-name="Path 1044430" d="M97.361,177.252h0a28.611,28.611,0,0,1-4.127-.818" transform="translate(-87.35 -155.196)" fill="none" stroke="#000" stroke-linecap="round" stroke-linejoin="round" stroke-miterlimit="10" stroke-width="2"/>
          <path id="Path_1044431" data-name="Path 1044431" d="M419.243,169a5.671,5.671,0,0,1-1.72,11.075c-.142,0-.282-.005-.421-.015" transform="translate(-370.503 -148.7)" fill="none" stroke="#000" stroke-linecap="round" stroke-linejoin="round" stroke-miterlimit="10" stroke-width="2"/>
          <ellipse id="Ellipse_12682" data-name="Ellipse 12682" cx="2.07" cy="2.317" rx="2.07" ry="2.317" transform="translate(24.275 28.877)" fill="none" stroke="#000" stroke-linecap="round" stroke-linejoin="round" stroke-miterlimit="10" stroke-width="2"/>
          <path id="Path_1044432" data-name="Path 1044432" d="M316.812,336.856a5.359,5.359,0,1,1,.777,4.526" transform="translate(-282.822 -292.031)" fill="none" stroke="#000" stroke-linecap="round" stroke-linejoin="round" stroke-miterlimit="10" stroke-width="2"/>
          <path id="Path_1044433" data-name="Path 1044433" d="M198.868,310.789h-.042a1.838,1.838,0,0,1-1.817-1.831v-2.745a2.547,2.547,0,0,0-2.547-2.547H191.03a2.547,2.547,0,0,0-2.547,2.547v2.745a1.838,1.838,0,0,1-1.817,1.831h-.041a3.075,3.075,0,1,0,1.542,5.791,4.613,4.613,0,1,0,9.159,0,3.075,3.075,0,1,0,1.542-5.791Z" transform="translate(-166.401 -266.432)" fill="none" stroke="#000" stroke-linecap="round" stroke-linejoin="round" stroke-miterlimit="10" stroke-width="2"/>
          <line id="Line_1199" data-name="Line 1199" transform="translate(16.834 54.227)" fill="none" stroke="#000" stroke-linecap="round" stroke-linejoin="round" stroke-miterlimit="10" stroke-width="2"/>
          <line id="Line_1200" data-name="Line 1200" transform="translate(34.341 38.584)" fill="none" stroke="#000" stroke-linecap="round" stroke-linejoin="round" stroke-miterlimit="10" stroke-width="2"/>
          <line id="Line_1201" data-name="Line 1201" transform="translate(19.676 57.423)" fill="none" stroke="#000" stroke-linecap="round" stroke-linejoin="round" stroke-miterlimit="10" stroke-width="2"/>
          <line id="Line_1202" data-name="Line 1202" transform="translate(30.273 58.463)" fill="none" stroke="#000" stroke-linecap="round" stroke-linejoin="round" stroke-miterlimit="10" stroke-width="2"/>
          <line id="Line_1203" data-name="Line 1203" transform="translate(34.341 54.76)" fill="none" stroke="#000" stroke-linecap="round" stroke-linejoin="round" stroke-miterlimit="10" stroke-width="2"/>
          <line id="Line_1204" data-name="Line 1204" transform="translate(17.25 40.448)" fill="none" stroke="#000" stroke-linecap="round" stroke-linejoin="round" stroke-miterlimit="10" stroke-width="2"/>
          <path id="Path_1044434" data-name="Path 1044434" d="M178.881,236.079a2.448,2.448,0,0,0-3.694,0" transform="translate(-159.001 -206.607)" fill="none" stroke="#000" stroke-linecap="round" stroke-linejoin="round" stroke-miterlimit="10" stroke-width="2"/>
          <path id="Path_1044435" data-name="Path 1044435" d="M307.437,236.079a2.448,2.448,0,0,1,3.694,0" transform="translate(-274.625 -206.607)" fill="none" stroke="#000" stroke-linecap="round" stroke-linejoin="round" stroke-miterlimit="10" stroke-width="2"/>
        </g>
      </g>
    </g>
  </g>
</svg>
