<svg xmlns="http://www.w3.org/2000/svg" xmlns:xlink="http://www.w3.org/1999/xlink" width="108" height="108" viewBox="0 0 108 108">
  <defs>
    <filter id="Path_982547" x="0" y="0" width="108" height="108" filterUnits="userSpaceOnUse">
      <feOffset dy="3" input="SourceAlpha"/>
      <feGaussianBlur stdDeviation="3" result="blur"/>
      <feFlood flood-opacity="0.161"/>
      <feComposite operator="in" in2="blur"/>
      <feComposite in="SourceGraphic"/>
    </filter>
  </defs>
  <g id="Group_1203975" data-name="Group 1203975" transform="translate(-1138 -1955.468)">
    <g id="Group_1203878" data-name="Group 1203878">
      <g id="Group_1203628" data-name="Group 1203628" transform="translate(933.5 905.468)">
        <g id="Group_1178314" data-name="Group 1178314" transform="translate(213.5 1056)">
          <g id="Group_1173988" data-name="Group 1173988">
            <g id="Group_1172010" data-name="Group 1172010">
              <g id="Group_1171046" data-name="Group 1171046">
                <g id="Group_1148525" data-name="Group 1148525">
                  <g transform="matrix(1, 0, 0, 1, -9, -6)" filter="url(#Path_982547)">
                    <g id="Path_982547-2" data-name="Path 982547" transform="translate(9 6)" fill="#f7fbfc">
                      <path d="M 45 88.5 C 39.12687683105469 88.5 33.43022537231445 87.35007476806641 28.06830024719238 85.08217620849609 C 22.88852500915527 82.89131164550781 18.23629951477051 79.75458526611328 14.2408504486084 75.75914764404297 C 10.24541282653809 71.76370239257812 7.108687400817871 67.11147308349609 4.917825222015381 61.93170166015625 C 2.649924993515015 56.56977462768555 1.5 50.87312316894531 1.5 45 C 1.5 39.12687683105469 2.649924993515015 33.43022537231445 4.917825222015381 28.06830024719238 C 7.108687400817871 22.88852500915527 10.24541282653809 18.23629951477051 14.2408504486084 14.2408504486084 C 18.23629951477051 10.24541282653809 22.88852500915527 7.108687400817871 28.06830024719238 4.917825222015381 C 33.43022537231445 2.649924993515015 39.12687683105469 1.5 45 1.5 C 50.87312316894531 1.5 56.56977462768555 2.649924993515015 61.93170166015625 4.917825222015381 C 67.11147308349609 7.108687400817871 71.76370239257812 10.24541282653809 75.75914764404297 14.2408504486084 C 79.75458526611328 18.23629951477051 82.89131164550781 22.88852500915527 85.08217620849609 28.06830024719238 C 87.35007476806641 33.43022537231445 88.5 39.12687683105469 88.5 45 C 88.5 50.87312316894531 87.35007476806641 56.56977462768555 85.08217620849609 61.93170166015625 C 82.89131164550781 67.11147308349609 79.75458526611328 71.76370239257812 75.75914764404297 75.75914764404297 C 71.76370239257812 79.75458526611328 67.11147308349609 82.89131164550781 61.93170166015625 85.08217620849609 C 56.56977462768555 87.35007476806641 50.87312316894531 88.5 45 88.5 Z" stroke="none"/>
                      <path d="M 45 3 C 39.32871246337891 3 33.82865524291992 4.110054016113281 28.65262985229492 6.299339294433594 C 23.65165710449219 8.414573669433594 19.15968322753906 11.44334411621094 15.301513671875 15.301513671875 C 11.44334411621094 19.15968322753906 8.414573669433594 23.65165710449219 6.299339294433594 28.65262985229492 C 4.110054016113281 33.82865524291992 3 39.32871246337891 3 45 C 3 50.67128753662109 4.110054016113281 56.17134475708008 6.299339294433594 61.34737396240234 C 8.414573669433594 66.34834289550781 11.44334411621094 70.84031677246094 15.301513671875 74.698486328125 C 19.15968322753906 78.55665588378906 23.65165710449219 81.58542633056641 28.65262985229492 83.70066070556641 C 33.82865524291992 85.88994598388672 39.32871246337891 87 45 87 C 50.67128753662109 87 56.17134475708008 85.88994598388672 61.34737396240234 83.70066070556641 C 66.34834289550781 81.58542633056641 70.84031677246094 78.55665588378906 74.698486328125 74.698486328125 C 78.55665588378906 70.84031677246094 81.58542633056641 66.34834289550781 83.70066070556641 61.34737396240234 C 85.88994598388672 56.17134475708008 87 50.67128753662109 87 45 C 87 39.32871246337891 85.88994598388672 33.82865524291992 83.70066070556641 28.65262985229492 C 81.58542633056641 23.65165710449219 78.55665588378906 19.15968322753906 74.698486328125 15.301513671875 C 70.84031677246094 11.44334411621094 66.34834289550781 8.414573669433594 61.34737396240234 6.299339294433594 C 56.17134475708008 4.110054016113281 50.67128753662109 3 45 3 M 45 0 C 69.85281372070312 0 90 20.14718627929688 90 45 C 90 69.85281372070312 69.85281372070312 90 45 90 C 20.14718627929688 90 0 69.85281372070312 0 45 C 0 20.14718627929688 20.14718627929688 0 45 0 Z" stroke="none" fill="#62797e"/>
                    </g>
                  </g>
                </g>
              </g>
            </g>
          </g>
        </g>
      </g>
      <g id="people_2640931" transform="translate(1163.388 1977.13)">
        <g id="Group_1203876" data-name="Group 1203876" transform="translate(1.898 1.898)">
          <g id="Group_1203860" data-name="Group 1203860" transform="translate(0 30.093)">
            <path id="Path_1044960" data-name="Path 1044960" d="M26.92,51.692a2.6,2.6,0,0,0-4.131-.611l-1.033,1.033H9.184V48.522H2v-4.4a7.939,7.939,0,0,1,6.511-7.8l4.463-.808,2.5,5.828,4.49-3.592,4.49,3.592,2.5-5.828.5.09a2.646,2.646,0,0,0-.305,1.248,2.7,2.7,0,0,0,2.694,2.694h1.078A8.975,8.975,0,0,0,33.368,44.1a8.882,8.882,0,0,0,2.721,1.859v.009l-.862,3.457-4.382.629a8.6,8.6,0,0,0-3.511,1.338,4.232,4.232,0,0,0-.4.3Z" transform="translate(-2 -35.51)" fill="#fcd770"/>
          </g>
          <g id="Group_1203861" data-name="Group 1203861" transform="translate(10.974 29.635)">
            <path id="Path_1044961" data-name="Path 1044961" d="M21.207,37.694l-4.49,3.592-2.5-5.828,2.5-.458Z" transform="translate(-14.22 -35)" fill="#ffc729"/>
          </g>
          <g id="Group_1203862" data-name="Group 1203862" transform="translate(17.96 29.635)">
            <path id="Path_1044962" data-name="Path 1044962" d="M28.987,35.458l-2.5,5.828L22,37.694,26.49,35Z" transform="translate(-22 -35)" fill="#ffc729"/>
          </g>
          <g id="Group_1203863" data-name="Group 1203863" transform="translate(24.92 44.003)">
            <path id="Path_1044963" data-name="Path 1044963" d="M30.163,52.967a8.6,8.6,0,0,1,3.511-1.338L38.057,51l.305.449a5.035,5.035,0,0,0,4.185,2.245,5.1,5.1,0,0,0,2.371-.593,5.154,5.154,0,0,0,1.814-1.652L47.037,51l4.382.629a8.5,8.5,0,0,1,7.292,8.405v.844H31.771a3.592,3.592,0,1,0,0-7.184h-1.8l-.18-.35a.2.2,0,0,0-.045-.072l.009-.009a4.232,4.232,0,0,1,.4-.3Z" transform="translate(-29.75 -51)" fill="#75b1f2"/>
          </g>
          <g id="Group_1203864" data-name="Group 1203864" transform="translate(5.388 0)">
            <path id="Path_1044964" data-name="Path 1044964" d="M15.274,10.585l-1.051.629a5.377,5.377,0,0,0-2.631,4.625v.53h-.9a2.7,2.7,0,0,0-1.85.736A17.572,17.572,0,0,1,8,11.734,9.731,9.731,0,0,1,17.734,2H28.25a3.986,3.986,0,0,1,4,4,3.876,3.876,0,0,1-.117.97l-.781,3.116.431.431a4.684,4.684,0,0,1,1.365,3.3,4.6,4.6,0,0,1-.242,1.473L32.3,17.1a2.677,2.677,0,0,0-1.85-.736h-.9v-.207a1.8,1.8,0,0,0-1.572-1.787l-9.851-1.23a3.383,3.383,0,0,1-2.856-2.559Z" transform="translate(-8 -2)" fill="#b27946"/>
          </g>
          <g id="Group_1203865" data-name="Group 1203865" transform="translate(25.144 14.368)">
            <path id="Path_1044965" data-name="Path 1044965" d="M51.552,26.98a2.69,2.69,0,0,1-2.694,2.694h-6.2a5.582,5.582,0,0,1-4.724-2.6l-1.293.772a6.266,6.266,0,0,0-2.99,4.535l-.063-.009h-.9a2.63,2.63,0,0,0-2.012.916l-.009-.009-.359-1.464A10.37,10.37,0,0,1,30,29.3a11.287,11.287,0,0,1,.359-2.82,11.173,11.173,0,0,1,1.23-2.963A11.38,11.38,0,0,1,33.3,21.3a11.725,11.725,0,0,1,1.922-1.536A11.208,11.208,0,0,1,41.3,18h2.55a11.294,11.294,0,0,1,11.3,11.3,10.37,10.37,0,0,1-.314,2.514l-.539,2.182a2.671,2.671,0,0,0-1.841-.727h-.9Z" transform="translate(-30 -18)" fill="#656d78"/>
          </g>
          <g id="Group_1203866" data-name="Group 1203866" transform="translate(0 43.105)">
            <path id="Path_1044966" data-name="Path 1044966" d="M9.184,53.592H21.756l1.033-1.033a2.6,2.6,0,0,1,4.131.611.2.2,0,0,1,.045.072l.18.35h1.8a3.592,3.592,0,1,1,0,7.184H8.286A6.282,6.282,0,0,1,2,54.49V50H9.184Z" transform="translate(-2 -50)" fill="#f0d0b4"/>
          </g>
          <g id="Group_1203867" data-name="Group 1203867" transform="translate(46.284 29.635)">
            <path id="Path_1044967" data-name="Path 1044967" d="M56.692,35.727a2.7,2.7,0,0,1-1.841,4.661H53.54a8.9,8.9,0,0,0,.413-2.694V35h.9A2.671,2.671,0,0,1,56.692,35.727Z" transform="translate(-53.54 -35)" fill="#f0d0b4"/>
          </g>
          <g id="Group_1203868" data-name="Group 1203868" transform="translate(33.227 40.536)">
            <path id="Path_1044968" data-name="Path 1044968" d="M47.118,47.149l.862,3.457-.305.449a5.154,5.154,0,0,1-1.814,1.652,5.1,5.1,0,0,1-2.371.593,5.035,5.035,0,0,1-4.185-2.245L39,50.606l.862-3.457V47.14a8.908,8.908,0,0,0,7.256,0Z" transform="translate(-39 -47.14)" fill="#f0d0b4"/>
          </g>
          <g id="Group_1203869" data-name="Group 1203869" transform="translate(28.737 23.348)">
            <path id="Path_1044969" data-name="Path 1044969" d="M51.96,28v8.98a8.963,8.963,0,0,1-5.352,8.208,8.908,8.908,0,0,1-7.256,0,8.882,8.882,0,0,1-2.721-1.859A8.946,8.946,0,0,1,34,36.98V34.25a5.377,5.377,0,0,1,.063-.853,6.266,6.266,0,0,1,2.99-4.535l1.293-.772a5.582,5.582,0,0,0,4.724,2.6h6.2A2.69,2.69,0,0,0,51.96,28Z" transform="translate(-34 -28)" fill="#f0d0b4"/>
          </g>
          <g id="Group_1203870" data-name="Group 1203870" transform="translate(25.144 28.737)">
            <path id="Path_1044970" data-name="Path 1044970" d="M33.592,34.862v2.73a9.024,9.024,0,0,0,.18,1.8H32.694A2.7,2.7,0,0,1,30,36.694a2.646,2.646,0,0,1,.305-1.248,2.71,2.71,0,0,1,.377-.53A2.63,2.63,0,0,1,32.694,34h.9l.063.009a5.376,5.376,0,0,0-.063.853Z" transform="translate(-30 -34)" fill="#f0d0b4"/>
          </g>
          <g id="Group_1203871" data-name="Group 1203871" transform="translate(13.47 26.096)">
            <path id="Path_1044971" data-name="Path 1044971" d="M25.271,31.069,25.98,34.6l-4.49,2.694L17,34.6l.7-3.52.009-.018a8.736,8.736,0,0,0,3.781.844A9,9,0,0,0,25.271,31.069Z" transform="translate(-17 -31.06)" fill="#f0d0b4"/>
          </g>
          <g id="Group_1203872" data-name="Group 1203872" transform="translate(26.734 14.368)">
            <path id="Path_1044972" data-name="Path 1044972" d="M34.724,18.736a2.665,2.665,0,0,1,.682,1.033A11.725,11.725,0,0,0,33.485,21.3a11.38,11.38,0,0,0-1.715,2.209,9.064,9.064,0,0,0,.207-1.922V18h.9A2.677,2.677,0,0,1,34.724,18.736Z" transform="translate(-31.77 -18)" fill="#f0d0b4"/>
          </g>
          <g id="Group_1203873" data-name="Group 1203873" transform="translate(8.98 8.585)">
            <path id="Path_1044973" data-name="Path 1044973" d="M29.96,17.343v3.592a9.064,9.064,0,0,1-.207,1.922,11.173,11.173,0,0,0-1.23,2.963,9.009,9.009,0,0,1-7.543,4.095,8.736,8.736,0,0,1-3.781-.844,8.854,8.854,0,0,1-2.568-1.787A8.946,8.946,0,0,1,12,20.935V16.813a5.377,5.377,0,0,1,2.631-4.625l1.051-.629a3.383,3.383,0,0,0,2.856,2.559l9.851,1.23a1.8,1.8,0,0,1,1.572,1.787Z" transform="translate(-12 -11.56)" fill="#f0d0b4"/>
          </g>
          <g id="Group_1203874" data-name="Group 1203874" transform="translate(5.388 14.368)">
            <path id="Path_1044974" data-name="Path 1044974" d="M11.772,23.388H10.694a2.694,2.694,0,0,1,0-5.388h.9v3.592A9.023,9.023,0,0,0,11.772,23.388Z" transform="translate(-8 -18)" fill="#f0d0b4"/>
          </g>
          <g id="Group_1203875" data-name="Group 1203875" transform="translate(14.368 19.756)">
            <path id="Path_1044975" data-name="Path 1044975" d="M18,24h7.184A3.592,3.592,0,1,1,18,24Z" transform="translate(-18 -24)" fill="#ff826e"/>
          </g>
        </g>
        <g id="Group_1203877" data-name="Group 1203877" transform="translate(1 1)">
          <path id="Path_1044976" data-name="Path 1044976" d="M17.694,19.8a.9.9,0,0,1,.9.9h1.8a2.694,2.694,0,0,0-5.388,0h1.8A.9.9,0,0,1,17.694,19.8Z" transform="translate(-2.428 -2.734)"/>
          <path id="Path_1044977" data-name="Path 1044977" d="M25.694,19.8a.9.9,0,0,1,.9.9h1.8a2.694,2.694,0,0,0-5.388,0h1.8A.9.9,0,0,1,25.694,19.8Z" transform="translate(-3.244 -2.734)"/>
          <path id="Path_1044978" data-name="Path 1044978" d="M25.98,23.9V23H17v.9a4.49,4.49,0,1,0,8.98,0Zm-7.031.9h5.081a2.695,2.695,0,0,1-5.081,0Z" transform="translate(-2.632 -3.244)"/>
          <path id="Path_1044979" data-name="Path 1044979" d="M39.694,35.8a.9.9,0,0,1,.9.9h1.8a2.694,2.694,0,1,0-5.388,0h1.8A.9.9,0,0,1,39.694,35.8Z" transform="translate(-4.671 -4.365)"/>
          <path id="Path_1044980" data-name="Path 1044980" d="M47.694,34A2.7,2.7,0,0,0,45,36.694h1.8a.9.9,0,1,1,1.8,0h1.8A2.7,2.7,0,0,0,47.694,34Z" transform="translate(-5.487 -4.365)"/>
          <path id="Path_1044981" data-name="Path 1044981" d="M52.493,47.121a9.452,9.452,0,0,0-3.883-1.484L44.829,45.1l-.542-2.171a9.928,9.928,0,0,0,4.52-5.108h.686a3.6,3.6,0,0,0,3.592-3.592,3.559,3.559,0,0,0-.77-2.2l.433-1.732a11.27,11.27,0,0,0,.338-2.739A12.2,12.2,0,0,0,40.894,15.368H38.335a12.117,12.117,0,0,0-5.73,1.437l0-.006.443-1.325a5.572,5.572,0,0,0-1.346-5.7l-.067-.067.656-2.622A4.961,4.961,0,0,0,32.431,5.9a4.9,4.9,0,0,0-4.9-4.9H17.019A10.643,10.643,0,0,0,6.388,11.631a18.386,18.386,0,0,0,.751,5.157,3.554,3.554,0,0,0-.751,2.172A3.6,3.6,0,0,0,9.98,22.552h.383a9.911,9.911,0,0,0,4.7,5.934l-.454,2.272L8.25,31.914A8.829,8.829,0,0,0,1,40.6v8.892a7.193,7.193,0,0,0,7.184,7.184H56.677V54.938a9.376,9.376,0,0,0-4.184-7.817Zm-9.356-1.388-.082.122a4.136,4.136,0,0,1-6.882,0l-.082-.122.524-2.1a9.824,9.824,0,0,0,6,0Zm-3.523-3.424a8.091,8.091,0,0,1-8.082-8.082V31.5a5.415,5.415,0,0,1,2.616-4.62l.6-.358A6.488,6.488,0,0,0,39.7,28.839h6.2a3.555,3.555,0,0,0,1.8-.5v5.887a8.091,8.091,0,0,1-8.082,8.082Zm9.878-6.286h-.172a9.868,9.868,0,0,0,.172-1.8v-1.8a1.8,1.8,0,1,1,0,3.592Zm-8.6-18.858A10.406,10.406,0,0,1,51.289,27.559a9.526,9.526,0,0,1-.283,2.3l-.253,1.013a3.563,3.563,0,0,0-1.26-.24V25.246a3.592,3.592,0,0,0-7.184,0h1.8a1.8,1.8,0,1,1,1.8,1.8H39.7a4.7,4.7,0,0,1-4.6-3.768l-1.761.352A6.413,6.413,0,0,0,33.792,25l-.567.34a7.217,7.217,0,0,0-3.262,4.4h-.227a3.555,3.555,0,0,0-1.465.32l-.048-.194a9.538,9.538,0,0,1-.283-2.3A10.406,10.406,0,0,1,38.335,17.164Zm-9.815.622a12.336,12.336,0,0,0-1.343,1.14V17.164a1.794,1.794,0,0,1,1.343.622ZM26.482,30.3l.186.744-1.558-.284-.453-2.267a9.894,9.894,0,0,0,1.494-1.038c0,.036-.005.07-.005.105a11.225,11.225,0,0,0,.337,2.739ZM24.52,32.476l1.058.192-1.59,3.711-2.56-2.048Zm5.217-.944v2.694c0,.3.019.6.046.9h-.046a1.8,1.8,0,0,1,0-3.592ZM9.98,20.756a1.8,1.8,0,1,1,0-3.592v2.694c0,.3.019.6.046.9ZM10,15.368H9.98a3.56,3.56,0,0,0-1.3.254,16.589,16.589,0,0,1-.492-3.992A8.844,8.844,0,0,1,17.019,2.8H27.535a3.1,3.1,0,0,1,3.007,3.852l-.9,3.608.787.787a3.777,3.777,0,0,1,.913,3.863l-.247.741a3.564,3.564,0,0,0-1.356-.278h-.1a2.691,2.691,0,0,0-2.259-1.986l-9.852-1.232a2.462,2.462,0,0,1-.473-4.778l.4-.132-.567-1.7-.4.132a4.251,4.251,0,0,0-2.911,4.039c0,.1.021.2.028.3l-.55.328A6.309,6.309,0,0,0,10,15.368Zm1.772,4.49V15.736a4.512,4.512,0,0,1,2.192-3.858l.158-.094A4.25,4.25,0,0,0,17.3,13.932l9.852,1.232a.9.9,0,0,1,.787.892v3.8a8.164,8.164,0,0,1-.172,1.647,12.112,12.112,0,0,0-1.173,2.81,8.079,8.079,0,0,1-14.82-4.457Zm8.082,9.878a9.856,9.856,0,0,0,3.111-.519l.374,1.871L19.858,33.18l-3.485-2.091.373-1.862A9.836,9.836,0,0,0,19.858,29.737ZM15.2,32.476l3.093,1.855-2.56,2.048-1.59-3.711ZM4.338,36.208a7.028,7.028,0,0,1,4.233-2.526L12.326,33l2.682,6.259L18.96,36.1V44.1h1.8V36.1l3.952,3.162,1.844-4.3a3.584,3.584,0,0,0,3.184,1.965h.383a9.919,9.919,0,0,0,4.823,6.006L34.4,45.1l-3.781.541a9.445,9.445,0,0,0-3.587,1.309,3.511,3.511,0,0,0-4.982-.019l-.768.769H9.98V41.2l-.992-1.986-1.607.8.8,1.606V44.1H2.8V40.6a7.051,7.051,0,0,1,1.542-4.393ZM8.184,54.881A5.394,5.394,0,0,1,2.8,49.493V45.9H8.184v1.8h-1.8v1.8H22.026L23.32,48.2a1.713,1.713,0,0,1,2.743.445l.424.85h2.352a2.694,2.694,0,1,1,0,5.388Zm24.223,0a4.449,4.449,0,0,0-2.925-7.119,7.55,7.55,0,0,1,1.392-.347l3.819-.545a5.929,5.929,0,0,0,9.843,0l3.819.545a7.6,7.6,0,0,1,6.525,7.466Z" transform="translate(-1 -1)"/>
          <path id="Path_1044982" data-name="Path 1044982" d="M46.189,40.822a2.839,2.839,0,0,1-5.388,0l-.047-.138-1.7.573.047.136a4.635,4.635,0,0,0,8.793,0l.047-.138-1.7-.573Z" transform="translate(-4.881 -5.047)"/>
        </g>
      </g>
    </g>
  </g>
</svg>
