<svg xmlns="http://www.w3.org/2000/svg" xmlns:xlink="http://www.w3.org/1999/xlink" width="108" height="108" viewBox="0 0 108 108">
  <defs>
    <filter id="Path_904820" x="0" y="0" width="108" height="108" filterUnits="userSpaceOnUse">
      <feOffset dy="3" input="SourceAlpha"/>
      <feGaussianBlur stdDeviation="3" result="blur"/>
      <feFlood flood-opacity="0.161"/>
      <feComposite operator="in" in2="blur"/>
      <feComposite in="SourceGraphic"/>
    </filter>
  </defs>
  <g id="Group_1203921" data-name="Group 1203921" transform="translate(-220.238 -421)">
    <g id="Group_1202880" data-name="Group 1202880" transform="translate(23.762 -50.124)">
      <g id="Group_1177315" data-name="Group 1177315" transform="translate(205.477 477.124)">
        <g id="Group_1173585" data-name="Group 1173585" transform="translate(0 0)">
          <g id="Group_1173428" data-name="Group 1173428">
            <g id="Group_1171958" data-name="Group 1171958">
              <g id="Group_1167341" data-name="Group 1167341">
                <g id="Group_1166792" data-name="Group 1166792">
                  <g transform="matrix(1, 0, 0, 1, -9, -6)" filter="url(#Path_904820)">
                    <g id="Path_904820-2" data-name="Path 904820" transform="translate(9 6)" fill="#fff6f9">
                      <path d="M 44.99999618530273 88.49999237060547 C 39.12687301635742 88.49999237060547 33.43022155761719 87.35006713867188 28.06829643249512 85.08216857910156 C 22.88852119445801 82.89130401611328 18.23629570007324 79.75457763671875 14.24084663391113 75.75914001464844 C 10.24540901184082 71.76369476318359 7.108683586120605 67.11146545410156 4.917821407318115 61.93169403076172 C 2.649921178817749 56.56976699829102 1.499996185302734 50.87311553955078 1.499996185302734 44.99999237060547 C 1.499996185302734 39.12686920166016 2.649921178817749 33.43021774291992 4.917821407318115 28.06829261779785 C 7.108683586120605 22.88851737976074 10.24540901184082 18.23630523681641 14.24084663391113 14.24085521697998 C 18.23629570007324 10.24540519714355 22.88852119445801 7.108692169189453 28.06829643249512 4.917829990386963 C 33.43022155761719 2.649929761886597 39.12687301635742 1.500004887580872 44.99999618530273 1.500004887580872 C 50.87311935424805 1.500004887580872 56.56977081298828 2.649929761886597 61.93169784545898 4.917829990386963 C 67.11147308349609 7.108692169189453 71.76369476318359 10.24540519714355 75.75914764404297 14.24085521697998 C 79.75458526611328 18.23630523681641 82.89131164550781 22.88851737976074 85.08216857910156 28.06829261779785 C 87.35007476806641 33.43021774291992 88.5 39.12686920166016 88.5 44.99999237060547 C 88.5 50.87311553955078 87.35007476806641 56.56976699829102 85.08216857910156 61.93169403076172 C 82.89131164550781 67.11146545410156 79.75458526611328 71.76369476318359 75.75914764404297 75.75914001464844 C 71.76369476318359 79.75457763671875 67.11147308349609 82.89130401611328 61.93169784545898 85.08216857910156 C 56.56977081298828 87.35006713867188 50.87311935424805 88.49999237060547 44.99999618530273 88.49999237060547 Z" stroke="none"/>
                      <path d="M 44.99999618530273 2.999992370605469 C 39.32870864868164 2.999992370605469 33.82865142822266 4.11004638671875 28.65262603759766 6.299331665039062 C 23.65165710449219 8.414566040039062 19.15968322753906 11.44333648681641 15.301513671875 15.30150604248047 C 11.44333648681641 19.15967559814453 8.414566040039062 23.65164947509766 6.299339294433594 28.65262222290039 C 4.110054016113281 33.82864761352539 2.999992370605469 39.32870483398438 2.999992370605469 44.99999237060547 C 2.999992370605469 50.67127990722656 4.110054016113281 56.17132186889648 6.299339294433594 61.34736633300781 C 8.414566040039062 66.34833526611328 11.44333648681641 70.84029388427734 15.301513671875 74.69846343994141 C 19.15968322753906 78.55663299560547 23.65165710449219 81.58540344238281 28.65262603759766 83.70063781738281 C 33.82865142822266 85.88992309570312 39.32870864868164 86.99997711181641 44.99999618530273 86.99997711181641 C 50.67128372192383 86.99997711181641 56.17134094238281 85.88992309570312 61.34736633300781 83.70063781738281 C 66.34834289550781 81.58540344238281 70.84030914306641 78.55663299560547 74.69847869873047 74.69846343994141 C 78.55665588378906 70.84029388427734 81.58542633056641 66.34833526611328 83.70065307617188 61.34736633300781 C 85.88993835449219 56.17132186889648 87 50.67127990722656 87 44.99999237060547 C 87 39.32870483398438 85.88993835449219 33.82864761352539 83.70065307617188 28.65262222290039 C 81.58542633056641 23.65164947509766 78.55665588378906 19.15967559814453 74.69847869873047 15.30150604248047 C 70.84030914306641 11.44333648681641 66.34834289550781 8.414566040039062 61.34736633300781 6.299331665039062 C 56.17134094238281 4.11004638671875 50.67128372192383 2.999992370605469 44.99999618530273 2.999992370605469 M 44.99999618530273 -7.62939453125e-06 C 69.85281372070312 -7.62939453125e-06 90 20.14717864990234 90 44.99999237060547 C 90 69.85279083251953 69.85281372070312 89.99997711181641 44.99999618530273 89.99997711181641 C 20.14717864990234 89.99997711181641 -7.62939453125e-06 69.85279083251953 -7.62939453125e-06 44.99999237060547 C -7.62939453125e-06 20.14717864990234 20.14717864990234 -7.62939453125e-06 44.99999618530273 -7.62939453125e-06 Z" stroke="none" fill="#8b5e6f"/>
                    </g>
                  </g>
                </g>
              </g>
            </g>
          </g>
        </g>
      </g>
      <g id="internet_7452852" transform="translate(222.149 493.781)">
        <path id="Path_1044341" data-name="Path 1044341" d="M62.756,35.452A27.38,27.38,0,1,1,35.376,8.071,27.38,27.38,0,0,1,62.756,35.452Z" transform="translate(-7.051 -7.104)" fill="#aefcfe"/>
        <path id="Path_1044342" data-name="Path 1044342" d="M15.08,39.4A27.346,27.346,0,0,0,26.815,61.468a27.385,27.385,0,1,1,24.207-48.49A27.4,27.4,0,0,0,15.08,39.4Z" transform="translate(-7.051 -7.104)" fill="#d9feff"/>
        <path id="Path_1044343" data-name="Path 1044343" d="M171.031,173.559c-7.922-4.974-15.569,7.594-1,14.6a2.312,2.312,0,0,0,2,0C186.6,181.147,178.948,168.589,171.031,173.559Z" transform="translate(-142.706 -152.06)" fill="#ff6d7a"/>
        <g id="Group_1203667" data-name="Group 1203667" transform="translate(13.191 13.214)">
          <path id="Path_1044344" data-name="Path 1044344" d="M325.751,322.324a2.832,2.832,0,1,1-2.72-2.043A2.834,2.834,0,0,1,325.751,322.324Z" transform="translate(-295.598 -295.681)" fill="#d9feff"/>
          <path id="Path_1044345" data-name="Path 1044345" d="M117.455,323.1a2.832,2.832,0,1,1-3.439-2.766A2.833,2.833,0,0,1,117.455,323.1Z" transform="translate(-111.788 -295.669)" fill="#d9feff"/>
          <path id="Path_1044346" data-name="Path 1044346" d="M325.875,114.677a2.832,2.832,0,1,1-3.622-2.72A2.832,2.832,0,0,1,325.875,114.677Z" transform="translate(-295.61 -111.842)" fill="#d9feff"/>
          <path id="Path_1044347" data-name="Path 1044347" d="M117.372,114.087a2.832,2.832,0,1,1-2.766-2.226A2.834,2.834,0,0,1,117.372,114.087Z" transform="translate(-111.771 -111.859)" fill="#d9feff"/>
        </g>
        <g id="Group_1203668" data-name="Group 1203668" transform="translate(0 0.017)">
          <path id="Path_1044348" data-name="Path 1044348" d="M48.353,8.319A28.325,28.325,0,0,0,0,28.348a9.865,9.865,0,0,0,3.383,7.061,24.291,24.291,0,0,0,8.87,5.086,3.778,3.778,0,0,0,3.925,3.925c1.231,3.488,3.091,7.144,5.85,9.6A26.459,26.459,0,0,1,4.1,38.952a.944.944,0,0,0-1.729.758A28.328,28.328,0,1,0,48.353,8.319Zm-26.176,25.6a21.3,21.3,0,0,0,4.736,3.036,3.238,3.238,0,0,0,2.823,0c5.286-2.544,7.419-5.586,8.253-7.9h3.151a51.458,51.458,0,0,1-.692,7.819,3.781,3.781,0,0,0-3.6,3.6,52.457,52.457,0,0,1-17.054,0,3.781,3.781,0,0,0-3.6-3.6,51.238,51.238,0,0,1-.682-7.175h8.232a.944.944,0,0,0,.795-.435l1.441-2.25,2.917,4.447a.945.945,0,0,0,1.483.123l2.339-2.529h3.216c-1.109,2.357-3.553,4.525-7.027,6.2a1.377,1.377,0,0,1-1.185,0,19.425,19.425,0,0,1-4.317-2.76.944.944,0,0,0-1.238,1.426Zm18.447,4.841a1.888,1.888,0,1,1-1.888,1.888A1.891,1.891,0,0,1,40.624,38.759Zm0-20.821a1.888,1.888,0,1,1,1.888-1.888A1.891,1.891,0,0,1,40.624,17.937ZM42.3,37.263a53.338,53.338,0,0,0,.731-8.207h6.493a.944.944,0,0,0,0-1.888h-6.5a53.175,53.175,0,0,0-.724-7.735,3.8,3.8,0,0,0,1.551-1.421c14.529,5.18,14.536,15.491,0,20.673A3.8,3.8,0,0,0,42.3,37.263ZM54,22.052c-2.462-2.761-6.121-4.622-9.6-5.851a3.778,3.778,0,0,0-3.925-3.925c-1.231-3.488-3.092-7.145-5.851-9.6A26.529,26.529,0,0,1,54,22.052ZM28.324,1.915c4.067,0,7.9,4.062,10.337,10.908a3.776,3.776,0,0,0,1.786,7,51.306,51.306,0,0,1,.687,7.347H32.315a.945.945,0,0,0-.693.3l-1.8,1.946-3.053-4.655a.944.944,0,0,0-1.585.009l-1.949,3.041H20.25c-1.2-4.608,3.033-8.362,7.572-5.513a.944.944,0,0,0,1,0c3.069-1.926,6.066-.846,7.265,1.623a.944.944,0,0,0,1.7-.825c-1.63-3.358-5.615-4.785-9.466-2.691-5.657-3.073-11.192,1.518-10.011,7.406H15.508a51.5,51.5,0,0,1,.694-7.99,3.781,3.781,0,0,0,3.6-3.6,52.661,52.661,0,0,1,13.958-.418.944.944,0,1,0,.194-1.878,54.556,54.556,0,0,0-14.54.448,3.8,3.8,0,0,0-1.422-1.551,25.028,25.028,0,0,1,3.517-6.8A.944.944,0,0,0,20,4.875a26.987,26.987,0,0,0-3.825,7.4A3.778,3.778,0,0,0,12.253,16.2c-3.479,1.227-7.141,3.086-9.6,5.847A26.477,26.477,0,0,1,28.324,1.915ZM14.137,16.049a1.888,1.888,0,1,1,1.888,1.888,1.891,1.891,0,0,1-1.888-1.888ZM12.8,38.684C6.718,36.516,2.838,33.253,2.046,29.7h8.123a.944.944,0,1,0,0-1.888H1.918c.338-3.864,4.335-7.466,10.882-9.8a3.8,3.8,0,0,0,1.551,1.421,54.4,54.4,0,0,0,0,17.831A3.8,3.8,0,0,0,12.8,38.684Zm3.225,3.851a1.888,1.888,0,1,1,1.888-1.888A1.891,1.891,0,0,1,16.026,42.535Zm12.3,12.246c-4.067,0-7.9-4.062-10.337-10.908a3.8,3.8,0,0,0,1.421-1.551,54.341,54.341,0,0,0,17.831,0,3.8,3.8,0,0,0,1.422,1.551,27.117,27.117,0,0,1-2.72,5.668.944.944,0,0,0,1.584,1.029,29.105,29.105,0,0,0,2.945-6.15A3.778,3.778,0,0,0,44.4,40.5c3.478-1.227,7.139-3.085,9.6-5.846A26.475,26.475,0,0,1,28.325,54.781Z" transform="translate(0 -0.017)"/>
        </g>
      </g>
    </g>
  </g>
</svg>
