<svg xmlns="http://www.w3.org/2000/svg" xmlns:xlink="http://www.w3.org/1999/xlink" width="113" height="113" viewBox="0 0 113 113">
  <defs>
    <filter id="Path_982547" x="0" y="0" width="113" height="113" filterUnits="userSpaceOnUse">
      <feOffset dy="3" input="SourceAlpha"/>
      <feGaussianBlur stdDeviation="3" result="blur"/>
      <feFlood flood-opacity="0.161"/>
      <feComposite operator="in" in2="blur"/>
      <feComposite in="SourceGraphic"/>
    </filter>
  </defs>
  <g id="Group_1203945" data-name="Group 1203945" transform="translate(-1249.51 -4045.893)">
    <g id="Group_1203777" data-name="Group 1203777">
      <g id="Group_1203575" data-name="Group 1203575" transform="translate(1258.51 4051.893)">
        <g id="Group_1177337" data-name="Group 1177337" transform="translate(0 0)">
          <g id="Group_1176922" data-name="Group 1176922">
            <g id="Group_1172322" data-name="Group 1172322">
              <g id="Group_1164700" data-name="Group 1164700">
                <g id="Group_1160931" data-name="Group 1160931">
                  <g id="Group_1160749" data-name="Group 1160749">
                    <g id="Group_1158891" data-name="Group 1158891">
                      <g id="Group_1157406" data-name="Group 1157406">
                        <g id="Group_1155793" data-name="Group 1155793">
                          <g id="Group_1154704" data-name="Group 1154704">
                            <g id="Group_1150790" data-name="Group 1150790">
                              <g id="Group_1154214" data-name="Group 1154214">
                                <g id="Group_1152583" data-name="Group 1152583">
                                  <g id="Group_1146973" data-name="Group 1146973">
                                    <g id="Group_1146954" data-name="Group 1146954">
                                      <g transform="matrix(1, 0, 0, 1, -9, -6)" filter="url(#Path_982547)">
                                        <g id="Path_982547-2" data-name="Path 982547" transform="translate(9 6)" fill="#fff6f9">
                                          <path d="M 47.5000114440918 93.49987030029297 C 41.28938293457031 93.49987030029297 35.26534652709961 92.28384399414062 29.5951976776123 89.88558959960938 C 24.11773109436035 87.56881713867188 19.19814491271973 84.25183868408203 14.97310447692871 80.02680206298828 C 10.74805164337158 75.80176544189453 7.43107795715332 70.88218688964844 5.114304542541504 65.40472412109375 C 2.716038227081299 59.73458862304688 1.500011444091797 53.71054840087891 1.500011444091797 47.49993515014648 C 1.500011444091797 41.28932189941406 2.716038227081299 35.26528167724609 5.114304542541504 29.59514808654785 C 7.43107795715332 24.1176815032959 10.74805164337158 19.1981086730957 14.97310447692871 14.97306823730469 C 19.19814491271973 10.74802875518799 24.11773109436035 7.431055068969727 29.5951976776123 5.11428165435791 C 35.26534652709961 2.716028451919556 41.28938293457031 1.500001788139343 47.5000114440918 1.500001788139343 C 53.71063995361328 1.500001788139343 59.73467636108398 2.716028451919556 65.40482330322266 5.11428165435791 C 70.88229370117188 7.431055068969727 75.8018798828125 10.74802875518799 80.02691650390625 14.97306823730469 C 84.25196838378906 19.1981086730957 87.56894683837891 24.1176815032959 89.88571929931641 29.59514808654785 C 92.28398132324219 35.26528167724609 93.50001525878906 41.28932189941406 93.50001525878906 47.49993515014648 C 93.50001525878906 53.71054840087891 92.28398132324219 59.73458862304688 89.88571929931641 65.40472412109375 C 87.56894683837891 70.88218688964844 84.25196838378906 75.80176544189453 80.02691650390625 80.02680206298828 C 75.8018798828125 84.25183868408203 70.88229370117188 87.56881713867188 65.40482330322266 89.88558959960938 C 59.73467636108398 92.28384399414062 53.71063995361328 93.49987030029297 47.5000114440918 93.49987030029297 Z" stroke="none"/>
                                          <path d="M 47.5000114440918 3 C 41.49122619628906 3 35.66378021240234 4.1761474609375 30.17951965332031 6.495796203613281 C 24.880859375 8.7369384765625 20.12153625488281 11.94596862792969 16.03376770019531 16.03373718261719 C 11.94598388671875 20.12149047851562 8.736968994140625 24.88081359863281 6.495811462402344 30.17947387695312 C 4.176162719726562 35.66371917724609 3.000007629394531 41.49116516113281 3.000007629394531 47.49993515014648 C 3.000007629394531 53.50870513916016 4.176162719726562 59.33615112304688 6.495811462402344 64.82039642333984 C 8.736968994140625 70.11905670166016 11.94598388671875 74.87837982177734 16.03376770019531 78.96613311767578 C 20.12153625488281 83.05390167236328 24.880859375 86.26293182373047 30.17951965332031 88.50407409667969 C 35.66378021240234 90.82372283935547 41.49122619628906 91.99987030029297 47.5000114440918 91.99987030029297 C 53.50879669189453 91.99987030029297 59.33624267578125 90.82372283935547 64.82050323486328 88.50407409667969 C 70.11916351318359 86.26293182373047 74.87848663330078 83.05390167236328 78.96625518798828 78.96613311767578 C 83.05403900146484 74.87837982177734 86.2630615234375 70.11905670166016 88.50421142578125 64.82039642333984 C 90.82386016845703 59.33615112304688 92.00001525878906 53.50870513916016 92.00001525878906 47.49993515014648 C 92.00001525878906 41.49116516113281 90.82386016845703 35.66371917724609 88.50421142578125 30.17947387695312 C 86.2630615234375 24.88081359863281 83.05403900146484 20.12149047851562 78.96625518798828 16.03373718261719 C 74.87848663330078 11.94596862792969 70.11916351318359 8.7369384765625 64.82050323486328 6.495796203613281 C 59.33624267578125 4.1761474609375 53.50879669189453 3 47.5000114440918 3 M 47.5000114440918 0 C 73.73353576660156 0 95.00001525878906 21.26644134521484 95.00001525878906 47.49993515014648 C 95.00001525878906 73.73342895507812 73.73353576660156 94.99987030029297 47.5000114440918 94.99987030029297 C 21.26648712158203 94.99987030029297 7.62939453125e-06 73.73342895507812 7.62939453125e-06 47.49993515014648 C 7.62939453125e-06 21.26644134521484 21.26648712158203 0 47.5000114440918 0 Z" stroke="none" fill="#8b5e6f"/>
                                        </g>
                                      </g>
                                    </g>
                                  </g>
                                </g>
                              </g>
                            </g>
                          </g>
                        </g>
                      </g>
                    </g>
                  </g>
                </g>
              </g>
            </g>
          </g>
        </g>
      </g>
      <g id="abuso" transform="translate(1269.292 4055.771)">
        <g id="Group_1203773" data-name="Group 1203773" transform="translate(1.076 13.222)">
          <path id="Path_1044696" data-name="Path 1044696" d="M169.624,389.242H143.494a3.586,3.586,0,1,0,0,7.171h26.131a3.586,3.586,0,1,0,0-7.171Z" transform="translate(-120.917 -336.231)" fill="#ffbd86"/>
          <path id="Path_1044697" data-name="Path 1044697" d="M174.821,313.958V327.9a11.643,11.643,0,1,0,23.287,0V313.958H174.821Z" transform="translate(-150.822 -271.745)" fill="#fed2a4"/>
          <path id="Path_1044698" data-name="Path 1044698" d="M162.94,240.555a15.6,15.6,0,0,0-15.721,15.6v.8a.725.725,0,0,0,.725.725H153.6a11.387,11.387,0,0,0,9.225-4.708,11.39,11.39,0,0,0,9.225,4.708H177.7a.725.725,0,0,0,.725-.725v-.6A15.729,15.729,0,0,0,162.94,240.555Z" transform="translate(-127.179 -208.87)" fill="#918291"/>
          <path id="Path_1044699" data-name="Path 1044699" d="M247.509,240.555q-.79-.006-1.56.066a15.755,15.755,0,0,1,14.175,15.732v.6a.725.725,0,0,1-.725.725h2.869a.725.725,0,0,0,.725-.725v-.6A15.729,15.729,0,0,0,247.509,240.555Z" transform="translate(-211.748 -208.87)" fill="#7a6d79"/>
          <path id="Path_1044700" data-name="Path 1044700" d="M205.05,48.676v2.363a1.51,1.51,0,0,1-.813,1.339L201.7,53.7a1.51,1.51,0,0,0-.813,1.339V60.6a1.927,1.927,0,0,0,1.927,1.927h2.236v4.491a2.207,2.207,0,0,0,4.413,0V63.994a.384.384,0,0,1,.384-.384h3.991a2.858,2.858,0,0,0,2.858-2.858V48.676Z" transform="translate(-173.149 -44.512)" fill="#fed2a4"/>
          <path id="Path_1044701" data-name="Path 1044701" d="M274.047,48.676V60.752a2.858,2.858,0,0,1-2.858,2.858h2.869a2.858,2.858,0,0,0,2.858-2.858V48.676Z" transform="translate(-233.368 -44.512)" fill="#ffbd86"/>
          <path id="Path_1044702" data-name="Path 1044702" d="M241.561,23.811H229.915V19.9a.256.256,0,0,1,.256-.256h11.134a.256.256,0,0,1,.256.256v3.908Z" transform="translate(-198.014 -19.647)" fill="#62dbfb"/>
          <path id="Path_1044703" data-name="Path 1044703" d="M292.2,19.648h-2.869a.256.256,0,0,1,.256.256v3.908h2.869V19.9A.256.256,0,0,0,292.2,19.648Z" transform="translate(-248.906 -19.648)" fill="#01d0fb"/>
          <path id="Path_1044704" data-name="Path 1044704" d="M430.406,99.565,420.32,93.742l1.954-3.384a.256.256,0,0,1,.35-.094l9.642,5.567a.256.256,0,0,1,.094.35Z" transform="translate(-361.109 -80.107)" fill="#5de1c4"/>
          <path id="Path_1044705" data-name="Path 1044705" d="M9.488,99.565l10.086-5.823-1.954-3.384a.256.256,0,0,0-.35-.094L7.628,95.831a.256.256,0,0,0-.094.35Z" transform="translate(-7.5 -80.106)" fill="#fd8087"/>
          <path id="Path_1044706" data-name="Path 1044706" d="M361.637,114.716l-1.181,2.046a1.51,1.51,0,0,1-1.374.754l-2.858-.125a1.51,1.51,0,0,0-1.374.754l-2.781,4.816a1.927,1.927,0,0,0,.705,2.632l1.937,1.118-2.245,3.889a2.207,2.207,0,1,0,3.822,2.207l1.512-2.618a.384.384,0,0,1,.525-.141l3.457,2a2.858,2.858,0,0,0,3.9-1.046l6.038-10.459Z" transform="translate(-302.427 -101.08)" fill="#fed2a4"/>
          <path id="Path_1044707" data-name="Path 1044707" d="M478.751,122.047l-2.1-1.212a.259.259,0,0,1-.033.1l-2.03,3.517,2.3,1.329,1.954-3.384a.256.256,0,0,0-.094-.35Z" transform="translate(-407.595 -106.322)" fill="#0ed2b3"/>
          <path id="Path_1044708" data-name="Path 1044708" d="M419.472,146.048l-6.083,10.535a2.9,2.9,0,0,1-3.147,1.381l1.589.918a2.858,2.858,0,0,0,3.9-1.046l6.038-10.459Z" transform="translate(-352.478 -127.918)" fill="#ffbd86"/>
          <path id="Path_1044709" data-name="Path 1044709" d="M31.448,114.716l1.181,2.046a1.51,1.51,0,0,0,1.374.754l2.858-.125a1.51,1.51,0,0,1,1.374.754l2.781,4.816a1.927,1.927,0,0,1-.705,2.632l-1.937,1.118,2.245,3.889a2.207,2.207,0,0,1-3.822,2.207l-1.512-2.618a.384.384,0,0,0-.525-.141l-3.457,2A2.858,2.858,0,0,1,27.4,131l-6.038-10.459Z" transform="translate(-19.374 -101.08)" fill="#fed2a4"/>
          <path id="Path_1044710" data-name="Path 1044710" d="M64.324,91.324,66.276,94.7l1.668-.963L65.99,90.357a.256.256,0,0,0-.35-.094l-1.671.965A.26.26,0,0,1,64.324,91.324Z" transform="translate(-55.87 -80.106)" fill="#fe646f"/>
          <path id="Path_1044711" data-name="Path 1044711" d="M80.083,115.734l1.2,2.077a1.533,1.533,0,0,0,1.395.765l2.9-.127a1.533,1.533,0,0,1,1.395.765L89.8,124.1a1.954,1.954,0,0,1,.007,1.94l.779-.45a1.927,1.927,0,0,0,.705-2.633l-2.781-4.816a1.51,1.51,0,0,0-1.374-.754l-2.858.125a1.51,1.51,0,0,1-1.374-.754l-1.181-2.046-1.668.963Z" transform="translate(-69.645 -101.08)" fill="#ffbd86"/>
        </g>
        <g id="Group_1203776" data-name="Group 1203776" transform="translate(0 12.146)">
          <path id="Path_1044712" data-name="Path 1044712" d="M196.388,32.312h1.161v3.415a3.282,3.282,0,0,0,6.565,0V33.4h3.3a3.938,3.938,0,0,0,3.933-3.933V25.855a1.076,1.076,0,1,0-2.151,0v3.607a1.784,1.784,0,0,1-1.782,1.782h-3.991a1.461,1.461,0,0,0-1.46,1.46v3.023a1.131,1.131,0,1,1-2.262,0V28.806a1.076,1.076,0,1,0-2.151,0V30.16h-1.161a.853.853,0,0,1-.852-.851V23.748a.433.433,0,0,1,.234-.385l2.538-1.321a2.578,2.578,0,0,0,1.392-2.294V18.461H209.2v2.374a1.076,1.076,0,1,0,2.151,0V13.478a1.333,1.333,0,0,0-1.332-1.332H198.88a1.333,1.333,0,0,0-1.332,1.332v6.27a.433.433,0,0,1-.234.385l-2.538,1.321a2.578,2.578,0,0,0-1.392,2.294v5.561A3.007,3.007,0,0,0,196.388,32.312ZM209.2,14.3V16.31H199.7V14.3Z" transform="translate(-165.648 -12.146)"/>
          <path id="Path_1044713" data-name="Path 1044713" d="M367.7,88.478l-9.643-5.567a1.334,1.334,0,0,0-1.819.488l-3.135,5.43a.434.434,0,0,1-.4.217l-2.858-.125a2.581,2.581,0,0,0-2.352,1.29l-2.781,4.816a3.006,3.006,0,0,0,1.1,4.1l1.005.58-1.708,2.958a3.282,3.282,0,0,0,5.685,3.282l1.166-2.019,2.857,1.65a3.938,3.938,0,0,0,5.373-1.44L368.191,90.3A1.333,1.333,0,0,0,367.7,88.478ZM357.7,85.183l8.223,4.747-1.006,1.743-8.223-4.747Zm.641,17.88a1.782,1.782,0,0,1-2.434.652l-3.457-2a1.461,1.461,0,0,0-1.994.534l-1.512,2.618a1.131,1.131,0,1,1-1.959-1.131l3.46-5.994a1.076,1.076,0,1,0-1.863-1.076l-.677,1.173-1.005-.58a.852.852,0,0,1-.312-1.163l2.78-4.816a.433.433,0,0,1,.376-.217h.019l2.858.125a2.58,2.58,0,0,0,2.352-1.29l.644-1.115,8.223,4.747Z" transform="translate(-294.933 -72.608)"/>
          <path id="Path_1044714" data-name="Path 1044714" d="M22.05,107.149a3.286,3.286,0,0,0,1.2-4.484l-1.708-2.958,1.005-.58a3.006,3.006,0,0,0,1.1-4.1L20.868,90.21a2.577,2.577,0,0,0-2.352-1.29l-2.858.125a.433.433,0,0,1-.4-.217L12.127,83.4a1.333,1.333,0,0,0-1.819-.487L.666,88.477A1.333,1.333,0,0,0,.178,90.3L8.17,104.139a3.938,3.938,0,0,0,5.373,1.44l2.857-1.65,1.166,2.019a3.281,3.281,0,0,0,4.484,1.2ZM10.674,85.183l1.006,1.743L3.457,91.673,2.451,89.93Zm5.978,16.342a1.45,1.45,0,0,0-.727.2l-3.457,2a1.782,1.782,0,0,1-2.434-.652l-5.5-9.527,8.223-4.747L13.4,89.9a2.58,2.58,0,0,0,2.352,1.29l2.858-.125a.432.432,0,0,1,.4.217L21.785,96.1a.852.852,0,0,1-.312,1.163l-1.005.58-.677-1.173a1.076,1.076,0,0,0-1.863,1.076l3.46,5.994a1.131,1.131,0,1,1-1.959,1.131l-1.512-2.618A1.461,1.461,0,0,0,16.652,101.525Z" transform="translate(0 -72.608)"/>
          <g id="Group_1203775" data-name="Group 1203775" transform="translate(0 0)">
            <path id="Path_1044715" data-name="Path 1044715" d="M196.388,32.312h1.161v3.415a3.282,3.282,0,0,0,6.565,0V33.4h3.3a3.938,3.938,0,0,0,3.933-3.933V25.855a1.076,1.076,0,1,0-2.151,0v3.607a1.784,1.784,0,0,1-1.782,1.782h-3.991a1.461,1.461,0,0,0-1.46,1.46v3.023a1.131,1.131,0,1,1-2.262,0V28.806a1.076,1.076,0,1,0-2.151,0V30.16h-1.161a.853.853,0,0,1-.852-.851V23.748a.433.433,0,0,1,.234-.385l2.538-1.321a2.578,2.578,0,0,0,1.392-2.294V18.461H209.2v2.374a1.076,1.076,0,1,0,2.151,0V13.478a1.333,1.333,0,0,0-1.332-1.332H198.88a1.333,1.333,0,0,0-1.332,1.332v6.27a.433.433,0,0,1-.234.385l-2.538,1.321a2.578,2.578,0,0,0-1.392,2.294v5.561A3.007,3.007,0,0,0,196.388,32.312ZM209.2,14.3V16.31H199.7V14.3Z" transform="translate(-165.648 -12.146)"/>
            <path id="Path_1044716" data-name="Path 1044716" d="M367.7,88.478l-9.643-5.567a1.334,1.334,0,0,0-1.819.488l-3.135,5.43a.434.434,0,0,1-.4.217l-2.858-.125a2.581,2.581,0,0,0-2.352,1.29l-2.781,4.816a3.006,3.006,0,0,0,1.1,4.1l1.005.58-1.708,2.958a3.282,3.282,0,0,0,5.685,3.282l1.166-2.019,2.857,1.65a3.938,3.938,0,0,0,5.373-1.44L368.191,90.3A1.333,1.333,0,0,0,367.7,88.478ZM357.7,85.183l8.223,4.747-1.006,1.743-8.223-4.747Zm.641,17.88a1.782,1.782,0,0,1-2.434.652l-3.457-2a1.461,1.461,0,0,0-1.994.534l-1.512,2.618a1.131,1.131,0,1,1-1.959-1.131l3.46-5.994a1.076,1.076,0,1,0-1.863-1.076l-.677,1.173-1.005-.58a.852.852,0,0,1-.312-1.163l2.78-4.816a.433.433,0,0,1,.376-.217h.019l2.858.125a2.58,2.58,0,0,0,2.352-1.29l.644-1.115,8.223,4.747Z" transform="translate(-294.933 -72.608)"/>
            <path id="Path_1044717" data-name="Path 1044717" d="M22.05,107.149a3.286,3.286,0,0,0,1.2-4.484l-1.708-2.958,1.005-.58a3.006,3.006,0,0,0,1.1-4.1L20.868,90.21a2.577,2.577,0,0,0-2.352-1.29l-2.858.125a.433.433,0,0,1-.4-.217L12.127,83.4a1.333,1.333,0,0,0-1.819-.487L.666,88.477A1.333,1.333,0,0,0,.178,90.3L8.17,104.139a3.938,3.938,0,0,0,5.373,1.44l2.857-1.65,1.166,2.019a3.281,3.281,0,0,0,4.484,1.2ZM10.674,85.183l1.006,1.743L3.457,91.673,2.451,89.93Zm5.978,16.342a1.45,1.45,0,0,0-.727.2l-3.457,2a1.782,1.782,0,0,1-2.434-.652l-5.5-9.527,8.223-4.747L13.4,89.9a2.58,2.58,0,0,0,2.352,1.29l2.858-.125a.432.432,0,0,1,.4.217L21.785,96.1a.852.852,0,0,1-.312,1.163l-1.005.58-.677-1.173a1.076,1.076,0,0,0-1.863,1.076l3.46,5.994a1.131,1.131,0,1,1-1.959,1.131l-1.512-2.618A1.461,1.461,0,0,0,16.652,101.525Z" transform="translate(0 -72.608)"/>
            <g id="Group_1203774" data-name="Group 1203774" transform="translate(18.991 31.685)">
              <path id="Path_1044718" data-name="Path 1044718" d="M163.2,254.381h-.346v-2.052h2.158a1.8,1.8,0,0,0,1.8-1.8v-.6a16.821,16.821,0,0,0-16.552-16.874h-.127a16.564,16.564,0,0,0-11.748,4.841,16.819,16.819,0,0,0-4.929,12.632,1.8,1.8,0,0,0,1.8,1.8h2.158v2.052h-.346a4.661,4.661,0,1,0,0,9.323h1.409a12.733,12.733,0,0,0,1.476,2.527,1.076,1.076,0,1,0,1.721-1.291,10.514,10.514,0,0,1-2.11-6.338v-6.273a13.112,13.112,0,0,0,10.568-4.081,13.2,13.2,0,0,0,10.567,4.081V258.6A10.574,10.574,0,0,1,145.1,267.9a1.076,1.076,0,1,0-1.025,1.891A12.732,12.732,0,0,0,161.79,263.7h1.41a4.661,4.661,0,0,0,0-9.323Zm-26.13,7.172a2.51,2.51,0,0,1,0-5.02h.346v2.07a12.8,12.8,0,0,0,.343,2.95Zm13.936-15.638a1.076,1.076,0,0,0-1.743,0,10.336,10.336,0,0,1-8.353,4.263h-5.3a14.531,14.531,0,1,1,29.053-.249v.249h-5.3A10.341,10.341,0,0,1,151.006,245.914ZM163.2,261.552h-.691a12.81,12.81,0,0,0,.345-2.95v-2.07h.346a2.51,2.51,0,0,1,0,5.02Z" transform="translate(-132.408 -233.055)"/>
              <path id="Path_1044719" data-name="Path 1044719" d="M228.648,433.321a1.076,1.076,0,0,0,1.916.979,2.1,2.1,0,0,1,3.813,0,1.076,1.076,0,0,0,1.916-.979,4.246,4.246,0,0,0-7.644,0Z" transform="translate(-214.743 -402.544)"/>
              <path id="Path_1044720" data-name="Path 1044720" d="M206.026,390.2a1.076,1.076,0,0,0-1.712-1.3,1.25,1.25,0,0,1-1.542,0,1.076,1.076,0,0,0-1.712,1.3,3.323,3.323,0,0,0,4.966,0Z" transform="translate(-191.025 -366.184)"/>
              <path id="Path_1044721" data-name="Path 1044721" d="M276.173,391.317a3.14,3.14,0,0,0,2.483-1.114,1.076,1.076,0,0,0-1.712-1.3,1.249,1.249,0,0,1-1.542,0,1.076,1.076,0,0,0-1.712,1.3A3.14,3.14,0,0,0,276.173,391.317Z" transform="translate(-253.238 -366.183)"/>
            </g>
          </g>
        </g>
      </g>
    </g>
  </g>
</svg>
