<svg xmlns="http://www.w3.org/2000/svg" xmlns:xlink="http://www.w3.org/1999/xlink" width="113" height="113" viewBox="0 0 113 113">
  <defs>
    <filter id="Path_982547" x="0" y="0" width="113" height="113" filterUnits="userSpaceOnUse">
      <feOffset dy="3" input="SourceAlpha"/>
      <feGaussianBlur stdDeviation="3" result="blur"/>
      <feFlood flood-opacity="0.161"/>
      <feComposite operator="in" in2="blur"/>
      <feComposite in="SourceGraphic"/>
    </filter>
  </defs>
  <g id="Group_1203932" data-name="Group 1203932" transform="translate(-901.56 -1940.875)">
    <g id="Group_1203736" data-name="Group 1203736">
      <g id="Group_1203499" data-name="Group 1203499" transform="translate(0 -197.72)">
        <g id="Group_1202591" data-name="Group 1202591" transform="translate(910.561 2144.596)">
          <g id="Group_1172010" data-name="Group 1172010" transform="translate(0)">
            <g id="Group_1171046" data-name="Group 1171046">
              <g id="Group_1148525" data-name="Group 1148525">
                <g transform="matrix(1, 0, 0, 1, -9, -6)" filter="url(#Path_982547)">
                  <g id="Path_982547-2" data-name="Path 982547" transform="translate(9 6)" fill="#fff6f9">
                    <path d="M 47.5 93.5 C 41.28937149047852 93.5 35.26533508300781 92.28397369384766 29.59518623352051 89.88570404052734 C 24.11771965026855 87.56893157958984 19.19813346862793 84.25196075439453 14.97309303283691 80.02691650390625 C 10.74804019927979 75.80186462402344 7.431066513061523 70.88229370117188 5.114293098449707 65.40481567382812 C 2.716026782989502 59.73468017578125 1.5 53.71062850952148 1.5 47.5 C 1.5 41.28937149047852 2.716026782989502 35.26533508300781 5.114293098449707 29.59518623352051 C 7.431066513061523 24.11771965026855 10.74804019927979 19.19813346862793 14.97309303283691 14.97309303283691 C 19.19813346862793 10.74804019927979 24.11771965026855 7.431066513061523 29.59518623352051 5.114293098449707 C 35.26533508300781 2.716026782989502 41.28937149047852 1.5 47.5 1.5 C 53.71062850952148 1.5 59.73468017578125 2.716026782989502 65.40481567382812 5.114293098449707 C 70.88229370117188 7.431066513061523 75.80186462402344 10.74804019927979 80.02691650390625 14.97309303283691 C 84.25196075439453 19.19813346862793 87.56893157958984 24.11771965026855 89.88570404052734 29.59518623352051 C 92.28397369384766 35.26533508300781 93.5 41.28937149047852 93.5 47.5 C 93.5 53.71062850952148 92.28397369384766 59.73468017578125 89.88570404052734 65.40481567382812 C 87.56893157958984 70.88229370117188 84.25196075439453 75.80186462402344 80.02691650390625 80.02691650390625 C 75.80186462402344 84.25196075439453 70.88229370117188 87.56893157958984 65.40481567382812 89.88570404052734 C 59.73468017578125 92.28397369384766 53.71062850952148 93.5 47.5 93.5 Z" stroke="none"/>
                    <path d="M 47.5 3 C 41.49121475219727 3 35.66376876831055 4.176155090332031 30.17950439453125 6.495796203613281 C 24.88084411621094 8.736953735351562 20.12152099609375 11.94598388671875 16.03375244140625 16.03375244140625 C 11.94598388671875 20.12152099609375 8.736953735351562 24.88084411621094 6.495796203613281 30.17950439453125 C 4.176155090332031 35.66376876831055 3 41.49121475219727 3 47.5 C 3 53.50878524780273 4.176155090332031 59.33623123168945 6.495796203613281 64.82049560546875 C 8.736953735351562 70.11915588378906 11.94598388671875 74.87847900390625 16.03375244140625 78.96624755859375 C 20.12152099609375 83.05401611328125 24.88084411621094 86.26304626464844 30.17950439453125 88.50419616699219 C 35.66376876831055 90.82384490966797 41.49121475219727 92 47.5 92 C 53.50878524780273 92 59.33623123168945 90.82384490966797 64.82049560546875 88.50419616699219 C 70.11915588378906 86.26304626464844 74.87847900390625 83.05401611328125 78.96624755859375 78.96624755859375 C 83.05401611328125 74.87847900390625 86.26304626464844 70.11915588378906 88.50419616699219 64.82049560546875 C 90.82384490966797 59.33623123168945 92 53.50878524780273 92 47.5 C 92 41.49121475219727 90.82384490966797 35.66376876831055 88.50419616699219 30.17950439453125 C 86.26304626464844 24.88084411621094 83.05401611328125 20.12152099609375 78.96624755859375 16.03375244140625 C 74.87847900390625 11.94598388671875 70.11915588378906 8.736953735351562 64.82049560546875 6.495796203613281 C 59.33623123168945 4.176155090332031 53.50878524780273 3 47.5 3 M 47.5 0 C 73.7335205078125 0 95 21.2664794921875 95 47.5 C 95 73.7335205078125 73.7335205078125 95 47.5 95 C 21.2664794921875 95 0 73.7335205078125 0 47.5 C 0 21.2664794921875 21.2664794921875 0 47.5 0 Z" stroke="none" fill="#8b5e6f"/>
                  </g>
                </g>
              </g>
            </g>
          </g>
        </g>
      </g>
      <g id="crying_3890936" transform="translate(904.863 1962.945)">
        <path id="Path_1044554" data-name="Path 1044554" d="M103.67,44.792a47.661,47.661,0,0,0,19.476-4.315,3.253,3.253,0,0,0,1.663-4c-.888-2.534-.292-6.382-.292-12.075,0-9.85-7.763-20.34-20.332-15.749a1.5,1.5,0,0,1-1.03,0C90.586,4.064,82.823,14.555,82.823,24.4c0,5.693.6,9.541-.292,12.075a3.253,3.253,0,0,0,1.663,4,47.66,47.66,0,0,0,19.476,4.315Z" transform="translate(-50.473 -6.618)" fill="#565e75"/>
        <path id="Path_1044555" data-name="Path 1044555" d="M102.713,259.389a3.435,3.435,0,0,1,.744-4.8c4.03-2.948,6.424-8.378,10.619-10.949a3.434,3.434,0,0,1,3.589,5.856c-2.593,1.589-5.373,7.14-10.152,10.636A3.435,3.435,0,0,1,102.713,259.389Z" transform="translate(-67.756 -213.286)" fill="#939597"/>
        <path id="Path_1044556" data-name="Path 1044556" d="M104.593,328.885a14.247,14.247,0,0,1-1.135.929,3.434,3.434,0,0,0,4.055,5.544c.49-.358.957-.739,1.407-1.134A12.215,12.215,0,0,0,104.593,328.885Z" transform="translate(-67.756 -288.51)" fill="#c99b80"/>
        <path id="Path_1044557" data-name="Path 1044557" d="M286.028,259.389a3.434,3.434,0,0,0-.744-4.8c-4.03-2.948-6.424-8.378-10.619-10.949a3.434,3.434,0,0,0-3.589,5.856c2.593,1.589,5.373,7.14,10.152,10.636A3.435,3.435,0,0,0,286.028,259.389Z" transform="translate(-214.592 -213.286)" fill="#939597"/>
        <path id="Path_1044558" data-name="Path 1044558" d="M358.366,328.885a14.248,14.248,0,0,0,1.135.929,3.434,3.434,0,1,1-4.055,5.544c-.49-.358-.957-.739-1.407-1.134A12.215,12.215,0,0,1,358.366,328.885Z" transform="translate(-288.809 -288.51)" fill="#c99b80"/>
        <path id="Path_1044559" data-name="Path 1044559" d="M197.112,240.176a9.149,9.149,0,0,0,1.152-4.456V228.68a7.4,7.4,0,0,0-7.4-7.4h-3.59a7.4,7.4,0,0,0-7.4,7.4v7.041a9.15,9.15,0,0,0,1.152,4.456,74.082,74.082,0,0,0-1.328,12.445,3.434,3.434,0,0,0,6.869,0,73.246,73.246,0,0,1,.635-7.9,9.267,9.267,0,0,0,3.731,0,73.223,73.223,0,0,1,.635,7.9,3.434,3.434,0,0,0,6.869,0A74.083,74.083,0,0,0,197.112,240.176Z" transform="translate(-135.874 -194.116)" fill="#d4d5d5"/>
        <path id="Path_1044560" data-name="Path 1044560" d="M193.014,221.281h-3.59a7.4,7.4,0,0,0-7.274,6.05,25.235,25.235,0,0,0,18.137,0A7.4,7.4,0,0,0,193.014,221.281Z" transform="translate(-138.023 -194.116)" fill="#939597"/>
        <path id="Path_1044561" data-name="Path 1044561" d="M179.921,346.226a9.138,9.138,0,0,0,1.108,3.557,74.085,74.085,0,0,0-1.328,12.445,3.434,3.434,0,1,0,6.869,0,73.25,73.25,0,0,1,.635-7.9,9.266,9.266,0,0,0,3.731,0,73.224,73.224,0,0,1,.635,7.9,3.434,3.434,0,1,0,6.869,0,74.073,74.073,0,0,0-1.328-12.445,9.14,9.14,0,0,0,1.108-3.557Z" transform="translate(-135.874 -303.723)" fill="#939597"/>
        <path id="Path_1044562" data-name="Path 1044562" d="M186.57,462.355c0-.383.012-.818.032-1.29a17.4,17.4,0,0,0-6.844-.605c-.037.722-.057,1.369-.057,1.9a3.434,3.434,0,1,0,6.869,0Z" transform="translate(-135.874 -403.85)" fill="#fbf2b8"/>
        <path id="Path_1044563" data-name="Path 1044563" d="M276.16,462.354a3.434,3.434,0,1,0,6.869,0c0-.526-.02-1.173-.057-1.9a17.393,17.393,0,0,0-6.844.605C276.149,461.536,276.16,461.972,276.16,462.354Z" transform="translate(-220.463 -403.85)" fill="#fbf2b8"/>
        <ellipse id="Ellipse_12698" data-name="Ellipse 12698" cx="16.481" cy="13.445" rx="16.481" ry="13.445" transform="translate(36.715 4.942)" fill="#c99b80"/>
        <g id="Group_1203734" data-name="Group 1203734" transform="translate(39.826 18.924)">
          <g id="Group_1203733" data-name="Group 1203733">
            <g id="Group_1203732" data-name="Group 1203732">
              <g id="Group_1203730" data-name="Group 1203730">
                <ellipse id="Ellipse_12699" data-name="Ellipse 12699" cx="3.604" cy="2.87" rx="3.604" ry="2.87" fill="#f1bdc4"/>
              </g>
              <g id="Group_1203731" data-name="Group 1203731" transform="translate(19.533)">
                <ellipse id="Ellipse_12700" data-name="Ellipse 12700" cx="3.604" cy="2.87" rx="3.604" ry="2.87" fill="#f1bdc4"/>
              </g>
            </g>
          </g>
        </g>
        <path id="Path_1044564" data-name="Path 1044564" d="M143.885,19.266c8.429-2.78,13.487,3.991,14.88,8.176a.938.938,0,0,1-.922,1.23c-3.828-.1-10.986-2.8-14.048-4.637a1.551,1.551,0,0,0-1.6,0c-3.067,1.84-10.246,4.545-14.068,4.638a.934.934,0,0,1-.9-1.23c1.394-4.185,6.451-10.956,14.881-8.176A2.832,2.832,0,0,0,143.885,19.266Z" transform="translate(-89.801 -16.33)" fill="#565e75"/>
        <g id="Group_1203735" data-name="Group 1203735" transform="translate(25.733 19.186)">
          <path id="Path_1044565" data-name="Path 1044565" d="M38.676,158.176a4.8,4.8,0,0,0,.027,6.811,4.887,4.887,0,0,0,7.16-.468c1.526-1.827,1.358-3.672,3.125-5.251a1.293,1.293,0,0,0-.4-2.176c-3.644-1.359-7.83-1-9.914,1.083Z" transform="translate(-36.662 -156.287)" fill="#f5df4d"/>
          <path id="Path_1044566" data-name="Path 1044566" d="M32.311,322.966a4.8,4.8,0,0,0,4.836,4.8,4.887,4.887,0,0,0,4.732-5.393c-.213-2.37-1.636-3.557-1.5-5.922a1.293,1.293,0,0,0-1.82-1.258C35.018,316.805,32.311,320.018,32.311,322.966Z" transform="translate(-32.311 -295.579)" fill="#f5df4d"/>
          <path id="Path_1044567" data-name="Path 1044567" d="M411.217,322.966a4.8,4.8,0,0,1-4.836,4.8,4.887,4.887,0,0,1-4.732-5.393c.213-2.37,1.636-3.557,1.5-5.922a1.293,1.293,0,0,1,1.82-1.258C408.511,316.805,411.217,320.018,411.217,322.966Z" transform="translate(-356.291 -295.579)" fill="#f5df4d"/>
          <path id="Path_1044568" data-name="Path 1044568" d="M386.534,158.176a4.8,4.8,0,0,1-.028,6.811,4.887,4.887,0,0,1-7.16-.468c-1.526-1.827-1.358-3.672-3.125-5.251a1.293,1.293,0,0,1,.4-2.176C380.264,155.734,384.45,156.092,386.534,158.176Z" transform="translate(-333.621 -156.287)" fill="#f5df4d"/>
        </g>
        <path id="Path_1044569" data-name="Path 1044569" d="M74.8,37.958a2.214,2.214,0,0,0-3.122,2.147,4.357,4.357,0,0,1-.028.8,21.21,21.21,0,0,1-4.108-4.069,41.206,41.206,0,0,0,5.531-2.149,4.168,4.168,0,0,0,2.292-4.536,5.566,5.566,0,0,0,3.9-1.609c3.122-3.072,2.141-9.117-4.3-10.142q0-.312,0-.614c0-5.825-2.6-11.945-7.37-15.281C64.8.552,60.07-1.265,53.4,1.173a.58.58,0,0,1-.4,0c-4.945-1.806-9.6-1.51-13.472.857A.921.921,0,0,0,40.487,3.6c3.373-2.063,7.48-2.3,11.879-.7a2.426,2.426,0,0,0,1.662,0c4.693-1.715,9.02-1.33,12.512,1.112,4,2.8,6.583,8.2,6.583,13.772q0,.234,0,.474a13.223,13.223,0,0,0-2.524.252,12.41,12.41,0,0,0-1.9-6.661.921.921,0,0,0-.746-.435c-3.721-.15-10.638-2.793-13.486-4.5a2.468,2.468,0,0,0-2.544,0c-2.848,1.708-9.765,4.351-13.486,4.5a.921.921,0,0,0-.746.435,12.25,12.25,0,0,0-1.9,6.661,13.223,13.223,0,0,0-2.524-.252q0-.24,0-.473A17.847,17.847,0,0,1,37.343,6.308a.921.921,0,1,0-1.4-1.2,19.714,19.714,0,0,0-4.515,12.676c0,.2,0,.406,0,.614A7.809,7.809,0,0,0,27.1,20.425h0a5.714,5.714,0,0,0,.033,8.119,5.566,5.566,0,0,0,3.9,1.609,4.168,4.168,0,0,0,2.292,4.536,41.19,41.19,0,0,0,5.532,2.148,21.14,21.14,0,0,1-4.108,4.069,4.365,4.365,0,0,1-.028-.8A2.214,2.214,0,0,0,31.6,37.958c-3.993,1.824-6.783,5.367-6.783,8.614a5.716,5.716,0,0,0,5.717,5.718h.047a5.718,5.718,0,0,0,5.432-4.211A4.333,4.333,0,0,0,40.3,47.59a23.975,23.975,0,0,0,3.26-2.916,10.083,10.083,0,0,0,.619,1.513A77.96,77.96,0,0,0,42.907,58.5a4.355,4.355,0,1,0,8.71,0,68.224,68.224,0,0,1,.511-6.842,10.24,10.24,0,0,0,2.137,0,68.261,68.261,0,0,1,.511,6.842,4.355,4.355,0,1,0,8.71,0,77.961,77.961,0,0,0-1.273-12.317,10.073,10.073,0,0,0,.619-1.514,23.975,23.975,0,0,0,3.26,2.916,4.327,4.327,0,0,0,4.292.488,5.759,5.759,0,0,0,4.9,4.183.921.921,0,1,0,.188-1.832,3.984,3.984,0,0,1-3.462-4.37c.2-2.179,1.653-3.424,1.506-6.056a.372.372,0,0,1,.518-.369c3.306,1.51,5.706,4.429,5.706,6.939A3.865,3.865,0,0,1,78.715,49.2a.921.921,0,1,0,1.354,1.248,5.7,5.7,0,0,0,1.513-3.874c0-3.248-2.79-6.79-6.783-8.614ZM30.562,50.449H30.53a3.874,3.874,0,0,1-3.876-3.876c0-2.511,2.4-5.429,5.706-6.939a.372.372,0,0,1,.518.369c-.148,2.631,1.31,3.88,1.506,6.056A3.967,3.967,0,0,1,30.562,50.449ZM69.053,20.855a11.848,11.848,0,0,1,4.1-.753A6.869,6.869,0,0,1,78,21.727h0a3.874,3.874,0,0,1-.022,5.5,3.967,3.967,0,0,1-5.807-.4c-1.4-1.679-1.252-3.59-3.218-5.347a.373.373,0,0,1,.105-.627ZM28.421,27.231a3.874,3.874,0,0,1-.022-5.5h0A6.868,6.868,0,0,1,33.242,20.1a11.849,11.849,0,0,1,4.1.753.372.372,0,0,1,.105.627c-1.971,1.762-1.812,3.664-3.218,5.347A3.967,3.967,0,0,1,28.421,27.231ZM39.214,46.1a2.5,2.5,0,0,1-2.983-.013,8.873,8.873,0,0,0-.8-3.036,2.489,2.489,0,0,1,.812-1.008c.223-.163.439-.333.652-.509a12.545,12.545,0,0,1,3.166,3.906Q39.64,45.792,39.214,46.1Zm2.264-1.936a14.66,14.66,0,0,0-3.213-3.889c1.76-1.786,3.2-3.848,4.818-5.744,0,.01,0,.019,0,.029.012,7.236-.026,7.121.034,7.864C42.554,43.07,42.011,43.646,41.478,44.168ZM43.85,31.074a34.06,34.06,0,0,0-3.758,4.215,40.229,40.229,0,0,1-5.971-2.259,2.326,2.326,0,0,1-1.194-2.863c.04-.113.076-.231.112-.351a5.989,5.989,0,0,0,2.6-1.8,12,12,0,0,0,1.763-3.3,14.553,14.553,0,0,0,6.587,6.076q-.073.143-.14.288ZM49.776,58.5a2.514,2.514,0,1,1-5.027,0c0-.312.007-.664.02-1.042a17.771,17.771,0,0,1,5.016.411c-.005.221-.008.432-.008.631Zm6.2-8.015a.921.921,0,0,0-1.1-.783,8.382,8.382,0,0,1-3.359,0,.921.921,0,0,0-1.1.783C50.213,52.067,50,54.153,49.874,56a20.036,20.036,0,0,0-5.011-.384,68.108,68.108,0,0,1,1.186-9.336.921.921,0,0,0-.089-.665,8.243,8.243,0,0,1-.833-2.189h16.14a8.24,8.24,0,0,1-.833,2.189.92.92,0,0,0-.089.665,68.1,68.1,0,0,1,1.186,9.336A20.041,20.041,0,0,0,56.519,56c-.122-1.845-.338-3.931-.544-5.509ZM44.924,41.583V34.563a6.439,6.439,0,0,1,.77-3.062,23.074,23.074,0,0,0,15.006,0,6.439,6.439,0,0,1,.77,3.063v7.019ZM59.132,61.018A2.517,2.517,0,0,1,56.618,58.5c0-.2,0-.41-.008-.631a17.775,17.775,0,0,1,5.016-.411c.013.379.02.73.02,1.042a2.516,2.516,0,0,1-2.514,2.514ZM53.2,30.911c-6.919,0-12.457-3.039-14.616-7.971.03-.028.06-.057.091-.085a2.214,2.214,0,0,0-.689-3.726c-.11-.041-.22-.08-.33-.118a10.369,10.369,0,0,1,1.367-5.788c4.2-.356,10.994-3.015,13.852-4.73a.63.63,0,0,1,.649,0c2.858,1.714,9.652,4.374,13.852,4.73a10.37,10.37,0,0,1,1.367,5.788c-.11.038-.221.077-.33.118a2.214,2.214,0,0,0-.689,3.726c.032.028.061.057.091.085C65.653,27.872,60.115,30.911,53.2,30.911Zm9.347.163q-.068-.146-.141-.289A14.553,14.553,0,0,0,68.99,24.71a11.99,11.99,0,0,0,1.763,3.3,5.987,5.987,0,0,0,2.6,1.805c.035.121.072.239.112.351a2.326,2.326,0,0,1-1.194,2.863A40.222,40.222,0,0,1,66.3,35.289a34.081,34.081,0,0,0-3.759-4.215Zm2.372,13.094c-.533-.522-1.076-1.1-1.639-1.74.061-.74.023-.526.035-7.864,0-.011,0-.021,0-.032,1.6,1.878,3.056,3.959,4.818,5.747a14.656,14.656,0,0,0-3.213,3.889Zm5.247,1.923a2.5,2.5,0,0,1-2.983.013q-.427-.312-.85-.661A12.55,12.55,0,0,1,69.5,41.537c.213.176.43.346.652.509a2.489,2.489,0,0,1,.812,1.008A8.886,8.886,0,0,0,70.163,46.091ZM47.96,17.6a.921.921,0,0,0-1.3.089,1.851,1.851,0,0,1-2.8,0,.921.921,0,0,0-1.388,1.21,3.693,3.693,0,0,0,5.572,0A.921.921,0,0,0,47.96,17.6Zm15.868,0a.921.921,0,0,0-1.3.089,1.851,1.851,0,0,1-2.8,0,.921.921,0,0,0-1.388,1.21,3.693,3.693,0,0,0,5.572,0A.921.921,0,0,0,63.827,17.6ZM53.2,19.792a4.914,4.914,0,0,0-4.008,2.251A.921.921,0,0,0,50.7,23.094a2.863,2.863,0,0,1,4.993,0A.921.921,0,0,0,57.2,22.043,4.914,4.914,0,0,0,53.2,19.792Z"/>
      </g>
    </g>
  </g>
</svg>
