<svg xmlns="http://www.w3.org/2000/svg" xmlns:xlink="http://www.w3.org/1999/xlink" width="108" height="108" viewBox="0 0 108 108">
  <defs>
    <filter id="Path_982547" x="0" y="0" width="108" height="108" filterUnits="userSpaceOnUse">
      <feOffset dy="3" input="SourceAlpha"/>
      <feGaussianBlur stdDeviation="3" result="blur"/>
      <feFlood flood-opacity="0.161"/>
      <feComposite operator="in" in2="blur"/>
      <feComposite in="SourceGraphic"/>
    </filter>
  </defs>
  <g id="Group_1203974" data-name="Group 1203974" transform="translate(-823 -1955.468)">
    <g id="Group_1203859" data-name="Group 1203859">
      <g id="Group_1203627" data-name="Group 1203627" transform="translate(618.5 905.468)">
        <g id="Group_1178314" data-name="Group 1178314" transform="translate(213.5 1056)">
          <g id="Group_1173988" data-name="Group 1173988">
            <g id="Group_1172010" data-name="Group 1172010">
              <g id="Group_1171046" data-name="Group 1171046">
                <g id="Group_1148525" data-name="Group 1148525">
                  <g transform="matrix(1, 0, 0, 1, -9, -6)" filter="url(#Path_982547)">
                    <g id="Path_982547-2" data-name="Path 982547" transform="translate(9 6)" fill="#f7fbfc">
                      <path d="M 45 88.5 C 39.12687683105469 88.5 33.43022537231445 87.35007476806641 28.06830024719238 85.08217620849609 C 22.88852500915527 82.89131164550781 18.23629951477051 79.75458526611328 14.2408504486084 75.75914764404297 C 10.24541282653809 71.76370239257812 7.108687400817871 67.11147308349609 4.917825222015381 61.93170166015625 C 2.649924993515015 56.56977462768555 1.5 50.87312316894531 1.5 45 C 1.5 39.12687683105469 2.649924993515015 33.43022537231445 4.917825222015381 28.06830024719238 C 7.108687400817871 22.88852500915527 10.24541282653809 18.23629951477051 14.2408504486084 14.2408504486084 C 18.23629951477051 10.24541282653809 22.88852500915527 7.108687400817871 28.06830024719238 4.917825222015381 C 33.43022537231445 2.649924993515015 39.12687683105469 1.5 45 1.5 C 50.87312316894531 1.5 56.56977462768555 2.649924993515015 61.93170166015625 4.917825222015381 C 67.11147308349609 7.108687400817871 71.76370239257812 10.24541282653809 75.75914764404297 14.2408504486084 C 79.75458526611328 18.23629951477051 82.89131164550781 22.88852500915527 85.08217620849609 28.06830024719238 C 87.35007476806641 33.43022537231445 88.5 39.12687683105469 88.5 45 C 88.5 50.87312316894531 87.35007476806641 56.56977462768555 85.08217620849609 61.93170166015625 C 82.89131164550781 67.11147308349609 79.75458526611328 71.76370239257812 75.75914764404297 75.75914764404297 C 71.76370239257812 79.75458526611328 67.11147308349609 82.89131164550781 61.93170166015625 85.08217620849609 C 56.56977462768555 87.35007476806641 50.87312316894531 88.5 45 88.5 Z" stroke="none"/>
                      <path d="M 45 3 C 39.32871246337891 3 33.82865524291992 4.110054016113281 28.65262985229492 6.299339294433594 C 23.65165710449219 8.414573669433594 19.15968322753906 11.44334411621094 15.301513671875 15.301513671875 C 11.44334411621094 19.15968322753906 8.414573669433594 23.65165710449219 6.299339294433594 28.65262985229492 C 4.110054016113281 33.82865524291992 3 39.32871246337891 3 45 C 3 50.67128753662109 4.110054016113281 56.17134475708008 6.299339294433594 61.34737396240234 C 8.414573669433594 66.34834289550781 11.44334411621094 70.84031677246094 15.301513671875 74.698486328125 C 19.15968322753906 78.55665588378906 23.65165710449219 81.58542633056641 28.65262985229492 83.70066070556641 C 33.82865524291992 85.88994598388672 39.32871246337891 87 45 87 C 50.67128753662109 87 56.17134475708008 85.88994598388672 61.34737396240234 83.70066070556641 C 66.34834289550781 81.58542633056641 70.84031677246094 78.55665588378906 74.698486328125 74.698486328125 C 78.55665588378906 70.84031677246094 81.58542633056641 66.34834289550781 83.70066070556641 61.34737396240234 C 85.88994598388672 56.17134475708008 87 50.67128753662109 87 45 C 87 39.32871246337891 85.88994598388672 33.82865524291992 83.70066070556641 28.65262985229492 C 81.58542633056641 23.65165710449219 78.55665588378906 19.15968322753906 74.698486328125 15.301513671875 C 70.84031677246094 11.44334411621094 66.34834289550781 8.414573669433594 61.34737396240234 6.299339294433594 C 56.17134475708008 4.110054016113281 50.67128753662109 3 45 3 M 45 0 C 69.85281372070312 0 90 20.14718627929688 90 45 C 90 69.85281372070312 69.85281372070312 90 45 90 C 20.14718627929688 90 0 69.85281372070312 0 45 C 0 20.14718627929688 20.14718627929688 0 45 0 Z" stroke="none" fill="#62797e"/>
                    </g>
                  </g>
                </g>
              </g>
            </g>
          </g>
        </g>
      </g>
      <g id="respect_2464196" transform="translate(849.195 1975.468)">
        <g id="Group_1203857" data-name="Group 1203857" transform="translate(1.904 1.904)">
          <g id="Group_1203840" data-name="Group 1203840" transform="translate(0 23.736)">
            <path id="Path_1044935" data-name="Path 1044935" d="M31.64,39.779h-.009a5.049,5.049,0,0,1-.488-1.474l-.208-1.239H29.127a30.069,30.069,0,0,1-.886-7.243v-.009a3.239,3.239,0,0,1-2.423-1.3L23.7,28.25v6.818a12.182,12.182,0,0,1-2.731,7.686v.009A12.206,12.206,0,0,1,18.276,45.2a12.206,12.206,0,0,1-2.695-2.441v-.009a11.53,11.53,0,0,1-1.293-1.944,12.149,12.149,0,0,1-1.438-5.742V28.25l-3.445.434A8.427,8.427,0,0,0,2,37.066v21.7H34.552V42.247A4.927,4.927,0,0,1,31.64,39.779Z" transform="translate(-2 -28.25)" fill="#4fc1e9"/>
          </g>
          <g id="Group_1203841" data-name="Group 1203841" transform="translate(10.851 28.564)">
            <path id="Path_1044936" data-name="Path 1044936" d="M16.541,33.59l1.98,2.179-1.79,7.5a11.53,11.53,0,0,1-1.293-1.944A12.149,12.149,0,0,1,14,35.579v-.714Z" transform="translate(-14 -33.59)" fill="#e6e9ed"/>
          </g>
          <g id="Group_1203842" data-name="Group 1203842" transform="translate(17.18 28.564)">
            <path id="Path_1044937" data-name="Path 1044937" d="M25.521,34.865v.714a12.182,12.182,0,0,1-2.731,7.686L21,35.769l1.98-2.179Z" transform="translate(-21 -33.59)" fill="#e6e9ed"/>
          </g>
          <g id="Group_1203843" data-name="Group 1203843" transform="translate(13.581 30.743)">
            <path id="Path_1044938" data-name="Path 1044938" d="M18.81,36h1.808l1.79,7.5v.009a12.206,12.206,0,0,1-2.695,2.441,12.206,12.206,0,0,1-2.695-2.441V43.5Z" transform="translate(-17.02 -36)" fill="#fcd770"/>
          </g>
          <g id="Group_1203844" data-name="Group 1203844" transform="translate(13.391 27.127)">
            <path id="Path_1044939" data-name="Path 1044939" d="M22.579,33.438,20.6,35.617H18.79l-1.98-2.179L19.694,32Z" transform="translate(-16.81 -32)" fill="#fcd770"/>
          </g>
          <g id="Group_1203845" data-name="Group 1203845" transform="translate(10.851 23.51)">
            <path id="Path_1044940" data-name="Path 1044940" d="M16.541,33.055,14,34.33v-6.1L15.808,28l3.617,3.617Z" transform="translate(-14 -28)" fill="#3bafda"/>
          </g>
          <g id="Group_1203846" data-name="Group 1203846" transform="translate(16.276 23.51)">
            <path id="Path_1044941" data-name="Path 1044941" d="M22.884,33.055,20,31.617,23.617,28l1.808.226v6.1Z" transform="translate(-20 -28)" fill="#3bafda"/>
          </g>
          <g id="Group_1203847" data-name="Group 1203847" transform="translate(4.521 0)">
            <path id="Path_1044942" data-name="Path 1044942" d="M9.713,2H21.7a7,7,0,0,1,7,7,6.812,6.812,0,0,1-.362,2.215c-.181.561-.389,1.185-.488,1.474a2.679,2.679,0,0,0-1.863-.741H24.967a3.609,3.609,0,0,0-3.5-2.713H16.042a3.609,3.609,0,0,0-3.5,2.713H11.521a2.689,2.689,0,0,0-2.233,1.175l-.533-.814a5.018,5.018,0,0,1-.316-5.046L8.5,7.136A2.589,2.589,0,0,1,7.8,6.63,2.713,2.713,0,0,1,9.713,2Z" transform="translate(-7 -2)" fill="#b27946"/>
          </g>
          <g id="Group_1203848" data-name="Group 1203848" transform="translate(32.552 36.331)">
            <path id="Path_1044943" data-name="Path 1044943" d="M52.467,60.1H38V56.313a15.061,15.061,0,0,1,1.98-7.46l.09.289a4.9,4.9,0,0,0,2.45,2.821l1.808-4.521,2.713,4.521a9.036,9.036,0,0,0,3.617-7.234V42.18l2.36.434a8.127,8.127,0,0,1,6.682,8V60.1Z" transform="translate(-38 -42.18)" fill="#ff826e"/>
          </g>
          <g id="Group_1203849" data-name="Group 1203849" transform="translate(34.532 38.999)">
            <path id="Path_1044944" data-name="Path 1044944" d="M44.539,47.725l-1.808,4.521a4.9,4.9,0,0,1-2.45-2.821l-.09-.289A14.915,14.915,0,0,1,43.5,45.13Z" transform="translate(-40.19 -45.13)" fill="#fc6e51"/>
          </g>
          <g id="Group_1203850" data-name="Group 1203850" transform="translate(38.881 36.169)">
            <path id="Path_1044945" data-name="Path 1044945" d="M51.33,42.163v2.55a9.036,9.036,0,0,1-3.617,7.234L45,47.425a5.327,5.327,0,0,0,5.263-4.458L50.425,42Z" transform="translate(-45 -42)" fill="#fc6e51"/>
          </g>
          <g id="Group_1203851" data-name="Group 1203851" transform="translate(22.605 14.467)">
            <path id="Path_1044946" data-name="Path 1044946" d="M38.3,26.138a2.2,2.2,0,0,0-.868.181l-1.971.841-3.318,1.429a3.382,3.382,0,0,1-1.3.262.776.776,0,0,1-.208-.018,3.239,3.239,0,0,1-2.423-1.3,2.578,2.578,0,0,1-.316-.5l-.588-1.175A3.04,3.04,0,0,1,27,24.537a2.94,2.94,0,0,1,1.881-2.74l8.735-3.364a6.588,6.588,0,0,1,8.328,3.382l2.912,6.311a8.173,8.173,0,0,1-.886,8.328L47.037,37.7,44.18,34.276l.19-.19a5.516,5.516,0,0,0,1.619-3.906,2.223,2.223,0,0,0-2.233-2.233,2.23,2.23,0,0,0-2,1.239l-.289.57-1.2-2.405A2.194,2.194,0,0,0,38.3,26.138Z" transform="translate(-27 -18)" fill="#656d78"/>
          </g>
          <g id="Group_1203852" data-name="Group 1203852" transform="translate(12.659 20.155)">
            <path id="Path_1044947" data-name="Path 1044947" d="M22.393,24.29l.841,3.355-3.617,3.617L16,27.645l.841-3.355a6.323,6.323,0,0,0,5.552,0Z" transform="translate(-16 -24.29)" fill="#f0d0b4"/>
          </g>
          <g id="Group_1203853" data-name="Group 1203853" transform="translate(22.488 9.946)">
            <path id="Path_1044948" data-name="Path 1044948" d="M27.892,13A2.714,2.714,0,0,1,30.6,15.713a2.717,2.717,0,0,1-2.713,2.713h-.977a5.015,5.015,0,0,0,.072-.9V13.9a3.307,3.307,0,0,0-.118-.9Z" transform="translate(-26.87 -13)" fill="#f0d0b4"/>
          </g>
          <g id="Group_1203854" data-name="Group 1203854" transform="translate(9.946 7.234)">
            <path id="Path_1044949" data-name="Path 1044949" d="M13,17.234V13.617a3.307,3.307,0,0,1,.118-.9A3.609,3.609,0,0,1,16.617,10h5.425a3.609,3.609,0,0,1,3.5,2.713,3.307,3.307,0,0,1,.118.9v3.617a5.015,5.015,0,0,1-.072.9,6.275,6.275,0,0,1-3.481,4.783,6.323,6.323,0,0,1-5.552,0,6.3,6.3,0,0,1-3.481-4.783,5.015,5.015,0,0,1-.072-.9Z" transform="translate(-13 -10)" fill="#f0d0b4"/>
          </g>
          <g id="Group_1203855" data-name="Group 1203855" transform="translate(6.33 9.946)">
            <path id="Path_1044950" data-name="Path 1044950" d="M12.617,17.521a5.015,5.015,0,0,0,.072.9h-.977a2.713,2.713,0,0,1,0-5.425h1.022a3.307,3.307,0,0,0-.118.9Z" transform="translate(-9 -13)" fill="#f0d0b4"/>
          </g>
          <g id="Group_1203856" data-name="Group 1203856" transform="translate(26.24 22.605)">
            <path id="Path_1044951" data-name="Path 1044951" d="M49.086,40.563l-.163.968a5.327,5.327,0,0,1-5.263,4.458l-1.04-2.6-.769-1.926-.751.38a5.073,5.073,0,0,1-2.242.524,4.747,4.747,0,0,1-1.528-.244,4.927,4.927,0,0,1-2.912-2.469h-.009a5.049,5.049,0,0,1-.488-1.474l-.208-1.239H31.906A30.069,30.069,0,0,1,31.02,29.7v-.009a.776.776,0,0,0,.208.018,3.382,3.382,0,0,0,1.3-.262l3.318-1.429,1.971-.841a2.189,2.189,0,0,1,2.83,1.031l1.2,2.405.289-.57a2.23,2.23,0,0,1,2-1.239,2.223,2.223,0,0,1,2.233,2.233,5.516,5.516,0,0,1-1.619,3.906l-.19.19,2.857,3.427Z" transform="translate(-31.02 -27)" fill="#f0d0b4"/>
          </g>
        </g>
        <g id="Group_1203858" data-name="Group 1203858" transform="translate(1 1)">
          <circle id="Ellipse_12704" data-name="Ellipse 12704" cx="1" cy="1" r="1" transform="translate(19.031 12.031)"/>
          <circle id="Ellipse_12705" data-name="Ellipse 12705" cx="1" cy="1" r="1" transform="translate(13.031 12.031)"/>
          <path id="Path_1044952" data-name="Path 1044952" d="M23.053,19.552l.095-.191-1.618-.809-.095.192a2.022,2.022,0,0,1-3.617,0l-.095-.191-1.618.809.095.191a3.831,3.831,0,0,0,6.852,0Z" transform="translate(-2.447 -2.681)"/>
          <path id="Path_1044953" data-name="Path 1044953" d="M23,51h1.808v1.808H23Z" transform="translate(-3.107 -5.789)"/>
          <path id="Path_1044954" data-name="Path 1044954" d="M23,55h1.808v1.808H23Z" transform="translate(-3.107 -6.172)"/>
          <path id="Path_1044955" data-name="Path 1044955" d="M49.637,37.776,46.7,37.242l-1-1.2.505-.675a9.081,9.081,0,0,0,.98-9.253l-2.911-6.306A7.476,7.476,0,0,0,34.8,15.966L26.07,19.324a3.842,3.842,0,0,0-2.059,5.306l.08.159-1.567-.2L22,22.5a7.25,7.25,0,0,0,3.175-4.322h.238a3.621,3.621,0,0,0,3.617-3.617,3.577,3.577,0,0,0-.737-2.164l.332-.994A7.907,7.907,0,0,0,21.124,1H9.138A3.6,3.6,0,0,0,6.8,7.354a5.919,5.919,0,0,0,.622,5.362l.238.356a3.58,3.58,0,0,0-.331,1.491,3.621,3.621,0,0,0,3.617,3.617h.238A7.244,7.244,0,0,0,14.359,22.5l-.523,2.091-4.639.58A9.358,9.358,0,0,0,1,34.46v22.6H57.062V46.673a9.039,9.039,0,0,0-7.425-8.9ZM33.552,55.253H29.935V37.169H28.127V55.253H19.084V43.041A13.044,13.044,0,0,0,24.51,32.457V26.664l.741.092a4.158,4.158,0,0,0,2.012,1.223,28.185,28.185,0,0,0,.911,6.763l.205.618h1.695l.08.485a5.879,5.879,0,0,0,3.4,4.4ZM13.659,32.3l1.43-.715,1.2,1.316-1.2,5.023a11.248,11.248,0,0,1-1.431-5.469Zm4.521-2.261,1.41.705-.906,1H17.676l-.906-1Zm3.091,7.884-1.2-5.023,1.2-1.316,1.43.715v.155a11.257,11.257,0,0,1-1.43,5.469ZM17.99,33.552h.38L19.882,39.9a11.265,11.265,0,0,1-1.7,1.588,11.308,11.308,0,0,1-1.7-1.588ZM35.3,25.519a1.313,1.313,0,0,1,1.666.609l2.01,4.019,1.1-2.19a1.331,1.331,0,0,1,2.521.6,4.582,4.582,0,0,1-1.352,3.262l-.776.776,4.784,5.742-.093.556a4.417,4.417,0,0,1-3.776,3.665l-1.256-3.141,1.064-.532-.809-1.618-2.56,1.279a4.091,4.091,0,0,1-4.4-.471,4.865,4.865,0,0,0,4.605-3.329l-1.715-.572a3.059,3.059,0,0,1-2.905,2.094H32.124a4.173,4.173,0,0,1-.186-.717l-.333-2H29.711a30.98,30.98,0,0,1-.636-5.5,4.145,4.145,0,0,0,.933-.267ZM35.36,40.73a5.723,5.723,0,0,0,.626.056,5.934,5.934,0,0,0,2.513-.568l.18.451a15.948,15.948,0,0,0-3.319,4.359v-4.3ZM39.4,42.474l.41,1.024-1.263,3.157a3.961,3.961,0,0,1-1.123-1.649A14.168,14.168,0,0,1,39.4,42.474ZM46.185,41.3a8.186,8.186,0,0,1-2.459,5.341l-1.452-2.42A6.213,6.213,0,0,0,46.185,41.3ZM26.719,21.012l8.731-3.358a5.668,5.668,0,0,1,7.181,2.915l2.911,6.306a7.273,7.273,0,0,1-.785,7.41l-.249.332L42.9,32.685a6.375,6.375,0,0,0,1.5-4.131A3.142,3.142,0,0,0,39.075,26.3l-.49-.979a3.1,3.1,0,0,0-3.995-1.464l-.145.062a3.134,3.134,0,0,0-5.936-1.29l-.287.572,1.618.809.287-.573A1.324,1.324,0,1,1,32.379,24.8L29.3,26.125A2.391,2.391,0,0,1,26.216,25l-.587-1.175a2.035,2.035,0,0,1,1.09-2.81ZM22.7,26.438V30.28l-2.995-1.5,2.417-2.417Zm2.713-10.067V12.755a1.808,1.808,0,0,1,0,3.617ZM9.138,14.563a1.81,1.81,0,0,1,1.808-1.808v3.617A1.81,1.81,0,0,1,9.138,14.563Zm2.192-3.617h-.383a3.6,3.6,0,0,0-2.077.665,4.056,4.056,0,0,1-.432-3.449,3.584,3.584,0,0,0,.7.071,3.621,3.621,0,0,0,3.617-3.617H10.946A1.808,1.808,0,1,1,9.138,2.808H21.124a6.1,6.1,0,0,1,5.785,8.025l-.128.385a3.6,3.6,0,0,0-1.367-.272H25.03a4.524,4.524,0,0,0-4.138-2.713H15.467A4.524,4.524,0,0,0,11.33,10.946Zm1.425,5.425V12.755a2.716,2.716,0,0,1,2.713-2.713h5.425a2.716,2.716,0,0,1,2.713,2.713v3.617a5.425,5.425,0,0,1-10.851,0Zm5.425,7.234a7.229,7.229,0,0,0,2.151-.326l.465,1.858L18.18,27.752l-2.616-2.616.465-1.858A7.2,7.2,0,0,0,18.18,23.605Zm-3.943,2.761,2.417,2.417-2.995,1.5V26.438ZM2.808,34.46a7.55,7.55,0,0,1,6.613-7.492l2.429-.3v5.792a13.044,13.044,0,0,0,5.425,10.584V55.253H8.234V37.169H6.425V55.253H2.808ZM55.253,55.253H49.828v-3.4a7.694,7.694,0,0,1,.809-3.426l-1.618-.809a9.517,9.517,0,0,0-1,4.235v3.4H35.36V52.369a14.152,14.152,0,0,1,1.088-5.4,5.734,5.734,0,0,0,2.124,1.861l.879.439,1.5-3.741,2.29,3.818.8-.6a9.994,9.994,0,0,0,3.979-7.957V39.321l1.294.235a7.232,7.232,0,0,1,5.94,7.117Z" transform="translate(-1 -1)"/>
          <path id="Path_1044956" data-name="Path 1044956" d="M39.521,32H37.713A1.81,1.81,0,0,1,35.9,33.808H35v1.808h.9A3.621,3.621,0,0,0,39.521,32Z" transform="translate(-4.257 -3.969)"/>
          <path id="Path_1044957" data-name="Path 1044957" d="M40,9h1.808v5.425H40Z" transform="translate(-4.736 -1.766)"/>
          <path id="Path_1044958" data-name="Path 1044958" d="M0,0H6.394V1.808H0Z" transform="translate(40.948 12.928) rotate(-45)"/>
          <path id="Path_1044959" data-name="Path 1044959" d="M51,19h5.425v1.808H51Z" transform="translate(-5.789 -2.724)"/>
        </g>
      </g>
    </g>
  </g>
</svg>
