<svg xmlns="http://www.w3.org/2000/svg" xmlns:xlink="http://www.w3.org/1999/xlink" width="113" height="113" viewBox="0 0 113 113">
  <defs>
    <filter id="Path_982547" x="0" y="0" width="113" height="113" filterUnits="userSpaceOnUse">
      <feOffset dy="3" input="SourceAlpha"/>
      <feGaussianBlur stdDeviation="3" result="blur"/>
      <feFlood flood-opacity="0.161"/>
      <feComposite operator="in" in2="blur"/>
      <feComposite in="SourceGraphic"/>
    </filter>
  </defs>
  <g id="Group_1203931" data-name="Group 1203931" transform="translate(-586.06 -1940.875)">
    <g id="Group_1203729" data-name="Group 1203729">
      <g id="Group_1203497" data-name="Group 1203497" transform="translate(595.061 1946.875)">
        <g id="Group_1172010" data-name="Group 1172010" transform="translate(0)">
          <g id="Group_1171046" data-name="Group 1171046">
            <g id="Group_1148525" data-name="Group 1148525">
              <g transform="matrix(1, 0, 0, 1, -9, -6)" filter="url(#Path_982547)">
                <g id="Path_982547-2" data-name="Path 982547" transform="translate(9 6)" fill="#fff6f9">
                  <path d="M 47.5 93.5 C 41.28937149047852 93.5 35.26533508300781 92.28397369384766 29.59518623352051 89.88570404052734 C 24.11771965026855 87.56893157958984 19.19813346862793 84.25196075439453 14.97309303283691 80.02691650390625 C 10.74804019927979 75.80186462402344 7.431066513061523 70.88229370117188 5.114293098449707 65.40481567382812 C 2.716026782989502 59.73468017578125 1.5 53.71062850952148 1.5 47.5 C 1.5 41.28937149047852 2.716026782989502 35.26533508300781 5.114293098449707 29.59518623352051 C 7.431066513061523 24.11771965026855 10.74804019927979 19.19813346862793 14.97309303283691 14.97309303283691 C 19.19813346862793 10.74804019927979 24.11771965026855 7.431066513061523 29.59518623352051 5.114293098449707 C 35.26533508300781 2.716026782989502 41.28937149047852 1.5 47.5 1.5 C 53.71062850952148 1.5 59.73468017578125 2.716026782989502 65.40481567382812 5.114293098449707 C 70.88229370117188 7.431066513061523 75.80186462402344 10.74804019927979 80.02691650390625 14.97309303283691 C 84.25196075439453 19.19813346862793 87.56893157958984 24.11771965026855 89.88570404052734 29.59518623352051 C 92.28397369384766 35.26533508300781 93.5 41.28937149047852 93.5 47.5 C 93.5 53.71062850952148 92.28397369384766 59.73468017578125 89.88570404052734 65.40481567382812 C 87.56893157958984 70.88229370117188 84.25196075439453 75.80186462402344 80.02691650390625 80.02691650390625 C 75.80186462402344 84.25196075439453 70.88229370117188 87.56893157958984 65.40481567382812 89.88570404052734 C 59.73468017578125 92.28397369384766 53.71062850952148 93.5 47.5 93.5 Z" stroke="none"/>
                  <path d="M 47.5 3 C 41.49121475219727 3 35.66376876831055 4.176155090332031 30.17950439453125 6.495796203613281 C 24.88084411621094 8.736953735351562 20.12152099609375 11.94598388671875 16.03375244140625 16.03375244140625 C 11.94598388671875 20.12152099609375 8.736953735351562 24.88084411621094 6.495796203613281 30.17950439453125 C 4.176155090332031 35.66376876831055 3 41.49121475219727 3 47.5 C 3 53.50878524780273 4.176155090332031 59.33623123168945 6.495796203613281 64.82049560546875 C 8.736953735351562 70.11915588378906 11.94598388671875 74.87847900390625 16.03375244140625 78.96624755859375 C 20.12152099609375 83.05401611328125 24.88084411621094 86.26304626464844 30.17950439453125 88.50419616699219 C 35.66376876831055 90.82384490966797 41.49121475219727 92 47.5 92 C 53.50878524780273 92 59.33623123168945 90.82384490966797 64.82049560546875 88.50419616699219 C 70.11915588378906 86.26304626464844 74.87847900390625 83.05401611328125 78.96624755859375 78.96624755859375 C 83.05401611328125 74.87847900390625 86.26304626464844 70.11915588378906 88.50419616699219 64.82049560546875 C 90.82384490966797 59.33623123168945 92 53.50878524780273 92 47.5 C 92 41.49121475219727 90.82384490966797 35.66376876831055 88.50419616699219 30.17950439453125 C 86.26304626464844 24.88084411621094 83.05401611328125 20.12152099609375 78.96624755859375 16.03375244140625 C 74.87847900390625 11.94598388671875 70.11915588378906 8.736953735351562 64.82049560546875 6.495796203613281 C 59.33623123168945 4.176155090332031 53.50878524780273 3 47.5 3 M 47.5 0 C 73.7335205078125 0 95 21.2664794921875 95 47.5 C 95 73.7335205078125 73.7335205078125 95 47.5 95 C 21.2664794921875 95 0 73.7335205078125 0 47.5 C 0 21.2664794921875 21.2664794921875 0 47.5 0 Z" stroke="none" fill="#8b5e6f"/>
                </g>
              </g>
            </g>
          </g>
        </g>
      </g>
      <g id="refugee_11063844" transform="translate(598.571 1956.238)">
        <g id="Group_1203727" data-name="Group 1203727" transform="translate(16.58 7.5)">
          <circle id="Ellipse_12692" data-name="Ellipse 12692" cx="8.032" cy="8.032" r="8.032" transform="translate(0.098 25.167)" fill="#687daa"/>
          <circle id="Ellipse_12693" data-name="Ellipse 12693" cx="8.032" cy="8.032" r="8.032" transform="translate(33.133 25.167)" fill="#687daa"/>
          <path id="Path_1044524" data-name="Path 1044524" d="M211.805,359.487l-4.138,4.888h-7.887c-6.842-2.445-9.2-10.249-5.528-15.3a3.933,3.933,0,0,0,1.132.171c3.305,0,5.984-4.5,5.984-4.578h1.1A16.421,16.421,0,0,1,211.805,359.487Z" transform="translate(-170.835 -303.101)" fill="#73da8c"/>
          <path id="Path_1044525" data-name="Path 1044525" d="M103.336,364.375H85.229a2.708,2.708,0,0,1-2.709-2.709v-2.18a16.418,16.418,0,0,1,9.338-14.817h1.1c0,.068,2.089,3.584,4.853,4.406A14.623,14.623,0,0,0,103.336,364.375Z" transform="translate(-74.39 -303.101)" fill="#29ce69"/>
          <path id="Path_1044526" data-name="Path 1044526" d="M208.958,344.883a5.994,5.994,0,0,1-7.533,5.788,4.531,4.531,0,0,1,2.349-6h5.179C208.957,344.74,208.958,344.812,208.958,344.883Z" transform="translate(-178.322 -303.101)" fill="#ffcbbe"/>
          <path id="Path_1044527" data-name="Path 1044527" d="M174.7,344.67a13.548,13.548,0,0,0-2.349,6,5.992,5.992,0,0,1-4.446-5.788c0-.072,0-.143,0-.213Z" transform="translate(-149.253 -303.101)" fill="#ffb39d"/>
          <ellipse id="Ellipse_12694" data-name="Ellipse 12694" cx="4.813" cy="4.42" rx="4.813" ry="4.42" transform="translate(39.668 20.039)" fill="#ffcbbe"/>
          <ellipse id="Ellipse_12695" data-name="Ellipse 12695" cx="4.813" cy="4.42" rx="4.813" ry="4.42" transform="translate(0 20.039)" fill="#ffcbbe"/>
          <path id="Path_1044528" data-name="Path 1044528" d="M179.407,75.911a17.407,17.407,0,0,1-5.087,12.208c-17.821,4.552-27.46-16.64-20.66-29.7a21.576,21.576,0,0,1,5.827-.8C170.488,57.62,179.407,65.809,179.407,75.911Z" transform="translate(-134.84 -51.441)" fill="#ffddcf"/>
          <path id="Path_1044529" data-name="Path 1044529" d="M89.681,93.774a20.681,20.681,0,0,1-14.833,6.083c-11,0-19.919-8.19-19.919-18.291,0-8.241,5.934-15.208,14.092-17.5C65.829,76.961,71.671,94.368,89.681,93.774Z" transform="translate(-50.202 -57.096)" fill="#ffcbbe"/>
          <path id="Path_1044530" data-name="Path 1044530" d="M183.882,28.955a15.711,15.711,0,0,1-3.8-.465c-1.394-4.372-3.631-6.882-6.452-8.323v2.59a4.381,4.381,0,0,1-4.382,4.382H154.428c-2.983-6.246-2.4-15.725,3.1-19.465a25.684,25.684,0,0,1,2.989-.174C173.422,7.5,183.882,17.105,183.882,28.955Z" transform="translate(-135.871 -7.5)" fill="#7888af"/>
          <path id="Path_1044531" data-name="Path 1044531" d="M44.255,28.375H41.619a4.381,4.381,0,0,1-4.382-4.382V21.4c-2.817,1.442-5.057,3.958-6.453,8.333a13.681,13.681,0,0,1-3.8.46c0-10.92,8.884-19.933,20.376-21.281C44.044,14.107,42.878,21.557,44.255,28.375Z" transform="translate(-25.698 -8.736)" fill="#687daa"/>
          <path id="Path_1044532" data-name="Path 1044532" d="M242.36,401.967a1.852,1.852,0,0,1-.1-2.617l5.372-5.8,2.717,2.516-5.372,5.8A1.851,1.851,0,0,1,242.36,401.967Z" transform="translate(-214.004 -345.955)" fill="#fad989"/>
          <path id="Path_1044533" data-name="Path 1044533" d="M433.8,401.967a1.852,1.852,0,0,0,.1-2.617l-5.372-5.8-2.717,2.516,5.372,5.8A1.851,1.851,0,0,0,433.8,401.967Z" transform="translate(-375.356 -345.955)" fill="#fbf198"/>
          <path id="Path_1044534" data-name="Path 1044534" d="M354.886,393.55v10.378a3.3,3.3,0,0,1-3.3,3.3h-4.98a7.5,7.5,0,0,1-3.23-11.622l1.74.445Z" transform="translate(-301.716 -345.954)" fill="#ffbe73"/>
          <path id="Path_1044535" data-name="Path 1044535" d="M300.61,407.229h-7.96a3.3,3.3,0,0,1-3.3-3.3V393.55l8.03,2.056A11.388,11.388,0,0,0,300.61,407.229Z" transform="translate(-255.721 -345.954)" fill="#ffa93f"/>
          <path id="Path_1044536" data-name="Path 1044536" d="M356.9,393.55l-2.828,5.151a4.24,4.24,0,0,1-3.66,2.342h-5.268c-1.486-2.656-1.568-5.862,1.1-7.493Z" transform="translate(-303.733 -345.954)" fill="#fbf198"/>
          <path id="Path_1044537" data-name="Path 1044537" d="M297.133,401.043h-1.295a4.24,4.24,0,0,1-3.66-2.342l-2.828-5.151h8.885A11.221,11.221,0,0,0,297.133,401.043Z" transform="translate(-255.721 -345.954)" fill="#fad989"/>
          <ellipse id="Ellipse_12696" data-name="Ellipse 12696" cx="3.619" cy="2.882" rx="3.619" ry="2.882" transform="translate(11.219 27.012)" fill="#ffa1ac"/>
          <ellipse id="Ellipse_12697" data-name="Ellipse 12697" cx="3.619" cy="2.882" rx="3.619" ry="2.882" transform="translate(30.836 27.012)" fill="#ffa1ac"/>
        </g>
        <g id="Group_1203728" data-name="Group 1203728" transform="translate(16.58 7.5)">
          <path id="Path_1044538" data-name="Path 1044538" d="M19.26,234.852a8.03,8.03,0,0,0,11.205,11.4" transform="translate(-17.274 -206.822)" fill="none" stroke="#000" stroke-linecap="round" stroke-linejoin="round" stroke-miterlimit="10" stroke-width="1.5"/>
          <path id="Path_1044539" data-name="Path 1044539" d="M309.416,246.255a8.03,8.03,0,0,0,11.205-11.4" transform="translate(-273.313 -206.821)" fill="none" stroke="#000" stroke-linecap="round" stroke-linejoin="round" stroke-miterlimit="10" stroke-width="1.5"/>
          <path id="Path_1044540" data-name="Path 1044540" d="M280.728,350.7a16.5,16.5,0,0,0-6.787-6.026" transform="translate(-242.211 -303.103)" fill="none" stroke="#000" stroke-linecap="round" stroke-linejoin="round" stroke-miterlimit="10" stroke-width="1.5"/>
          <line id="Line_1220" data-name="Line 1220" x2="17.219" transform="translate(19.711 61.275)" fill="none" stroke="#000" stroke-linecap="round" stroke-linejoin="round" stroke-miterlimit="10" stroke-width="1.5"/>
          <path id="Path_1044541" data-name="Path 1044541" d="M92.648,344.673a16.418,16.418,0,0,0-9.337,14.816v2.18a2.708,2.708,0,0,0,2.708,2.708h4.46" transform="translate(-75.084 -303.103)" fill="none" stroke="#000" stroke-linecap="round" stroke-linejoin="round" stroke-miterlimit="10" stroke-width="1.5"/>
          <path id="Path_1044542" data-name="Path 1044542" d="M167.943,347.517a5.987,5.987,0,0,0,11.971,0" transform="translate(-149.282 -305.597)" fill="none" stroke="#000" stroke-linecap="round" stroke-linejoin="round" stroke-miterlimit="10" stroke-width="1.5"/>
          <path id="Path_1044543" data-name="Path 1044543" d="M373.375,188.918a4.684,4.684,0,0,0,5.305-4.4,4.215,4.215,0,0,0-1.284-3" transform="translate(-329.386 -160.064)" fill="none" stroke="#000" stroke-linecap="round" stroke-linejoin="round" stroke-miterlimit="10" stroke-width="1.5"/>
          <path id="Path_1044544" data-name="Path 1044544" d="M17.864,181.518a4.214,4.214,0,0,0-1.284,3,4.684,4.684,0,0,0,5.305,4.4" transform="translate(-16.58 -160.064)" fill="none" stroke="#000" stroke-linecap="round" stroke-linejoin="round" stroke-miterlimit="10" stroke-width="1.5"/>
          <path id="Path_1044545" data-name="Path 1044545" d="M55.289,177.651a16.927,16.927,0,0,0-.363,3.487c0,10.1,8.918,18.291,19.919,18.291s19.919-8.189,19.919-18.291a16.935,16.935,0,0,0-.364-3.493" transform="translate(-50.198 -156.668)" fill="none" stroke="#000" stroke-linecap="round" stroke-linejoin="round" stroke-miterlimit="10" stroke-width="1.5"/>
          <path id="Path_1044546" data-name="Path 1044546" d="M305.588,407.231h-12.94a3.3,3.3,0,0,1-3.3-3.3V393.552h19.54V403.93A3.3,3.3,0,0,1,305.588,407.231Z" transform="translate(-255.719 -345.956)" fill="none" stroke="#000" stroke-linecap="round" stroke-linejoin="round" stroke-miterlimit="10" stroke-width="1.5"/>
          <path id="Path_1044547" data-name="Path 1044547" d="M196.533,243.028a3.794,3.794,0,0,0-6.532,0" transform="translate(-168.62 -212.356)" fill="none" stroke="#000" stroke-linecap="round" stroke-linejoin="round" stroke-miterlimit="10" stroke-width="1.5"/>
          <path id="Path_1044548" data-name="Path 1044548" d="M134.827,221.467a2.784,2.784,0,0,0,4.2,0" transform="translate(-120.249 -195.087)" fill="none" stroke="#000" stroke-linecap="round" stroke-linejoin="round" stroke-miterlimit="10" stroke-width="1.5"/>
          <path id="Path_1044549" data-name="Path 1044549" d="M268.283,221.467a2.784,2.784,0,0,1-4.2,0" transform="translate(-233.568 -195.087)" fill="none" stroke="#000" stroke-linecap="round" stroke-linejoin="round" stroke-miterlimit="10" stroke-width="1.5"/>
          <path id="Path_1044550" data-name="Path 1044550" d="M65.386,12.536A24.54,24.54,0,0,0,50.347,7.5c-12.9,0-23.364,9.606-23.364,21.454a13.686,13.686,0,0,0,3.8-.459c1.4-4.376,3.636-6.892,6.453-8.334v2.595a4.382,4.382,0,0,0,4.382,4.382H59.073a4.382,4.382,0,0,0,4.382-4.382v-2.59c2.821,1.441,5.057,3.952,6.451,8.323a15.733,15.733,0,0,0,3.805.465A20.31,20.31,0,0,0,68.541,15.5" transform="translate(-25.7 -7.5)" fill="none" stroke="#000" stroke-linecap="round" stroke-linejoin="round" stroke-miterlimit="10" stroke-width="1.5"/>
          <path id="Path_1044551" data-name="Path 1044551" d="M308.887,393.552l-2.828,5.151a4.24,4.24,0,0,1-3.66,2.343h-6.563a4.24,4.24,0,0,1-3.66-2.343l-2.828-5.151" transform="translate(-255.718 -345.956)" fill="none" stroke="#000" stroke-linecap="round" stroke-linejoin="round" stroke-miterlimit="10" stroke-width="1.5"/>
          <path id="Path_1044552" data-name="Path 1044552" d="M447.839,399l2.656,2.868a1.852,1.852,0,1,0,2.717-2.516l-5.372-5.8" transform="translate(-394.67 -345.955)" fill="none" stroke="#000" stroke-linecap="round" stroke-linejoin="round" stroke-miterlimit="10" stroke-width="1.5"/>
          <path id="Path_1044553" data-name="Path 1044553" d="M247.632,393.552l-5.372,5.8a1.852,1.852,0,1,0,2.717,2.516L247.633,399" transform="translate(-214.004 -345.956)" fill="none" stroke="#000" stroke-linecap="round" stroke-linejoin="round" stroke-miterlimit="10" stroke-width="1.5"/>
        </g>
      </g>
    </g>
  </g>
</svg>
