<svg xmlns="http://www.w3.org/2000/svg" xmlns:xlink="http://www.w3.org/1999/xlink" width="113" height="113" viewBox="0 0 113 113">
  <defs>
    <filter id="Path_982547" x="0" y="0" width="113" height="113" filterUnits="userSpaceOnUse">
      <feOffset dy="3" input="SourceAlpha"/>
      <feGaussianBlur stdDeviation="3" result="blur"/>
      <feFlood flood-opacity="0.161"/>
      <feComposite operator="in" in2="blur"/>
      <feComposite in="SourceGraphic"/>
    </filter>
  </defs>
  <g id="Group_1203940" data-name="Group 1203940" transform="translate(-377 -3867.787)">
    <g id="Group_1203741" data-name="Group 1203741">
      <g id="Group_1177682" data-name="Group 1177682" transform="translate(386 3873.787)">
        <g id="Group_1176928" data-name="Group 1176928" transform="translate(0 0)">
          <g id="Group_1172322" data-name="Group 1172322">
            <g id="Group_1164700" data-name="Group 1164700">
              <g id="Group_1160931" data-name="Group 1160931">
                <g id="Group_1160749" data-name="Group 1160749">
                  <g id="Group_1158891" data-name="Group 1158891">
                    <g id="Group_1157406" data-name="Group 1157406">
                      <g id="Group_1155793" data-name="Group 1155793">
                        <g id="Group_1154704" data-name="Group 1154704">
                          <g id="Group_1150790" data-name="Group 1150790">
                            <g id="Group_1154214" data-name="Group 1154214">
                              <g id="Group_1152583" data-name="Group 1152583">
                                <g id="Group_1146973" data-name="Group 1146973">
                                  <g id="Group_1146954" data-name="Group 1146954">
                                    <g transform="matrix(1, 0, 0, 1, -9, -6)" filter="url(#Path_982547)">
                                      <g id="Path_982547-2" data-name="Path 982547" transform="translate(9 6)" fill="#fff6f9">
                                        <path d="M 47.5000114440918 93.49987030029297 C 41.28938293457031 93.49987030029297 35.26534652709961 92.28384399414062 29.5951976776123 89.88558959960938 C 24.11773109436035 87.56881713867188 19.19814491271973 84.25183868408203 14.97310447692871 80.02680206298828 C 10.74805164337158 75.80176544189453 7.43107795715332 70.88218688964844 5.114304542541504 65.40472412109375 C 2.716038227081299 59.73458862304688 1.500011444091797 53.71054840087891 1.500011444091797 47.49993515014648 C 1.500011444091797 41.28932189941406 2.716038227081299 35.26528167724609 5.114304542541504 29.59514808654785 C 7.43107795715332 24.1176815032959 10.74805164337158 19.1981086730957 14.97310447692871 14.97306823730469 C 19.19814491271973 10.74802875518799 24.11773109436035 7.431055068969727 29.5951976776123 5.11428165435791 C 35.26534652709961 2.716028451919556 41.28938293457031 1.500001788139343 47.5000114440918 1.500001788139343 C 53.71063995361328 1.500001788139343 59.73467636108398 2.716028451919556 65.40482330322266 5.11428165435791 C 70.88229370117188 7.431055068969727 75.8018798828125 10.74802875518799 80.02691650390625 14.97306823730469 C 84.25196838378906 19.1981086730957 87.56894683837891 24.1176815032959 89.88571929931641 29.59514808654785 C 92.28398132324219 35.26528167724609 93.50001525878906 41.28932189941406 93.50001525878906 47.49993515014648 C 93.50001525878906 53.71054840087891 92.28398132324219 59.73458862304688 89.88571929931641 65.40472412109375 C 87.56894683837891 70.88218688964844 84.25196838378906 75.80176544189453 80.02691650390625 80.02680206298828 C 75.8018798828125 84.25183868408203 70.88229370117188 87.56881713867188 65.40482330322266 89.88558959960938 C 59.73467636108398 92.28384399414062 53.71063995361328 93.49987030029297 47.5000114440918 93.49987030029297 Z" stroke="none"/>
                                        <path d="M 47.5000114440918 3 C 41.49122619628906 3 35.66378021240234 4.1761474609375 30.17951965332031 6.495796203613281 C 24.880859375 8.7369384765625 20.12153625488281 11.94596862792969 16.03376770019531 16.03373718261719 C 11.94598388671875 20.12149047851562 8.736968994140625 24.88081359863281 6.495811462402344 30.17947387695312 C 4.176162719726562 35.66371917724609 3.000007629394531 41.49116516113281 3.000007629394531 47.49993515014648 C 3.000007629394531 53.50870513916016 4.176162719726562 59.33615112304688 6.495811462402344 64.82039642333984 C 8.736968994140625 70.11905670166016 11.94598388671875 74.87837982177734 16.03376770019531 78.96613311767578 C 20.12153625488281 83.05390167236328 24.880859375 86.26293182373047 30.17951965332031 88.50407409667969 C 35.66378021240234 90.82372283935547 41.49122619628906 91.99987030029297 47.5000114440918 91.99987030029297 C 53.50879669189453 91.99987030029297 59.33624267578125 90.82372283935547 64.82050323486328 88.50407409667969 C 70.11916351318359 86.26293182373047 74.87848663330078 83.05390167236328 78.96625518798828 78.96613311767578 C 83.05403900146484 74.87837982177734 86.2630615234375 70.11905670166016 88.50421142578125 64.82039642333984 C 90.82386016845703 59.33615112304688 92.00001525878906 53.50870513916016 92.00001525878906 47.49993515014648 C 92.00001525878906 41.49116516113281 90.82386016845703 35.66371917724609 88.50421142578125 30.17947387695312 C 86.2630615234375 24.88081359863281 83.05403900146484 20.12149047851562 78.96625518798828 16.03373718261719 C 74.87848663330078 11.94596862792969 70.11916351318359 8.7369384765625 64.82050323486328 6.495796203613281 C 59.33624267578125 4.1761474609375 53.50879669189453 3 47.5000114440918 3 M 47.5000114440918 0 C 73.73353576660156 0 95.00001525878906 21.26644134521484 95.00001525878906 47.49993515014648 C 95.00001525878906 73.73342895507812 73.73353576660156 94.99987030029297 47.5000114440918 94.99987030029297 C 21.26648712158203 94.99987030029297 7.62939453125e-06 73.73342895507812 7.62939453125e-06 47.49993515014648 C 7.62939453125e-06 21.26644134521484 21.26648712158203 0 47.5000114440918 0 Z" stroke="none" fill="#8b5e6f"/>
                                      </g>
                                    </g>
                                  </g>
                                </g>
                              </g>
                            </g>
                          </g>
                        </g>
                      </g>
                    </g>
                  </g>
                </g>
              </g>
            </g>
          </g>
        </g>
      </g>
      <g id="Layer_x0020_1" transform="translate(400.085 3016.109)">
        <path id="Path_1044587" data-name="Path 1044587" d="M51.131,920.614a1.136,1.136,0,0,1-1.136-1.136V919.4h-.821a1.134,1.134,0,0,1,0-2.268h2.775V915.49H49.174a1.135,1.135,0,0,1-1.132-1.136v-3.911a1.132,1.132,0,0,1,1.132-1.132h.821v-.081a1.134,1.134,0,1,1,2.268,0v.081h.821a1.134,1.134,0,1,1,0,2.268H50.309v1.639h2.775a1.139,1.139,0,0,1,1.136,1.136v3.911a1.135,1.135,0,0,1-1.136,1.132h-.821v.081A1.135,1.135,0,0,1,51.131,920.614Zm4.4,14.741H11.3a1.133,1.133,0,0,1-1.136-1.132v-4.74a1.134,1.134,0,0,1,1.136-1.136H22.019L31.609,903H1.136a1.134,1.134,0,1,1,0-2.268H5.328V897.3a5.707,5.707,0,0,1,5.7-5.7h12.3a5.707,5.707,0,0,1,5.7,5.7v3.434h3.06v-9.213H29.73a1.136,1.136,0,1,1,0-2.272h6.989a1.136,1.136,0,1,1,0,2.272H34.359v9.213h3.06V897.3a5.707,5.707,0,0,1,5.7-5.7h12.3a5.71,5.71,0,0,1,5.705,5.7v3.434h4.573a1.134,1.134,0,1,1,0,2.268H34.914l9.89,25.345H55.527a1.134,1.134,0,0,1,1.136,1.136v4.74A1.133,1.133,0,0,1,55.527,935.355Zm-31.08-7.008H42.365l-9.1-23.318Zm-12.007,4.74H54.394v-2.472H12.44ZM7.6,900.734H26.762V897.3a3.438,3.438,0,0,0-3.434-3.434H11.03A3.438,3.438,0,0,0,7.6,897.3Zm32.09,0H58.849V897.3a3.436,3.436,0,0,0-3.434-3.434H43.12a3.436,3.436,0,0,0-3.434,3.434Zm-24.368,23.61a9.99,9.99,0,1,1,9.99-9.99A10,10,0,0,1,15.318,924.344Zm0-17.712a7.722,7.722,0,1,0,7.722,7.722A7.73,7.73,0,0,0,15.318,906.632Zm.821,8.858H13.365a1.136,1.136,0,0,1-1.136-1.136v-3.911a1.133,1.133,0,0,1,1.136-1.132h.818v-.081a1.136,1.136,0,0,1,2.272,0v.081h.818a1.134,1.134,0,1,1,0,2.268H14.5v1.639h2.775a1.136,1.136,0,0,1,1.136,1.136v3.911a1.133,1.133,0,0,1-1.136,1.132h-.818v.081a1.136,1.136,0,1,1-2.272,0V919.4h-.818a1.134,1.134,0,1,1,0-2.268H16.14Zm1.04-25.349a7.57,7.57,0,1,1,7.57-7.57A7.58,7.58,0,0,1,17.179,890.141Zm0-12.872a5.3,5.3,0,1,0,5.3,5.3A5.309,5.309,0,0,0,17.179,877.268Zm32.09,12.872a7.57,7.57,0,1,1,7.57-7.57A7.58,7.58,0,0,1,49.27,890.141Zm0-12.872a5.3,5.3,0,1,0,5.3,5.3A5.309,5.309,0,0,0,49.27,877.268Zm1.861,47.076a9.99,9.99,0,1,1,9.99-9.99A10,10,0,0,1,51.131,924.344Zm0-17.712a7.722,7.722,0,1,0,7.718,7.722A7.73,7.73,0,0,0,51.131,906.632Z" fill="#333" fill-rule="evenodd"/>
        <path id="Path_1044588" data-name="Path 1044588" d="M6624.919,9014.317l-9.1-23.317L6607,9014.317Z" transform="translate(-6582.554 -8085.97)" fill="#58535a" fill-rule="evenodd"/>
        <path id="Path_1044589" data-name="Path 1044589" d="M3403.955,15906H3362v2.472h41.955Z" transform="translate(-3349.56 -14975.385)" fill="#58535a" fill-rule="evenodd"/>
        <path id="Path_1044590" data-name="Path 1044590" d="M11742.811,9431.722v3.912a1.134,1.134,0,0,1-1.135,1.132h-.822v.081a1.134,1.134,0,1,1-2.268,0v-.081h-.82a1.134,1.134,0,0,1,0-2.268h2.773v-1.641h-2.773a1.136,1.136,0,0,1-1.133-1.136v-3.91a1.134,1.134,0,0,1,1.133-1.133h.82v-.08a1.134,1.134,0,1,1,2.268,0v.08h.822a1.134,1.134,0,1,1,0,2.269h-2.775v1.639h2.775A1.137,1.137,0,0,1,11742.811,9431.722Zm-10.811,0a7.721,7.721,0,1,0,7.723-7.722A7.731,7.731,0,0,0,11732,9431.722Z" transform="translate(-11688.591 -8517.368)" fill="#ffa721" fill-rule="evenodd"/>
        <path id="Path_1044591" data-name="Path 1044591" d="M2060.722,9439.444a7.722,7.722,0,1,0-7.722-7.723A7.73,7.73,0,0,0,2060.722,9439.444Zm3.09-7.723v3.912a1.133,1.133,0,0,1-1.136,1.132h-.818v.081a1.136,1.136,0,0,1-2.272,0v-.081h-.818a1.134,1.134,0,1,1,0-2.268h2.775v-1.641h-2.775a1.136,1.136,0,0,1-1.136-1.136v-3.91a1.134,1.134,0,0,1,1.136-1.133h.818v-.08a1.136,1.136,0,1,1,2.272,0v.08h.818a1.134,1.134,0,1,1,0,2.269H2059.9v1.639h2.775A1.136,1.136,0,0,1,2063.812,9431.722Z" transform="translate(-2045.404 -8517.368)" fill="#ffa721" fill-rule="evenodd"/>
        <path id="Path_1044592" data-name="Path 1044592" d="M2053,5980.867h19.166v-3.434a3.439,3.439,0,0,0-3.434-3.434h-12.3a3.438,3.438,0,0,0-3.434,3.434Z" transform="translate(-2045.404 -5080.133)" fill="#1aa1ff" fill-rule="evenodd"/>
        <path id="Path_1044593" data-name="Path 1044593" d="M10726,5977.434v3.434h19.162v-3.434a3.435,3.435,0,0,0-3.433-3.434h-12.3A3.437,3.437,0,0,0,10726,5977.434Z" transform="translate(-10686.313 -5080.133)" fill="#1aa1ff" fill-rule="evenodd"/>
        <g id="Group_1203740" data-name="Group 1203740" transform="translate(11.877 877.268)">
          <path id="Path_1044594" data-name="Path 1044594" d="M11883,1493.3a5.3,5.3,0,1,0,5.3-5.3A5.31,5.31,0,0,0,11883,1493.3Z" transform="translate(-11850.91 -1488)" fill="#ff9e5c" fill-rule="evenodd"/>
          <path id="Path_1044595" data-name="Path 1044595" d="M3215.3,1498.6a5.3,5.3,0,1,0-5.3-5.3A5.309,5.309,0,0,0,3215.3,1498.6Z" transform="translate(-3210 -1488)" fill="#ff9e5c" fill-rule="evenodd"/>
        </g>
      </g>
    </g>
  </g>
</svg>
