<svg xmlns="http://www.w3.org/2000/svg" xmlns:xlink="http://www.w3.org/1999/xlink" width="113" height="113" viewBox="0 0 113 113">
  <defs>
    <filter id="Path_982547" x="0" y="0" width="113" height="113" filterUnits="userSpaceOnUse">
      <feOffset dy="3" input="SourceAlpha"/>
      <feGaussianBlur stdDeviation="3" result="blur"/>
      <feFlood flood-opacity="0.161"/>
      <feComposite operator="in" in2="blur"/>
      <feComposite in="SourceGraphic"/>
    </filter>
  </defs>
  <g id="Group_1203941" data-name="Group 1203941" transform="translate(-695.51 -3867.787)">
    <g id="Group_1203744" data-name="Group 1203744">
      <g id="Group_1177683" data-name="Group 1177683" transform="translate(704.51 3873.787)">
        <g id="Group_1177337" data-name="Group 1177337" transform="translate(0 0)">
          <g id="Group_1176922" data-name="Group 1176922">
            <g id="Group_1172322" data-name="Group 1172322">
              <g id="Group_1164700" data-name="Group 1164700">
                <g id="Group_1160931" data-name="Group 1160931">
                  <g id="Group_1160749" data-name="Group 1160749">
                    <g id="Group_1158891" data-name="Group 1158891">
                      <g id="Group_1157406" data-name="Group 1157406">
                        <g id="Group_1155793" data-name="Group 1155793">
                          <g id="Group_1154704" data-name="Group 1154704">
                            <g id="Group_1150790" data-name="Group 1150790">
                              <g id="Group_1154214" data-name="Group 1154214">
                                <g id="Group_1152583" data-name="Group 1152583">
                                  <g id="Group_1146973" data-name="Group 1146973">
                                    <g id="Group_1146954" data-name="Group 1146954">
                                      <g transform="matrix(1, 0, 0, 1, -9, -6)" filter="url(#Path_982547)">
                                        <g id="Path_982547-2" data-name="Path 982547" transform="translate(9 6)" fill="#fff6f9">
                                          <path d="M 47.5000114440918 93.49987030029297 C 41.28938293457031 93.49987030029297 35.26534652709961 92.28384399414062 29.5951976776123 89.88558959960938 C 24.11773109436035 87.56881713867188 19.19814491271973 84.25183868408203 14.97310447692871 80.02680206298828 C 10.74805164337158 75.80176544189453 7.43107795715332 70.88218688964844 5.114304542541504 65.40472412109375 C 2.716038227081299 59.73458862304688 1.500011444091797 53.71054840087891 1.500011444091797 47.49993515014648 C 1.500011444091797 41.28932189941406 2.716038227081299 35.26528167724609 5.114304542541504 29.59514808654785 C 7.43107795715332 24.1176815032959 10.74805164337158 19.1981086730957 14.97310447692871 14.97306823730469 C 19.19814491271973 10.74802875518799 24.11773109436035 7.431055068969727 29.5951976776123 5.11428165435791 C 35.26534652709961 2.716028451919556 41.28938293457031 1.500001788139343 47.5000114440918 1.500001788139343 C 53.71063995361328 1.500001788139343 59.73467636108398 2.716028451919556 65.40482330322266 5.11428165435791 C 70.88229370117188 7.431055068969727 75.8018798828125 10.74802875518799 80.02691650390625 14.97306823730469 C 84.25196838378906 19.1981086730957 87.56894683837891 24.1176815032959 89.88571929931641 29.59514808654785 C 92.28398132324219 35.26528167724609 93.50001525878906 41.28932189941406 93.50001525878906 47.49993515014648 C 93.50001525878906 53.71054840087891 92.28398132324219 59.73458862304688 89.88571929931641 65.40472412109375 C 87.56894683837891 70.88218688964844 84.25196838378906 75.80176544189453 80.02691650390625 80.02680206298828 C 75.8018798828125 84.25183868408203 70.88229370117188 87.56881713867188 65.40482330322266 89.88558959960938 C 59.73467636108398 92.28384399414062 53.71063995361328 93.49987030029297 47.5000114440918 93.49987030029297 Z" stroke="none"/>
                                          <path d="M 47.5000114440918 3 C 41.49122619628906 3 35.66378021240234 4.1761474609375 30.17951965332031 6.495796203613281 C 24.880859375 8.7369384765625 20.12153625488281 11.94596862792969 16.03376770019531 16.03373718261719 C 11.94598388671875 20.12149047851562 8.736968994140625 24.88081359863281 6.495811462402344 30.17947387695312 C 4.176162719726562 35.66371917724609 3.000007629394531 41.49116516113281 3.000007629394531 47.49993515014648 C 3.000007629394531 53.50870513916016 4.176162719726562 59.33615112304688 6.495811462402344 64.82039642333984 C 8.736968994140625 70.11905670166016 11.94598388671875 74.87837982177734 16.03376770019531 78.96613311767578 C 20.12153625488281 83.05390167236328 24.880859375 86.26293182373047 30.17951965332031 88.50407409667969 C 35.66378021240234 90.82372283935547 41.49122619628906 91.99987030029297 47.5000114440918 91.99987030029297 C 53.50879669189453 91.99987030029297 59.33624267578125 90.82372283935547 64.82050323486328 88.50407409667969 C 70.11916351318359 86.26293182373047 74.87848663330078 83.05390167236328 78.96625518798828 78.96613311767578 C 83.05403900146484 74.87837982177734 86.2630615234375 70.11905670166016 88.50421142578125 64.82039642333984 C 90.82386016845703 59.33615112304688 92.00001525878906 53.50870513916016 92.00001525878906 47.49993515014648 C 92.00001525878906 41.49116516113281 90.82386016845703 35.66371917724609 88.50421142578125 30.17947387695312 C 86.2630615234375 24.88081359863281 83.05403900146484 20.12149047851562 78.96625518798828 16.03373718261719 C 74.87848663330078 11.94596862792969 70.11916351318359 8.7369384765625 64.82050323486328 6.495796203613281 C 59.33624267578125 4.1761474609375 53.50879669189453 3 47.5000114440918 3 M 47.5000114440918 0 C 73.73353576660156 0 95.00001525878906 21.26644134521484 95.00001525878906 47.49993515014648 C 95.00001525878906 73.73342895507812 73.73353576660156 94.99987030029297 47.5000114440918 94.99987030029297 C 21.26648712158203 94.99987030029297 7.62939453125e-06 73.73342895507812 7.62939453125e-06 47.49993515014648 C 7.62939453125e-06 21.26644134521484 21.26648712158203 0 47.5000114440918 0 Z" stroke="none" fill="#8b5e6f"/>
                                        </g>
                                      </g>
                                    </g>
                                  </g>
                                </g>
                              </g>
                            </g>
                          </g>
                        </g>
                      </g>
                    </g>
                  </g>
                </g>
              </g>
            </g>
          </g>
        </g>
      </g>
      <g id="falta-de-vivienda" transform="translate(718 3840.978)">
        <g id="Group_1203742" data-name="Group 1203742" transform="translate(0.996 54.386)">
          <path id="Path_1044596" data-name="Path 1044596" d="M151.334,248.337v22.782a4.157,4.157,0,0,1-4.157,4.157h-29.56a4.157,4.157,0,0,1-4.157-4.157V248.337Z" transform="translate(-99.383 -223.432)" fill="#dff6fd"/>
          <path id="Path_1044597" data-name="Path 1044597" d="M345.393,248.34v22.782a4.157,4.157,0,0,1-4.157,4.157H337.25a4.157,4.157,0,0,0,4.157-4.157V248.34Z" transform="translate(-293.442 -223.435)" fill="#c8effe"/>
          <path id="Path_1044598" data-name="Path 1044598" d="M219.876,325.944H206.8v-17.1a2.071,2.071,0,0,1,2.071-2.071H217.8a2.071,2.071,0,0,1,2.071,2.071v17.1Z" transform="translate(-180.326 -274.101)" fill="#678d98"/>
          <path id="Path_1044599" data-name="Path 1044599" d="M265.667,308.841v17.1h-3.986v-17.1a2.071,2.071,0,0,0-2.071-2.071H263.6A2.071,2.071,0,0,1,265.667,308.841Z" transform="translate(-226.117 -274.102)" fill="#537983"/>
          <path id="Path_1044600" data-name="Path 1044600" d="M119.327,85.779H73.817a1.668,1.668,0,0,1-1.178-2.847L93.37,62.2a4.528,4.528,0,0,1,6.4,0l20.732,20.732A1.668,1.668,0,0,1,119.327,85.779Z" transform="translate(-63.558 -60.875)" fill="#678d98"/>
          <path id="Path_1044601" data-name="Path 1044601" d="M265.748,85.785h-3.986a1.668,1.668,0,0,0,1.178-2.847L242.209,62.206A4.479,4.479,0,0,0,241,61.342a4.526,4.526,0,0,1,5.195.864l20.732,20.732A1.668,1.668,0,0,1,265.748,85.785Z" transform="translate(-209.979 -60.879)" fill="#537983"/>
          <circle id="Ellipse_12701" data-name="Ellipse 12701" cx="9.596" cy="9.596" r="9.596" transform="translate(46.837 0.533)" fill="#fd8087"/>
          <path id="Path_1044602" data-name="Path 1044602" d="M428.867,74.486a9.6,9.6,0,0,1-11.587,9.387,9.6,9.6,0,0,0,0-18.775,9.6,9.6,0,0,1,11.587,9.387Z" transform="translate(-362.84 -64.357)" fill="#fe646f"/>
          <path id="Path_1044603" data-name="Path 1044603" d="M406.936,108.963l-1.077-1.077,1.077-1.077a1.993,1.993,0,0,0-2.818-2.818l-1.077,1.077-1.077-1.077a1.993,1.993,0,0,0-2.818,2.818l1.077,1.077-1.077,1.077a1.993,1.993,0,0,0,2.818,2.818l1.077-1.077,1.077,1.077a1.993,1.993,0,0,0,2.818-2.818Z" transform="translate(-346.608 -97.756)" fill="#dff6fd"/>
          <circle id="Ellipse_12702" data-name="Ellipse 12702" cx="8.836" cy="8.836" r="8.836" transform="translate(0 34.172)" fill="#6fd7a3"/>
          <path id="Path_1044604" data-name="Path 1044604" d="M69.836,326.93a8.842,8.842,0,0,1-10.827,8.61,8.838,8.838,0,0,0,0-17.219,8.842,8.842,0,0,1,10.827,8.609Z" transform="translate(-52.166 -283.923)" fill="#3ec3a4"/>
        </g>
        <g id="Group_1203743" data-name="Group 1203743" transform="translate(0 53.392)">
          <path id="Path_1044605" data-name="Path 1044605" d="M42.462,318.445h-.92V302.337a3.071,3.071,0,0,0-3.067-3.068H29.546a3.071,3.071,0,0,0-3.067,3.068v16.108H19.23a3.164,3.164,0,0,1-2.324-1.021,9.815,9.815,0,1,0-1.52,1.289,5.157,5.157,0,0,0,3.844,1.725H42.462a1,1,0,0,0,0-1.993ZM28.471,302.337a1.076,1.076,0,0,1,1.075-1.075h8.929a1.076,1.076,0,0,1,1.075,1.075v16.108H28.471V302.337ZM1.993,310.605a7.839,7.839,0,1,1,7.839,7.839,7.848,7.848,0,0,1-7.839-7.839Z" transform="translate(0 -266.604)"/>
          <path id="Path_1044606" data-name="Path 1044606" d="M53.6,341.2a8.483,8.483,0,0,1-2.143-.993.612.612,0,0,1-.126-.572.9.9,0,0,1,.587-.714,1.655,1.655,0,0,1,1.558.281,1,1,0,1,0,1.218-1.578,3.722,3.722,0,0,0-1.369-.668v-.27a1,1,0,1,0-1.993,0v.33l-.006,0a2.878,2.878,0,0,0-1.955,2.256,2.553,2.553,0,0,0,.856,2.5,9.854,9.854,0,0,0,2.708,1.3,1.018,1.018,0,0,1,.748,1.206,1.373,1.373,0,0,1-1.363,1.158,2.357,2.357,0,0,1-1.71-.446,1,1,0,0,0-1.091,1.668,4.059,4.059,0,0,0,1.811.725v.3a1,1,0,1,0,1.993,0v-.4a3.417,3.417,0,0,0,2.325-2.672A3.017,3.017,0,0,0,53.6,341.2Z" transform="translate(-42.552 -298.184)"/>
          <path id="Path_1044607" data-name="Path 1044607" d="M124.056,64.516A10.6,10.6,0,0,0,110.9,54.235a1,1,0,1,0,.48,1.934,8.606,8.606,0,1,1-3.717,1.994,1,1,0,1,0-1.344-1.472,10.621,10.621,0,0,0-3.436,7.252l-8.935-8.935a5.531,5.531,0,0,0-7.813,0L65.408,75.739a2.664,2.664,0,0,0,1.883,4.548h2.822v5.12a1,1,0,1,0,1.993,0v-5.12h35.881v21.785a3.164,3.164,0,0,1-3.161,3.161h-1.456a1,1,0,0,0,0,1.993h1.456a5.159,5.159,0,0,0,5.153-5.153V80.287H112.8a2.664,2.664,0,0,0,1.883-4.548l-.647-.648A10.6,10.6,0,0,0,124.056,64.516ZM113.42,77.881a.648.648,0,0,1-.62.414H67.291a.671.671,0,0,1-.474-1.146L87.549,56.417a3.536,3.536,0,0,1,4.994,0l10.638,10.638a10.627,10.627,0,0,0,7.743,7.743l2.35,2.351A.649.649,0,0,1,113.42,77.881Z" transform="translate(-56.036 -53.392)"/>
          <path id="Path_1044608" data-name="Path 1044608" d="M402.016,98.9a2.989,2.989,0,0,0-5.1-2.114l-.373.373-.373-.373a2.989,2.989,0,1,0-4.227,4.227l.373.373-.373.373a2.989,2.989,0,0,0,4.227,4.227l.373-.373.373.373a2.989,2.989,0,0,0,4.227-4.227l-.373-.373.373-.373A2.97,2.97,0,0,0,402.016,98.9Zm-3.362,3.191,1.077,1.077a1,1,0,1,1-1.409,1.409l-1.077-1.077a1,1,0,0,0-1.409,0l-1.077,1.077a1,1,0,0,1-1.409-1.409l1.077-1.077a1,1,0,0,0,0-1.409l-1.077-1.077a1,1,0,1,1,1.409-1.409l1.077,1.077a1,1,0,0,0,1.409,0l1.077-1.077a1,1,0,0,1,1.409,1.409l-1.077,1.077A1,1,0,0,0,398.654,102.094Z" transform="translate(-339.112 -90.266)"/>
          <path id="Path_1044609" data-name="Path 1044609" d="M341.093,289.71v-4.133a1,1,0,0,0-1.993,0v4.133a1,1,0,0,0,1.993,0Z" transform="translate(-294.05 -253.867)"/>
          <path id="Path_1044610" data-name="Path 1044610" d="M159.893,289.71v-4.133a1,1,0,1,0-1.993,0v4.133a1,1,0,1,0,1.993,0Z" transform="translate(-136.923 -253.867)"/>
          <path id="Path_1044611" data-name="Path 1044611" d="M228.647,371.435a1,1,0,0,0-1,1V374a1,1,0,1,0,1.993,0v-1.567A1,1,0,0,0,228.647,371.435Z" transform="translate(-197.407 -329.182)"/>
        </g>
      </g>
    </g>
  </g>
</svg>
