<svg xmlns="http://www.w3.org/2000/svg" xmlns:xlink="http://www.w3.org/1999/xlink" width="113" height="113" viewBox="0 0 113 113">
  <defs>
    <filter id="Path_982547" x="0" y="0" width="113" height="113" filterUnits="userSpaceOnUse">
      <feOffset dy="3" input="SourceAlpha"/>
      <feGaussianBlur stdDeviation="3" result="blur"/>
      <feFlood flood-opacity="0.161"/>
      <feComposite operator="in" in2="blur"/>
      <feComposite in="SourceGraphic"/>
    </filter>
  </defs>
  <g id="Group_1203924" data-name="Group 1203924" transform="translate(-272 -1154.448)">
    <g id="Group_1203681" data-name="Group 1203681">
      <g id="Group_1203496" data-name="Group 1203496" transform="translate(0 -984.148)">
        <g id="Group_1202589" data-name="Group 1202589" transform="translate(281 2144.596)">
          <g id="Group_1172010" data-name="Group 1172010" transform="translate(0)">
            <g id="Group_1171046" data-name="Group 1171046">
              <g id="Group_1148525" data-name="Group 1148525">
                <g transform="matrix(1, 0, 0, 1, -9, -6)" filter="url(#Path_982547)">
                  <g id="Path_982547-2" data-name="Path 982547" transform="translate(9 6)" fill="#f4f4fd">
                    <path d="M 47.5 93.5 C 41.28937149047852 93.5 35.26533508300781 92.28397369384766 29.59518623352051 89.88570404052734 C 24.11771965026855 87.56893157958984 19.19813346862793 84.25196075439453 14.97309303283691 80.02691650390625 C 10.74804019927979 75.80186462402344 7.431066513061523 70.88229370117188 5.114293098449707 65.40481567382812 C 2.716026782989502 59.73468017578125 1.5 53.71062850952148 1.5 47.5 C 1.5 41.28937149047852 2.716026782989502 35.26533508300781 5.114293098449707 29.59518623352051 C 7.431066513061523 24.11771965026855 10.74804019927979 19.19813346862793 14.97309303283691 14.97309303283691 C 19.19813346862793 10.74804019927979 24.11771965026855 7.431066513061523 29.59518623352051 5.114293098449707 C 35.26533508300781 2.716026782989502 41.28937149047852 1.5 47.5 1.5 C 53.71062850952148 1.5 59.73468017578125 2.716026782989502 65.40481567382812 5.114293098449707 C 70.88229370117188 7.431066513061523 75.80186462402344 10.74804019927979 80.02691650390625 14.97309303283691 C 84.25196075439453 19.19813346862793 87.56893157958984 24.11771965026855 89.88570404052734 29.59518623352051 C 92.28397369384766 35.26533508300781 93.5 41.28937149047852 93.5 47.5 C 93.5 53.71062850952148 92.28397369384766 59.73468017578125 89.88570404052734 65.40481567382812 C 87.56893157958984 70.88229370117188 84.25196075439453 75.80186462402344 80.02691650390625 80.02691650390625 C 75.80186462402344 84.25196075439453 70.88229370117188 87.56893157958984 65.40481567382812 89.88570404052734 C 59.73468017578125 92.28397369384766 53.71062850952148 93.5 47.5 93.5 Z" stroke="none"/>
                    <path d="M 47.5 3 C 41.49121475219727 3 35.66376876831055 4.176155090332031 30.17950439453125 6.495796203613281 C 24.88084411621094 8.736953735351562 20.12152099609375 11.94598388671875 16.03375244140625 16.03375244140625 C 11.94598388671875 20.12152099609375 8.736953735351562 24.88084411621094 6.495796203613281 30.17950439453125 C 4.176155090332031 35.66376876831055 3 41.49121475219727 3 47.5 C 3 53.50878524780273 4.176155090332031 59.33623123168945 6.495796203613281 64.82049560546875 C 8.736953735351562 70.11915588378906 11.94598388671875 74.87847900390625 16.03375244140625 78.96624755859375 C 20.12152099609375 83.05401611328125 24.88084411621094 86.26304626464844 30.17950439453125 88.50419616699219 C 35.66376876831055 90.82384490966797 41.49121475219727 92 47.5 92 C 53.50878524780273 92 59.33623123168945 90.82384490966797 64.82049560546875 88.50419616699219 C 70.11915588378906 86.26304626464844 74.87847900390625 83.05401611328125 78.96624755859375 78.96624755859375 C 83.05401611328125 74.87847900390625 86.26304626464844 70.11915588378906 88.50419616699219 64.82049560546875 C 90.82384490966797 59.33623123168945 92 53.50878524780273 92 47.5 C 92 41.49121475219727 90.82384490966797 35.66376876831055 88.50419616699219 30.17950439453125 C 86.26304626464844 24.88084411621094 83.05401611328125 20.12152099609375 78.96624755859375 16.03375244140625 C 74.87847900390625 11.94598388671875 70.11915588378906 8.736953735351562 64.82049560546875 6.495796203613281 C 59.33623123168945 4.176155090332031 53.50878524780273 3 47.5 3 M 47.5 0 C 73.7335205078125 0 95 21.2664794921875 95 47.5 C 95 73.7335205078125 73.7335205078125 95 47.5 95 C 21.2664794921875 95 0 73.7335205078125 0 47.5 C 0 21.2664794921875 21.2664794921875 0 47.5 0 Z" stroke="none" fill="#6f6e88"/>
                  </g>
                </g>
              </g>
            </g>
          </g>
        </g>
      </g>
      <g id="high-temperature_5641632" transform="translate(291.354 1178.164)">
        <g id="Group_1203709" data-name="Group 1203709" transform="translate(9.204 6.424)">
          <path id="Path_1044395" data-name="Path 1044395" d="M60.416,264.438a7.739,7.739,0,0,0-7.233-10.49H26.563a7.739,7.739,0,0,0-7.233,10.49,10.73,10.73,0,0,0,7.233,18.657h1.645l11.665-.98,11.665.98h1.645a10.73,10.73,0,0,0,7.233-18.657Z" transform="translate(-15.833 -230.827)" fill="#424952"/>
          <g id="Group_1203697" data-name="Group 1203697" transform="translate(10.012 38.009)">
            <path id="Path_1044396" data-name="Path 1044396" d="M129.9,412.1a14.266,14.266,0,0,0-5.966-8.988c-.355,4.117-8.016,6.448-8.016,6.448s-7.662-2.331-8.016-6.448a14.266,14.266,0,0,0-5.966,8.988,2.355,2.355,0,0,0,2.318,2.8h23.33A2.355,2.355,0,0,0,129.9,412.1Z" transform="translate(-101.891 -400.65)" fill="#ff6e80"/>
            <path id="Path_1044397" data-name="Path 1044397" d="M169.6,384.384a14.261,14.261,0,0,0-16.033,0c.355,4.117,8.016,7.349,8.016,7.349S169.241,388.5,169.6,384.384Z" transform="translate(-147.551 -381.918)" fill="#cc9e83"/>
          </g>
          <path id="Path_1044398" data-name="Path 1044398" d="M106.638,412.1a14.192,14.192,0,0,1,2.831-6.079,4.727,4.727,0,0,1-1.566-2.909,14.266,14.266,0,0,0-5.966,8.988,2.355,2.355,0,0,0,2.318,2.8h4.7A2.355,2.355,0,0,1,106.638,412.1Z" transform="translate(-91.879 -362.641)" fill="#f8475e"/>
          <path id="Path_1044399" data-name="Path 1044399" d="M158.264,384.384a14.18,14.18,0,0,1,5.666-2.271,14.335,14.335,0,0,0-2.351-.2,14.191,14.191,0,0,0-8.016,2.466,5.3,5.3,0,0,0,1.5,2.993A14.338,14.338,0,0,1,158.264,384.384Z" transform="translate(-137.539 -343.909)" fill="#b8866b"/>
          <g id="Group_1203699" data-name="Group 1203699" transform="translate(2.639 5.843)">
            <g id="Group_1203698" data-name="Group 1203698" transform="translate(0 13.106)">
              <circle id="Ellipse_12672" data-name="Ellipse 12672" cx="4.179" cy="4.179" r="4.179" fill="#b8866b"/>
            </g>
            <circle id="Ellipse_12673" data-name="Ellipse 12673" cx="17.297" cy="17.297" r="17.297" transform="translate(4.105)" fill="#cc9e83"/>
            <path id="Path_1044400" data-name="Path 1044400" d="M79.786,122.738a17.3,17.3,0,0,1,14.3-17.038,17.3,17.3,0,1,0,0,34.075A17.3,17.3,0,0,1,79.786,122.738Z" transform="translate(-69.693 -105.442)" fill="#b8866b"/>
          </g>
          <g id="Group_1203700" data-name="Group 1203700" transform="translate(3.752)">
            <path id="Path_1044401" data-name="Path 1044401" d="M88.662,75.508a12.6,12.6,0,0,1-3.3-.439c-2.754-9.4-9.288-9.7-16.984-9.7-7.746,0-14.214.3-16.968,9.7a11.08,11.08,0,0,1-3.32.439,20.288,20.288,0,1,1,40.576,0Z" transform="translate(-48.086 -55.22)" fill="#4e5660"/>
            <path id="Path_1044402" data-name="Path 1044402" d="M74.275,56.093A20.3,20.3,0,0,0,48.086,75.508a11.08,11.08,0,0,0,3.32-.439c2.016-6.884,6.023-8.889,11.065-9.47A20.339,20.339,0,0,1,74.275,56.093Z" transform="translate(-48.086 -55.22)" fill="#424952"/>
          </g>
          <g id="Group_1203701" data-name="Group 1203701" transform="translate(14.239 8.061)">
            <path id="Path_1044403" data-name="Path 1044403" d="M154.57,135.345h-13.1a3.253,3.253,0,0,1-3.253-3.253v-4.331a3.253,3.253,0,0,1,3.253-3.253h13.1a3.253,3.253,0,0,1,3.253,3.253v4.331A3.253,3.253,0,0,1,154.57,135.345Z" transform="translate(-138.22 -124.508)" fill="#7acefa"/>
            <path id="Path_1044404" data-name="Path 1044404" d="M143.351,132.092v-4.331a3.253,3.253,0,0,1,3.253-3.253h-5.13a3.253,3.253,0,0,0-3.253,3.253v4.331a3.253,3.253,0,0,0,3.253,3.253h5.13A3.253,3.253,0,0,1,143.351,132.092Z" transform="translate(-138.221 -124.508)" fill="#49bdfc"/>
          </g>
          <g id="Group_1203705" data-name="Group 1203705" transform="translate(11.61 24.529)">
            <g id="Group_1203704" data-name="Group 1203704" transform="translate(0)">
              <g id="Group_1203702" data-name="Group 1203702">
                <ellipse id="Ellipse_12674" data-name="Ellipse 12674" cx="3.415" cy="2.72" rx="3.415" ry="2.72" fill="#ffa1ac"/>
              </g>
              <g id="Group_1203703" data-name="Group 1203703" transform="translate(18.512)">
                <ellipse id="Ellipse_12675" data-name="Ellipse 12675" cx="3.415" cy="2.72" rx="3.415" ry="2.72" fill="#ffa1ac"/>
              </g>
            </g>
          </g>
          <g id="Group_1203708" data-name="Group 1203708" transform="translate(39.468 3.349)">
            <g id="Group_1203706" data-name="Group 1203706">
              <path id="Path_1044405" data-name="Path 1044405" d="M363.277,84a8.208,8.208,0,0,0-8.208,8.208v20.2a6.463,6.463,0,0,0,1.587,4.242,10.036,10.036,0,0,1,2.465,6.588v4.473l4.156.472,4.156-.472V123.24a10.036,10.036,0,0,1,2.465-6.588,6.463,6.463,0,0,0,1.587-4.242v-20.2A8.208,8.208,0,0,0,363.277,84Z" transform="translate(-355.069 -84.004)" fill="#eeecff"/>
              <path id="Path_1044406" data-name="Path 1044406" d="M359.122,123.24v4.473l4.156.472V88.16a4.156,4.156,0,0,1,2.443-3.786,8.214,8.214,0,0,0-10.651,7.838v20.2a6.463,6.463,0,0,0,1.587,4.242A10.037,10.037,0,0,1,359.122,123.24Z" transform="translate(-355.07 -84.004)" fill="#d3d3ff"/>
            </g>
            <g id="Group_1203707" data-name="Group 1203707" transform="translate(4.052 43.709)">
              <path id="Path_1044407" data-name="Path 1044407" d="M398.208,459.7H389.9v1.053a4.156,4.156,0,1,0,8.312,0V459.7Z" transform="translate(-389.896 -459.696)" fill="#ff6e80"/>
              <path id="Path_1044408" data-name="Path 1044408" d="M394.051,460.749V459.7H389.9v1.053a4.155,4.155,0,0,0,6.234,3.6A4.154,4.154,0,0,1,394.051,460.749Z" transform="translate(-389.895 -459.696)" fill="#f8475e"/>
            </g>
          </g>
        </g>
        <g id="Group_1203711" data-name="Group 1203711" transform="translate(8.331)">
          <path id="Path_1044409" data-name="Path 1044409" d="M9.051,94.187a.873.873,0,0,0,1.637-.606,9.869,9.869,0,0,1,2.6-10.705.873.873,0,0,0,.227-.955,6.868,6.868,0,0,1,.328-5.613,5.015,5.015,0,0,0,1.94.488,18.254,18.254,0,0,0,9.435,11.264,15.2,15.2,0,0,0-6.815,9.855,3.19,3.19,0,0,0,.258,2.018,9.886,9.886,0,0,1-6.034-3.155.873.873,0,1,0-1.293,1.173,11.63,11.63,0,0,0,8.6,3.81h26.62a11.476,11.476,0,0,0,6.383-1.912,5.026,5.026,0,0,0,8.971-3.117V91.207a9.163,9.163,0,0,1,2.25-6.015,7.335,7.335,0,0,0,1.8-4.815V63.12a.873.873,0,1,0-1.745,0V80.377a5.589,5.589,0,0,1-1.373,3.669,10.909,10.909,0,0,0-2.679,7.16v3.6H57.752V78.2h2.967a.873.873,0,1,0,0-1.745H57.752v-2.3h2.967a.873.873,0,1,0,0-1.745H57.752v-2.3h2.967a.873.873,0,1,0,0-1.745H57.752v-2.3h2.967a.873.873,0,1,0,0-1.745H57.752V59.9a.873.873,0,1,0-1.745,0V94.807H53.6v-3.6a10.909,10.909,0,0,0-2.679-7.16,5.59,5.59,0,0,1-1.373-3.669v-20.2a7.335,7.335,0,0,1,14.6-1.011.873.873,0,1,0,1.729-.238A9.076,9.076,0,0,0,49.32,55.154a21.36,21.36,0,0,0-6.486-5.111,20.934,20.934,0,0,0-9.591-2.294A21.184,21.184,0,0,0,12.088,68.584a5.041,5.041,0,0,0,.328,6.7,8.612,8.612,0,0,0-.72,6.7,11.613,11.613,0,0,0-2.645,12.2ZM12.715,71.75a3.293,3.293,0,0,1,.655-1.974,13.139,13.139,0,0,0,1.832-.162,18.25,18.25,0,0,0,.161,5.376A3.312,3.312,0,0,1,12.715,71.75Zm4.105.011a16.561,16.561,0,0,1,.274-2.992c.007-.018.014-.035.019-.053,1.094-3.734,2.843-6.153,5.456-7.508v3.059A4.13,4.13,0,0,0,26.7,68.392h13.1a4.13,4.13,0,0,0,4.126-4.126V61.209A9.422,9.422,0,0,1,47.8,64.94V79.372a16.368,16.368,0,0,1-8.749,7.76.875.875,0,0,0-.143.054A16.445,16.445,0,0,1,16.82,71.761ZM42.173,59.936v4.331a2.383,2.383,0,0,1-2.38,2.38H26.7a2.383,2.383,0,0,1-2.38-2.38V59.936a2.383,2.383,0,0,1,2.38-2.38h13.1A2.383,2.383,0,0,1,42.173,59.936ZM33.244,89.93a18.175,18.175,0,0,0,5.99-1.015q.55.276,1.068.6c-.7,2.607-5,5.046-7.058,5.98-2.063-.934-6.359-3.373-7.058-5.98q.518-.323,1.069-.6a18.091,18.091,0,0,0,5.989,1.015ZM20.117,98.256a13.414,13.414,0,0,1,4.591-7.675,10.775,10.775,0,0,0,4.173,4.458A26.243,26.243,0,0,0,32.9,97.25a.872.872,0,0,0,.678,0,26.243,26.243,0,0,0,4.024-2.211,10.775,10.775,0,0,0,4.173-4.458,13.414,13.414,0,0,1,4.591,7.675,1.457,1.457,0,0,1-.306,1.213,1.49,1.49,0,0,1-1.156.547H21.579a1.49,1.49,0,0,1-1.156-.547,1.456,1.456,0,0,1-.306-1.213Zm40.045-1.7v.18a3.284,3.284,0,1,1-6.567,0v-.18ZM49.6,85.192a9.163,9.163,0,0,1,2.25,6.015v5.526A5.007,5.007,0,0,0,52.1,98.3a9.712,9.712,0,0,1-4.28,1.631,3.19,3.19,0,0,0,.259-2.021,15.2,15.2,0,0,0-6.81-9.852,18.147,18.147,0,0,0,6.78-5.776A7.332,7.332,0,0,0,49.6,85.192Zm-16.356-35.7a19.263,19.263,0,0,1,15.2,7.334,9.028,9.028,0,0,0-.643,3.35v1.836a11.009,11.009,0,0,0-3.937-2.753,4.132,4.132,0,0,0-4.069-3.451H26.7a4.132,4.132,0,0,0-4.069,3.446c-3.421,1.431-5.677,4.153-7.047,8.5a9.589,9.589,0,0,1-1.731.253A19.44,19.44,0,0,1,33.244,49.494Z" transform="translate(-8.331 -42.194)"/>
          <path id="Path_1044410" data-name="Path 1044410" d="M417.973.873V5.5a.873.873,0,1,0,1.745,0V.873a.873.873,0,1,0-1.745,0Z" transform="translate(-370.314)"/>
          <path id="Path_1044411" data-name="Path 1044411" d="M454.641,19.756a.872.872,0,0,0,1.181-.357l2.072-3.867a.873.873,0,0,0-1.538-.824l-2.072,3.867A.873.873,0,0,0,454.641,19.756Z" transform="translate(-402.309 -12.59)"/>
          <path id="Path_1044412" data-name="Path 1044412" d="M364.706,14.35a.873.873,0,0,0-.357,1.181l2.072,3.867a.873.873,0,1,0,1.538-.824l-2.072-3.867A.873.873,0,0,0,364.706,14.35Z" transform="translate(-322.838 -12.589)"/>
          <g id="Group_1203710" data-name="Group 1203710" transform="translate(14.78 29.488)">
            <path id="Path_1044413" data-name="Path 1044413" d="M196.866,276.286a.872.872,0,1,0,1.432-1,4.448,4.448,0,0,0-7.6,0,.872.872,0,1,0,1.432,1,2.714,2.714,0,0,1,4.732,0Z" transform="translate(-184.127 -270.864)"/>
            <path id="Path_1044414" data-name="Path 1044414" d="M140.781,253.674a.873.873,0,0,0-1.231.085,1.755,1.755,0,0,1-2.649,0,.873.873,0,1,0-1.316,1.147,3.5,3.5,0,0,0,5.28,0,.872.872,0,0,0-.084-1.231Z" transform="translate(-135.371 -253.459)"/>
            <path id="Path_1044415" data-name="Path 1044415" d="M267.481,256.108a3.5,3.5,0,0,0,2.64-1.2.873.873,0,0,0-1.316-1.147,1.755,1.755,0,0,1-2.649,0,.873.873,0,1,0-1.316,1.147A3.5,3.5,0,0,0,267.481,256.108Z" transform="translate(-249.588 -253.459)"/>
          </g>
        </g>
      </g>
    </g>
  </g>
</svg>
