<svg xmlns="http://www.w3.org/2000/svg" width="43.93" height="35.918" viewBox="0 0 43.93 35.918">
  <g id="Group_1203978" data-name="Group 1203978" transform="translate(-285.752 -5656.923)">
    <g id="empathy_10285163" transform="translate(278.852 5603.43)">
      <line id="Line_1195" data-name="Line 1195" y2="12.017" transform="translate(11.506 76.794)" fill="none" stroke="#000" stroke-linecap="round" stroke-linejoin="round" stroke-miterlimit="10" stroke-width="1.2"/>
      <path id="Path_1044317" data-name="Path 1044317" d="M127.816,126.9v.793a.459.459,0,0,1-.459.459H127" transform="translate(-109.225 -66.543)" fill="none" stroke="#000" stroke-linecap="round" stroke-linejoin="round" stroke-miterlimit="10" stroke-width="1.2"/>
      <path id="Path_1044318" data-name="Path 1044318" d="M328.855,67.447h0a4.426,4.426,0,0,1-4.4-3.986l-.405-4.052a4.834,4.834,0,0,1,4.81-5.315h0a4.834,4.834,0,0,1,4.81,5.315l-.405,4.052A4.426,4.426,0,0,1,328.855,67.447Z" transform="translate(-289.308 0)" fill="none" stroke="#000" stroke-linecap="round" stroke-linejoin="round" stroke-miterlimit="10" stroke-width="1.2"/>
      <line id="Line_1196" data-name="Line 1196" x2="1.241" transform="translate(42.313 70.118)" fill="none" stroke="#000" stroke-linecap="round" stroke-linejoin="round" stroke-miterlimit="10" stroke-width="1.2"/>
      <path id="Path_1044319" data-name="Path 1044319" d="M277.365,243.185v15.548a.43.43,0,0,1-.43.43H256.43a.43.43,0,0,1-.43-.43V244.768a4.3,4.3,0,0,1,4.3-4.3h6.14" transform="translate(-227.135 -170.351)" fill="none" stroke="#000" stroke-linecap="round" stroke-linejoin="round" stroke-miterlimit="10" stroke-width="1.2"/>
      <line id="Line_1197" data-name="Line 1197" y2="12.017" transform="translate(32.87 76.794)" fill="none" stroke="#000" stroke-linecap="round" stroke-linejoin="round" stroke-miterlimit="10" stroke-width="1.2"/>
      <line id="Line_1198" data-name="Line 1198" y2="12.017" transform="translate(46.223 76.794)" fill="none" stroke="#000" stroke-linecap="round" stroke-linejoin="round" stroke-miterlimit="10" stroke-width="1.2"/>
      <path id="Path_1044320" data-name="Path 1044320" d="M376.315,117.19v.793a.459.459,0,0,1-.459.459H375.5" transform="translate(-336.36 -57.671)" fill="none" stroke="#000" stroke-linecap="round" stroke-linejoin="round" stroke-miterlimit="10" stroke-width="1.2"/>
      <path id="Path_1044321" data-name="Path 1044321" d="M366.254,167.784a1.763,1.763,0,0,1,2.406,0" transform="translate(-327.91 -103.482)" fill="none" stroke="#000" stroke-linecap="round" stroke-linejoin="round" stroke-miterlimit="10" stroke-width="1.2"/>
      <path id="Path_1044322" data-name="Path 1044322" d="M426.844,212.078h1.381a1.29,1.29,0,0,1,1.29,1.29v1.427a1.29,1.29,0,0,0,1.29,1.29h1.427a1.29,1.29,0,0,0,1.29-1.29v-2.716a2.671,2.671,0,0,0-2.671-2.671h-1.335A2.67,2.67,0,0,0,426.844,212.078Z" transform="translate(-383.291 -141.96)" fill="none" stroke="#000" stroke-linecap="round" stroke-linejoin="round" stroke-miterlimit="10" stroke-width="1.2"/>
      <path id="Path_1044323" data-name="Path 1044323" d="M40.4,64.745l3.1,2.623a.333.333,0,0,0,.431,0l6.509-5.517h0a4.39,4.39,0,0,0,1.556-3.281,4.4,4.4,0,0,0-8.112-2.437.2.2,0,0,1-.337,0,4.4,4.4,0,1,0-6.556,5.718h0l1.068.9" transform="translate(-25.528 -0.001)" fill="none" stroke="#000" stroke-linecap="round" stroke-linejoin="round" stroke-miterlimit="10" stroke-width="1.2"/>
      <path id="Path_1044324" data-name="Path 1044324" d="M209.4,291.384v-3.892a.43.43,0,0,1,.43-.43h3.586" transform="translate(-184.545 -212.939)" fill="none" stroke="#000" stroke-linecap="round" stroke-linejoin="round" stroke-miterlimit="10" stroke-width="1.2"/>
      <path id="Path_1044325" data-name="Path 1044325" d="M33.163,240.469H11.8a4.3,4.3,0,0,0-4.3,4.3v13.965a.43.43,0,0,0,.43.43h16.5a.43.43,0,0,0,.43-.43v-6.927" transform="translate(0 -170.351)" fill="none" stroke="#000" stroke-linecap="round" stroke-linejoin="round" stroke-miterlimit="10" stroke-width="1.2"/>
    </g>
  </g>
</svg>
