<svg xmlns="http://www.w3.org/2000/svg" xmlns:xlink="http://www.w3.org/1999/xlink" width="118" height="118" viewBox="0 0 118 118">
  <defs>
    <filter id="Path_982547" x="0" y="0" width="118" height="118" filterUnits="userSpaceOnUse">
      <feOffset dy="3" input="SourceAlpha"/>
      <feGaussianBlur stdDeviation="3" result="blur"/>
      <feFlood flood-opacity="0.161"/>
      <feComposite operator="in" in2="blur"/>
      <feComposite in="SourceGraphic"/>
    </filter>
  </defs>
  <g id="Group_1203987" data-name="Group 1203987" transform="translate(-204.5 -4681.832)">
    <g id="Group_1203899" data-name="Group 1203899">
      <g id="Group_1203665" data-name="Group 1203665" transform="translate(213.5 4687.832)">
        <g id="Group_1178314" data-name="Group 1178314">
          <g id="Group_1173988" data-name="Group 1173988">
            <g id="Group_1172010" data-name="Group 1172010">
              <g id="Group_1171046" data-name="Group 1171046">
                <g id="Group_1148525" data-name="Group 1148525">
                  <g transform="matrix(1, 0, 0, 1, -9, -6)" filter="url(#Path_982547)">
                    <g id="Path_982547-2" data-name="Path 982547" transform="translate(9 6)" fill="#f7fbfc">
                      <path d="M 50 98.5 C 43.45188522338867 98.5 37.10042953491211 97.21787261962891 31.12207221984863 94.68923950195312 C 25.34691429138184 92.24655914306641 20.15997123718262 88.74931335449219 15.70532894134521 84.29468536376953 C 11.2506856918335 79.84004211425781 7.753442764282227 74.65309906005859 5.310757160186768 68.8779296875 C 2.782128572463989 62.89957046508789 1.5 56.54811477661133 1.5 50 C 1.5 43.45188522338867 2.782128572463989 37.10042953491211 5.310757160186768 31.12207221984863 C 7.753442764282227 25.34691429138184 11.2506856918335 20.15997123718262 15.70532894134521 15.70532894134521 C 20.15997123718262 11.2506856918335 25.34691429138184 7.753442764282227 31.12207221984863 5.310757160186768 C 37.10042953491211 2.782128572463989 43.45188522338867 1.5 50 1.5 C 56.54811477661133 1.5 62.89957046508789 2.782128572463989 68.8779296875 5.310757160186768 C 74.65309906005859 7.753442764282227 79.84004211425781 11.2506856918335 84.29468536376953 15.70532894134521 C 88.74931335449219 20.15997123718262 92.24655914306641 25.34691429138184 94.68923950195312 31.12207221984863 C 97.21787261962891 37.10042953491211 98.5 43.45188522338867 98.5 50 C 98.5 56.54811477661133 97.21787261962891 62.89957046508789 94.68923950195312 68.8779296875 C 92.24655914306641 74.65309906005859 88.74931335449219 79.84004211425781 84.29468536376953 84.29468536376953 C 79.84004211425781 88.74931335449219 74.65309906005859 92.24655914306641 68.8779296875 94.68923950195312 C 62.89957046508789 97.21787261962891 56.54811477661133 98.5 50 98.5 Z" stroke="none"/>
                      <path d="M 50 3 C 43.65372467041016 3 37.49886322021484 4.242263793945312 31.70639801025391 6.6922607421875 C 26.11003112792969 9.059326171875 21.08335113525391 12.44861602783203 16.76598358154297 16.76598358154297 C 12.44861602783203 21.08335113525391 9.059326171875 26.11003112792969 6.6922607421875 31.70639801025391 C 4.242263793945312 37.49886322021484 3 43.65372467041016 3 50 C 3 56.34627532958984 4.242263793945312 62.50113677978516 6.6922607421875 68.29360198974609 C 9.059326171875 73.88996887207031 12.44861602783203 78.91666412353516 16.76598358154297 83.23401641845703 C 21.08335113525391 87.55138397216797 26.11003112792969 90.940673828125 31.70639801025391 93.3077392578125 C 37.49886322021484 95.75773620605469 43.65372467041016 97 50 97 C 56.34627532958984 97 62.50113677978516 95.75773620605469 68.29360198974609 93.3077392578125 C 73.88996887207031 90.940673828125 78.91666412353516 87.55138397216797 83.23401641845703 83.23401641845703 C 87.55138397216797 78.91666412353516 90.940673828125 73.88996887207031 93.3077392578125 68.29360198974609 C 95.75773620605469 62.50113677978516 97 56.34627532958984 97 50 C 97 43.65372467041016 95.75773620605469 37.49886322021484 93.3077392578125 31.70639801025391 C 90.940673828125 26.11003112792969 87.55138397216797 21.08335113525391 83.23401641845703 16.76598358154297 C 78.91666412353516 12.44861602783203 73.88996887207031 9.059326171875 68.29360198974609 6.6922607421875 C 62.50113677978516 4.242263793945312 56.34627532958984 3 50 3 M 50 0 C 77.61424255371094 0 100 22.38577270507812 100 50 C 100 77.61424255371094 77.61424255371094 100 50 100 C 22.38577270507812 100 0 77.61424255371094 0 50 C 0 22.38577270507812 22.38577270507812 0 50 0 Z" stroke="none" fill="#62797e"/>
                    </g>
                  </g>
                </g>
              </g>
            </g>
          </g>
        </g>
      </g>
      <g id="parent_17773132" transform="translate(210.68 4671.509)">
        <g id="Group_1203898" data-name="Group 1203898" transform="translate(23.842 37.248)">
          <path id="Path_1045006" data-name="Path 1045006" d="M270.92,280.26c3.936,1.333,5.888,2.687,3.921,5.619l-5.1-1.421Z" transform="translate(-238.855 -249.743)" fill="#fdcc9a" fill-rule="evenodd"/>
          <path id="Path_1045007" data-name="Path 1045007" d="M168.464,240.522l12.592,1.321,1.449-5.192L166.96,231.07A17.277,17.277,0,0,1,168.464,240.522Z" transform="translate(-149.313 -206.888)" fill="#196e6b" fill-rule="evenodd"/>
          <path id="Path_1045008" data-name="Path 1045008" d="M181.841,239.046l.665-2.384L166.96,231.08a16.051,16.051,0,0,1,1.584,6.32Z" transform="translate(-149.313 -206.897)" fill="#157d7e" fill-rule="evenodd"/>
          <path id="Path_1045009" data-name="Path 1045009" d="M51.492,199.024l-7.236-2.764q-5.919.433-8.105,12.843l-.585,12.091a3.8,3.8,0,0,0,3.753,3.984l14.077.143.511-14.392Q54.785,203.936,51.492,199.024Z" transform="translate(-34.837 -176.561)" fill="#00989f" fill-rule="evenodd"/>
          <path id="Path_1045010" data-name="Path 1045010" d="M43.792,196.69q-5.543.871-7.641,12.789l-.585,12.091a3.8,3.8,0,0,0,3.753,3.984h4.2c1.073,0-1.986-.412-2.724-1.194a3.673,3.673,0,0,1-1.029-2.79l.585-12.091q1.675-9.507,5.542-11.986Z" transform="translate(-34.837 -176.936)" fill="#157d7e" fill-rule="evenodd"/>
          <path id="Path_1045011" data-name="Path 1045011" d="M109.847,91.024l-.953,4.03c-3.132.27-5.206-.161-7.236-2.764l-.209-.274.165-.613a5.111,5.111,0,0,0,4.545-6.254c-.493-3.8-2.173-6.243-.332-5.122l4.509-3.107,7.185,1.9C116.573,89.458,118.209,93.219,109.847,91.024Z" transform="translate(-92.24 -72.592)" fill="#e4a978" fill-rule="evenodd"/>
          <path id="Path_1045012" data-name="Path 1045012" d="M102.14,91.694l.077-.281a5.111,5.111,0,0,0,4.545-6.254c-.493-3.8-2.173-6.243-.332-5.122l4.509-3.107,4.816,1.274c-.629,9.164.314,12.336-7.52,10.28l-.953,4.03A8.127,8.127,0,0,1,102.14,91.694Z" transform="translate(-92.841 -72.6)" fill="#fdcc9a" fill-rule="evenodd"/>
          <path id="Path_1045013" data-name="Path 1045013" d="M108.463,53.894l.69-2.519q5.865,1.878,8.2-4.129c.916-2.362-.008-4.579-3.483-3.757-4.746,1.124-8.784-2.326-12.405,2.672-4.312,5.954,1.705,9.01-1.333,15.973a5.112,5.112,0,0,0,4.634-6.262q-.74-5.707,2.022-4.024A3.737,3.737,0,0,1,108.463,53.894Z" transform="translate(-90.84 -43.314)" fill="#b78b40" fill-rule="evenodd"/>
          <path id="Path_1045014" data-name="Path 1045014" d="M268.27,320.114h22.377a4.285,4.285,0,0,0,4.159-4.388V312.59a7.355,7.355,0,0,0-7.134-7.52H275.405a7.356,7.356,0,0,0-7.134,7.52v7.524Z" transform="translate(-237.574 -271.357)" fill="#41ade2" fill-rule="evenodd"/>
          <path id="Path_1045015" data-name="Path 1045015" d="M273.8,320.114h5.239V312.59a7.355,7.355,0,0,1,7.134-7.52h-5.239a7.359,7.359,0,0,0-7.134,7.52Z" transform="translate(-242.392 -271.357)" fill="#4185b0" fill-rule="evenodd"/>
          <path id="Path_1045016" data-name="Path 1045016" d="M343.134,284.654l-1.5,2.607a4.067,4.067,0,0,0,7.619,0l-1.5-2.611A3.883,3.883,0,0,1,343.134,284.654Z" transform="translate(-301.486 -253.567)" fill="#e4a978" fill-rule="evenodd"/>
          <path id="Path_1045017" data-name="Path 1045017" d="M358.08,289.535a4.025,4.025,0,0,0,1.694.368,4.065,4.065,0,0,0,3.808-2.643l-1.5-2.611a4.143,4.143,0,0,1-2.374.76Z" transform="translate(-315.817 -253.567)" fill="#fdcc9a" fill-rule="evenodd"/>
          <path id="Path_1045018" data-name="Path 1045018" d="M338.905,207.376v4.052a2.705,2.705,0,0,1-.46,1.534c-3.166,4.885-6.784,5.421-10.3,0a2.7,2.7,0,0,1-.46-1.534v-3.57a5.1,5.1,0,0,0,3.264-1.928h.109A8.671,8.671,0,0,0,338.905,207.376Z" transform="translate(-289.341 -184.986)" fill="#e4a978" fill-rule="evenodd"/>
          <path id="Path_1045019" data-name="Path 1045019" d="M357.654,214.224v4.052a2.705,2.705,0,0,1-.46,1.534c-1.468,2.267-3.034,3.6-4.64,3.83a10.435,10.435,0,0,1-2.884-3.136,2.705,2.705,0,0,1-.46-1.534v-5.18l2.311.03A8.785,8.785,0,0,0,357.654,214.224Z" transform="translate(-308.09 -191.834)" fill="#fdcc9a" fill-rule="evenodd"/>
          <path id="Path_1045020" data-name="Path 1045020" d="M326.562,167.823a6.868,6.868,0,0,1,6.37.318,6.708,6.708,0,0,1,3.341,5.331,8.705,8.705,0,0,1-8.394-1.351,5.052,5.052,0,0,1-3.3,1.986C323.586,170.533,324.181,169.108,326.562,167.823Z" transform="translate(-286.231 -151.235)" fill="#b78b40" fill-rule="evenodd"/>
          <path id="Path_1045021" data-name="Path 1045021" d="M175.13,384.09h3.808a2.438,2.438,0,0,1,2.432,2.432v2.435h-6.239V384.09Z" transform="translate(-156.43 -340.2)" fill="#fdcc9a" fill-rule="evenodd"/>
          <path id="Path_1045022" data-name="Path 1045022" d="M356.06,382.87h-2.37a2.377,2.377,0,0,0-2.37,2.37v2.654h4.738V382.87Z" transform="translate(-309.928 -339.137)" fill="#fdcc9a" fill-rule="evenodd"/>
          <path id="Path_1045023" data-name="Path 1045023" d="M29.94,421.88H87.9v8.39H29.94Z" transform="translate(-29.94 -373.123)" fill="#d7ab60" fill-rule="evenodd"/>
          <path id="Path_1045024" data-name="Path 1045024" d="M29.94,454.45H87.9v4.195H29.94Z" transform="translate(-29.94 -401.498)" fill="#b78b40" fill-rule="evenodd"/>
        </g>
        <path id="Path_1045025" data-name="Path 1045025" d="M23.842,85.1h.939a4.553,4.553,0,0,1-1.106-3.26l.6-12.2c.963-5.509,3-12.329,7.97-13.45a.875.875,0,0,1,.07-.478c1.321-3.031.752-5.309.223-7.444-.675-2.72-1.3-5.239,1.2-8.7,2.636-3.64,5.385-3.329,8.412-2.991a12.921,12.921,0,0,0,4.516-.03c1.658-.39,3.26-.241,4.209.891a4.036,4.036,0,0,1,.314,4.067A11.191,11.191,0,0,1,50,43.8c-.149,1.741-.233,3.341-.307,4.742a29.81,29.81,0,0,1-.569,5.491c-.774,2.943-2.454,3.789-7,2.734l-.657,2.774q.361.564.668,1.158L57.3,66.154a.894.894,0,0,1,.6,1.095l-.073.267a6.264,6.264,0,0,1,3.389,2.551c.621-.036,1.6-.01,2.245-.01l.858-1.482a12.8,12.8,0,0,1-2.42-2.862,3.583,3.583,0,0,1-.609-2.022V60.233a7.66,7.66,0,0,1-.227-4.4,5.013,5.013,0,0,1,2.683-2.79.288.288,0,0,1,.048-.026,7.76,7.76,0,0,1,10.989,6.4.9.9,0,0,1-.475.858v3.413a3.58,3.58,0,0,1-.609,2.022,12.811,12.811,0,0,1-2.42,2.859l.858,1.486h1.8a8.264,8.264,0,0,1,8.035,8.423v3.136a5.409,5.409,0,0,1-1.26,3.486H81.8a.9.9,0,0,1,.9.9v8.39a.9.9,0,0,1-.9.9H23.842a.9.9,0,0,1-.9-.9V86a.9.9,0,0,1,.9-.9Zm4.362,0H41.537l.139-3.918-9.383-.979a.9.9,0,0,1-.8-.961l.489-11.653a.9.9,0,1,1,1.793.07L33.318,78.5l8.423.876.274-7.8c0-.026,0-.052.008-.077h0a16.249,16.249,0,0,0-1.986-10.857c-2.983.187-5.148-.386-7.156-2.748a5.821,5.821,0,0,0-3.841,2.953,25.839,25.839,0,0,0-2.987,9.054l-.581,12.019a2.784,2.784,0,0,0,.788,2.129A2.969,2.969,0,0,0,28.2,85.1Zm15.129,0h4.549V83.568a1.54,1.54,0,0,0-1.534-1.53H43.443Zm6.348,0h3.954V78.48a8.637,8.637,0,0,1,1.859-5.371L43.8,71.871l-.3,8.364h2.84a3.339,3.339,0,0,1,3.333,3.333V85.1Zm5.758,0h3.7V80.78a.9.9,0,1,1,1.8,0V85.1h3.391V83.349a3.281,3.281,0,0,1,3.15-3.271L69.815,76.3a.9.9,0,1,1,1.53.945l-1.753,2.833h5.421V77.716a.9.9,0,0,1,1.8,0V80.98a.9.9,0,0,1-.9.9H70.872V85.1h6.039a3.384,3.384,0,0,0,3.26-3.486V78.478a6.457,6.457,0,0,0-6.236-6.619H72.172a4.966,4.966,0,0,1-8.754,0H61.668a6.454,6.454,0,0,0-6.232,6.619V85.1Zm10.7,0h2.935v-3.22H67.6a1.473,1.473,0,0,0-1.468,1.468V85.1Zm14.761,1.8H24.743v6.587H80.9ZM65.72,54.253a5.231,5.231,0,0,1,.726,3.476,7.759,7.759,0,0,0,6.444,1.117,5.952,5.952,0,0,0-7.17-4.593Zm-1.106,3.57a3.5,3.5,0,0,0-.587-2.859,2.848,2.848,0,0,0-1.26,1.439,5.019,5.019,0,0,0,.073,2.617A4.128,4.128,0,0,0,64.614,57.824Zm7.89,2.943a9.539,9.539,0,0,1-6.856-1.405,6.229,6.229,0,0,1-2.555,1.471v2.859a1.806,1.806,0,0,0,.314,1.045c1.1,1.705,2.662,3.472,4.406,3.461,1.822-.014,3.413-1.972,4.378-3.461a1.806,1.806,0,0,0,.314-1.045V60.767Zm-2.738,8.78a4.611,4.611,0,0,1-3.94,0l-.832,1.442A3.175,3.175,0,0,0,70.6,71Zm-12.789,2.11a7.889,7.889,0,0,1,2.311-1.22,6.363,6.363,0,0,0-1.95-1.172l-.643,2.311ZM41.128,45.667l.161-.591a.9.9,0,0,1,1.139-.621h0c3.542,1.136,5.735-.139,7.079-3.6.346-.9.518-2.191-.471-2.573a3.446,3.446,0,0,0-1.968.018c-4.892,1.158-8.656-2.125-11.88,2.322-3.669,5.067,1.081,8-.653,14.176a4.214,4.214,0,0,0,2.348-4.786.6.6,0,0,1-.022-.157,8.2,8.2,0,0,1,.233-4.312q.943-1.872,3.158-.525a5.029,5.029,0,0,1,.873.649Zm1.654.748-.438,1.606a.9.9,0,0,1-1.7.165,2.9,2.9,0,0,0-1.325-1.636q-.547-.334-.613-.2a6.882,6.882,0,0,0-.058,3.275,6.013,6.013,0,0,1-4.356,7.158c1.57,1.815,3.15,2.2,5.48,2.07l.8-3.381h0a.9.9,0,0,1,1.1-.665c3.888,1.023,5.217.631,5.7-1.226a60.9,60.9,0,0,0,.672-7.856,6.658,6.658,0,0,1-5.27.686Zm.307,16.541a18.76,18.76,0,0,1,.872,7.122l10.963,1.15,1.019-3.654Z" transform="translate(0)"/>
      </g>
    </g>
  </g>
</svg>
