<svg xmlns="http://www.w3.org/2000/svg" width="36.039" height="36.056" viewBox="0 0 36.039 36.056">
  <g id="Group_1203962" data-name="Group 1203962" transform="translate(-0.12 0.001)">
    <g id="Group_1203607" data-name="Group 1203607" transform="translate(0.12 -0.001)">
      <path id="Path_1044282" data-name="Path 1044282" d="M34.942,22.384a3.638,3.638,0,0,0-1.506-2.739c-.8-.626-1.884-.8-4.851-1.536V16.754l.025-.012h0c.053-.025.2-.107.283-.155l.009-.005A5.869,5.869,0,0,0,31.58,13.14a5.262,5.262,0,0,1,.42,3.1,1.132,1.132,0,0,0,1.36,1.177l1.3-.27a1.4,1.4,0,0,0,1.047-1.8,9.535,9.535,0,0,0-2.293-4.076,1.8,1.8,0,0,0-.19-.976,1.735,1.735,0,0,0,.237-.709.525.525,0,0,0,.03-.175c-.094-.988.409-3.436-1.157-5.868h0a.53.53,0,0,0-.96.307c0,.195.066.231.249.56a6.469,6.469,0,0,1,.814,3.37,2.373,2.373,0,0,0-.805-.265.8.8,0,0,0-.781-.282c-2.682.542-3.754-.7-4.09-1.259a.95.95,0,0,0-.82-.464h0a.95.95,0,0,0-.82.464h0c-.336.559-1.408,1.8-4.09,1.259a.8.8,0,0,0-.781.283,2.372,2.372,0,0,0-.805.265V7.567A6.5,6.5,0,0,1,29.9,2.422a.528.528,0,0,0,.648-.834A7.563,7.563,0,0,0,18.394,7.237c-.012.286,0,.327-.007,2.18a.526.526,0,0,0,.03.175,1.73,1.73,0,0,0,.223.684,1.8,1.8,0,0,0-.2,1,9.534,9.534,0,0,0-2.293,4.076,1.4,1.4,0,0,0,1.047,1.8,11.256,11.256,0,0,0,1.534.294,1.121,1.121,0,0,0,.736-.275,1.258,1.258,0,0,0,.373-1.2,4.816,4.816,0,0,1,.456-2.862,5.773,5.773,0,0,0,2.467,3.339,5.432,5.432,0,0,0,.515.3v1.365c-3.351.834-4.156.9-5.136,1.764-.973-.854-1.743-.92-5.134-1.764V16.743a5.726,5.726,0,0,0,.711-.43,5.861,5.861,0,0,0,2.489-4.8,1.863,1.863,0,0,0,1.33-2.878c.015-2.3,0-4.183-1.825-6.207A7.208,7.208,0,0,0,3.134,7.215V8.627s0,0,0,0A1.739,1.739,0,0,0,2.8,9.646a1.992,1.992,0,0,0,1.662,1.863,5.709,5.709,0,0,0,.175,1.431,5.879,5.879,0,0,0,3.051,3.815v1.354c-3.088.769-4.055.912-4.851,1.536a3.521,3.521,0,0,0-1.413,2.166C1.333,22.266.135,33.1.134,33.107A2.466,2.466,0,0,0,2.6,36.054H7.219a.528.528,0,0,0,0-1.056H5.232l.524-9.9A.528.528,0,0,0,4.7,25.04l-.1,1.969H1.879c.492-4.273.488-4.709.641-5.214a3.075,3.075,0,0,1,2.383-1.9,6.46,6.46,0,0,0,10.888,0,4.144,4.144,0,0,1,1.224.465.539.539,0,0,0,.072.036,4.554,4.554,0,0,1,.369.286,3.743,3.743,0,0,0-.539,1.711L16.4,27.009h-.28l-.1-1.969a.528.528,0,0,0-1.054.056l.524,9.9h-5.8a.528.528,0,0,0,0,1.056H22.554a.528.528,0,0,0,0-1.056h-1.74l.524-9.9a.528.528,0,0,0-1.054-.056l-.03.572-2.57-.581c.374-2.464.02-3.739,1.579-4.674a4.891,4.891,0,0,1,1.464-.525,5.3,5.3,0,0,0,2.564,3.955l.007,0a5.28,5.28,0,0,0,1.3.539,5.259,5.259,0,0,0,4.174-.651l.007,0a5.243,5.243,0,0,0,2.38-3.838,4.879,4.879,0,0,1,1.444.52c1.571.944,1.185,2.183,1.579,4.675l-2.549.58-.03-.571a.528.528,0,0,0-.527-.5h-.028a.528.528,0,0,0-.5.555l.523,9.9H25.018a.528.528,0,1,0,0,1.056h8.658a2.4,2.4,0,0,0,2.481-2.521C36.164,33.079,36.192,33.65,34.942,22.384ZM32.965,12.326a9.676,9.676,0,0,1,1.738,3.35.336.336,0,0,1-.03.275.34.34,0,0,1-.227.163l-1.3.27a.077.077,0,0,1-.091-.082c0-.08.011-.166.017-.257a5.919,5.919,0,0,0-.539-3.364A1.792,1.792,0,0,0,32.965,12.326ZM31.809,8.655a.781.781,0,0,1,0,1.523Zm0,2.625a2.523,2.523,0,0,0,.557-.195.761.761,0,0,1-.566.767C31.8,11.837,31.808,11.349,31.809,11.28Zm-13.1,5.1-1.3-.27a.342.342,0,0,1-.257-.439,9.674,9.674,0,0,1,1.738-3.35,1.8,1.8,0,0,0,.433.356C18.267,14.681,19.061,16.458,18.707,16.385ZM20.07,8.655v1.522A.781.781,0,0,1,20.07,8.655Zm-.583,2.418a2.527,2.527,0,0,0,.583.208c.006.54,0,.469.01.578C20.075,11.858,19.464,11.447,19.487,11.073ZM4.519,28.065,4.153,35c-1.246-.067-2.008.193-2.567-.374a1.551,1.551,0,0,1-.412-1.1c-.006-.373.015-.262.586-5.46H4.519ZM16.2,10.407V8.885A.781.781,0,0,1,16.2,10.407Zm-11.739,0a.781.781,0,0,1,0-1.523Zm.2-2.66a2.417,2.417,0,0,0-.475.113c0-.49-.007-.794.018-1.119a6.14,6.14,0,0,1,6.3-5.667l.057,0a6.145,6.145,0,0,1,5.9,5.874c.01.617,0,.065.006.91a2.4,2.4,0,0,0-.422-.1.971.971,0,0,0-.441-.372c-.07-.03-.088-.025-.213-.065a3.189,3.189,0,0,1-1.759-1.7.9.9,0,0,0-1.611.029C11.531,6.7,9.273,8.535,5.488,7.5A.8.8,0,0,0,4.666,7.748ZM6.727,14.7c-1.481-1.724-1.207-3.065-1.207-6.1a7.781,7.781,0,0,0,4.847-.26,5.2,5.2,0,0,0,2.478-1.981,4.121,4.121,0,0,0,2.3,1.988c0,.583,0,2.656,0,2.7a5,5,0,0,1-1.42,3.886,4.895,4.895,0,0,1-3.622,1.395c-.079,0-.158-.009-.237-.017s-.157-.017-.235-.028A4.819,4.819,0,0,1,6.727,14.7Zm5.817,4.382.16.04a3.512,3.512,0,0,1-4.716,0l.16-.04a.538.538,0,0,0,.09-.031.967.967,0,0,0,.507-.9v-.981a5.891,5.891,0,0,0,3.2-.007v.988A.925.925,0,0,0,12.545,19.083ZM6,19.619l.815-.2a4.574,4.574,0,0,0,7.071,0l.815.2A5.407,5.407,0,0,1,6,19.619Zm14.2,7.063L19.756,35c-1.561-.009-2.238.136-2.712-.522a1.856,1.856,0,0,1-.276-1.272l.8-7.118ZM28.6,16.745l-.018-.036v-.016l.025.049Zm-6.317-2.1c-1.451-1.688-1.16-3.274-1.16-6.32,1.091.168,3.529.285,4.813-1.67,1.284,1.955,3.722,1.838,4.813,1.67v3.187A4.822,4.822,0,0,1,22.286,14.648Zm3.642,7.067a2.3,2.3,0,0,1-1.5-.545,2.173,2.173,0,0,1-.279-.274,2.335,2.335,0,0,1-.532-1.106,3.28,3.28,0,0,1-.041-.669,1.486,1.486,0,0,0,.243-.07.967.967,0,0,0,.507-.9v-.988a5.894,5.894,0,0,0,3.2.006v.982a.925.925,0,0,0,.6.936l.173.043a2.454,2.454,0,0,1-.632,1.835,2.376,2.376,0,0,1-.54.432,2.289,2.289,0,0,1-1.161.321Zm1.789,1.339a4.189,4.189,0,0,1-5.955-3.481l.761-.189A3.422,3.422,0,0,0,28.8,21.217a3.48,3.48,0,0,0,.552-1.828l.76.189A4.208,4.208,0,0,1,27.717,23.055Zm6.972,11.57c-.56.567-1.32.306-2.567.374l-.44-8.317,2.611-.594c.863,7.818.8,6.894.807,7.459A1.561,1.561,0,0,1,34.69,34.625Z" transform="translate(-0.12 0.001)"/>
    </g>
  </g>
</svg>
