<svg xmlns="http://www.w3.org/2000/svg" xmlns:xlink="http://www.w3.org/1999/xlink" width="113" height="113" viewBox="0 0 113 113">
  <defs>
    <filter id="Path_982547" x="0" y="0" width="113" height="113" filterUnits="userSpaceOnUse">
      <feOffset dy="3" input="SourceAlpha"/>
      <feGaussianBlur stdDeviation="3" result="blur"/>
      <feFlood flood-opacity="0.161"/>
      <feComposite operator="in" in2="blur"/>
      <feComposite in="SourceGraphic"/>
    </filter>
  </defs>
  <g id="Group_1203942" data-name="Group 1203942" transform="translate(-921.51 -3654.893)">
    <g id="Group_1203767" data-name="Group 1203767">
      <g id="Group_1203572" data-name="Group 1203572" transform="translate(930.51 3660.893)">
        <g id="Group_1177337" data-name="Group 1177337" transform="translate(0 0)">
          <g id="Group_1176922" data-name="Group 1176922">
            <g id="Group_1172322" data-name="Group 1172322">
              <g id="Group_1164700" data-name="Group 1164700">
                <g id="Group_1160931" data-name="Group 1160931">
                  <g id="Group_1160749" data-name="Group 1160749">
                    <g id="Group_1158891" data-name="Group 1158891">
                      <g id="Group_1157406" data-name="Group 1157406">
                        <g id="Group_1155793" data-name="Group 1155793">
                          <g id="Group_1154704" data-name="Group 1154704">
                            <g id="Group_1150790" data-name="Group 1150790">
                              <g id="Group_1154214" data-name="Group 1154214">
                                <g id="Group_1152583" data-name="Group 1152583">
                                  <g id="Group_1146973" data-name="Group 1146973">
                                    <g id="Group_1146954" data-name="Group 1146954">
                                      <g transform="matrix(1, 0, 0, 1, -9, -6)" filter="url(#Path_982547)">
                                        <g id="Path_982547-2" data-name="Path 982547" transform="translate(9 6)" fill="#fff6f9">
                                          <path d="M 47.5000114440918 93.49987030029297 C 41.28938293457031 93.49987030029297 35.26534652709961 92.28384399414062 29.5951976776123 89.88558959960938 C 24.11773109436035 87.56881713867188 19.19814491271973 84.25183868408203 14.97310447692871 80.02680206298828 C 10.74805164337158 75.80176544189453 7.43107795715332 70.88218688964844 5.114304542541504 65.40472412109375 C 2.716038227081299 59.73458862304688 1.500011444091797 53.71054840087891 1.500011444091797 47.49993515014648 C 1.500011444091797 41.28932189941406 2.716038227081299 35.26528167724609 5.114304542541504 29.59514808654785 C 7.43107795715332 24.1176815032959 10.74805164337158 19.1981086730957 14.97310447692871 14.97306823730469 C 19.19814491271973 10.74802875518799 24.11773109436035 7.431055068969727 29.5951976776123 5.11428165435791 C 35.26534652709961 2.716028451919556 41.28938293457031 1.500001788139343 47.5000114440918 1.500001788139343 C 53.71063995361328 1.500001788139343 59.73467636108398 2.716028451919556 65.40482330322266 5.11428165435791 C 70.88229370117188 7.431055068969727 75.8018798828125 10.74802875518799 80.02691650390625 14.97306823730469 C 84.25196838378906 19.1981086730957 87.56894683837891 24.1176815032959 89.88571929931641 29.59514808654785 C 92.28398132324219 35.26528167724609 93.50001525878906 41.28932189941406 93.50001525878906 47.49993515014648 C 93.50001525878906 53.71054840087891 92.28398132324219 59.73458862304688 89.88571929931641 65.40472412109375 C 87.56894683837891 70.88218688964844 84.25196838378906 75.80176544189453 80.02691650390625 80.02680206298828 C 75.8018798828125 84.25183868408203 70.88229370117188 87.56881713867188 65.40482330322266 89.88558959960938 C 59.73467636108398 92.28384399414062 53.71063995361328 93.49987030029297 47.5000114440918 93.49987030029297 Z" stroke="none"/>
                                          <path d="M 47.5000114440918 3 C 41.49122619628906 3 35.66378021240234 4.1761474609375 30.17951965332031 6.495796203613281 C 24.880859375 8.7369384765625 20.12153625488281 11.94596862792969 16.03376770019531 16.03373718261719 C 11.94598388671875 20.12149047851562 8.736968994140625 24.88081359863281 6.495811462402344 30.17947387695312 C 4.176162719726562 35.66371917724609 3.000007629394531 41.49116516113281 3.000007629394531 47.49993515014648 C 3.000007629394531 53.50870513916016 4.176162719726562 59.33615112304688 6.495811462402344 64.82039642333984 C 8.736968994140625 70.11905670166016 11.94598388671875 74.87837982177734 16.03376770019531 78.96613311767578 C 20.12153625488281 83.05390167236328 24.880859375 86.26293182373047 30.17951965332031 88.50407409667969 C 35.66378021240234 90.82372283935547 41.49122619628906 91.99987030029297 47.5000114440918 91.99987030029297 C 53.50879669189453 91.99987030029297 59.33624267578125 90.82372283935547 64.82050323486328 88.50407409667969 C 70.11916351318359 86.26293182373047 74.87848663330078 83.05390167236328 78.96625518798828 78.96613311767578 C 83.05403900146484 74.87837982177734 86.2630615234375 70.11905670166016 88.50421142578125 64.82039642333984 C 90.82386016845703 59.33615112304688 92.00001525878906 53.50870513916016 92.00001525878906 47.49993515014648 C 92.00001525878906 41.49116516113281 90.82386016845703 35.66371917724609 88.50421142578125 30.17947387695312 C 86.2630615234375 24.88081359863281 83.05403900146484 20.12149047851562 78.96625518798828 16.03373718261719 C 74.87848663330078 11.94596862792969 70.11916351318359 8.7369384765625 64.82050323486328 6.495796203613281 C 59.33624267578125 4.1761474609375 53.50879669189453 3 47.5000114440918 3 M 47.5000114440918 0 C 73.73353576660156 0 95.00001525878906 21.26644134521484 95.00001525878906 47.49993515014648 C 95.00001525878906 73.73342895507812 73.73353576660156 94.99987030029297 47.5000114440918 94.99987030029297 C 21.26648712158203 94.99987030029297 7.62939453125e-06 73.73342895507812 7.62939453125e-06 47.49993515014648 C 7.62939453125e-06 21.26644134521484 21.26648712158203 0 47.5000114440918 0 Z" stroke="none" fill="#8b5e6f"/>
                                        </g>
                                      </g>
                                    </g>
                                  </g>
                                </g>
                              </g>
                            </g>
                          </g>
                        </g>
                      </g>
                    </g>
                  </g>
                </g>
              </g>
            </g>
          </g>
        </g>
      </g>
      <g id="pobreza" transform="translate(884.784 3672.995)">
        <g id="Group_1203747" data-name="Group 1203747" transform="translate(71.624 36.726)">
          <g id="Group_1203745" data-name="Group 1203745" transform="translate(7.738)">
            <path id="Path_1044612" data-name="Path 1044612" d="M176.385,272.744h0a5.533,5.533,0,0,1-3.133-4.987v-2.145h-1.67a9.455,9.455,0,0,1-8.445,0h-2.256a8.122,8.122,0,0,0-5.149,1.832l18.072,9.411a15.514,15.514,0,0,1,2.581-4.112Z" transform="translate(-155.732 -265.613)" fill="#80d261"/>
          </g>
          <g id="Group_1203746" data-name="Group 1203746" transform="translate(0 8.527)">
            <path id="Path_1044613" data-name="Path 1044613" d="M135.726,446.261a10.046,10.046,0,0,1-1.785-.162v3.22a.691.691,0,0,0,.691.691h15.913l-6.162-8.743A9.994,9.994,0,0,1,135.726,446.261Z" transform="translate(-129.216 -425.506)" fill="#80d261"/>
            <path id="Path_1044614" data-name="Path 1044614" d="M103.829,327.281l-4.061,10.756h11.641Z" transform="translate(-99.768 -327.281)" fill="#80d261"/>
          </g>
        </g>
        <g id="Group_1203749" data-name="Group 1203749" transform="translate(71.624 36.726)">
          <g id="Group_1203748" data-name="Group 1203748" transform="translate(0)">
            <path id="Path_1044615" data-name="Path 1044615" d="M163.138,265.612h-2.256a8.122,8.122,0,0,0-5.149,1.832l3.128,1.629a8.168,8.168,0,0,1,4.76-3.235C163.457,265.767,163.3,265.691,163.138,265.612Z" transform="translate(-147.995 -265.612)" fill="#68ca44"/>
            <path id="Path_1044616" data-name="Path 1044616" d="M103.829,327.281l-4.061,10.756h4.648l2.44-6.462Z" transform="translate(-99.768 -318.754)" fill="#68ca44"/>
          </g>
          <path id="Path_1044617" data-name="Path 1044617" d="M138.589,477.845V474.37a10,10,0,0,1-4.648.255v3.22a.691.691,0,0,0,.691.691h4.648A.691.691,0,0,1,138.589,477.845Z" transform="translate(-129.216 -445.505)" fill="#68ca44"/>
        </g>
        <path id="Path_1044618" data-name="Path 1044618" d="M215.152,267.395a9.419,9.419,0,0,1-3.959-.869l3.321,5.753a.736.736,0,0,0,1.276,0l3.321-5.753A9.418,9.418,0,0,1,215.152,267.395Z" transform="translate(-124.162 -229.673)" fill="#ffc495"/>
        <g id="Group_1203752" data-name="Group 1203752" transform="translate(76.719 1.037)">
          <path id="Path_1044619" data-name="Path 1044619" d="M196.454,13.9H201.5a9.906,9.906,0,0,1,3.278.557,4.446,4.446,0,0,0,.755-2.481,4.494,4.494,0,0,0-4.48-4.48H196.9a4.494,4.494,0,0,0-4.48,4.48,4.446,4.446,0,0,0,.755,2.481A9.907,9.907,0,0,1,196.454,13.9Z" transform="translate(-184.705 -7.499)" fill="#a44f3e"/>
          <path id="Path_1044620" data-name="Path 1044620" d="M196.4,13.906a4.439,4.439,0,0,1-.438-1.925,4.494,4.494,0,0,1,4.48-4.48H196.9a4.494,4.494,0,0,0-4.48,4.48,4.446,4.446,0,0,0,.755,2.481A9.9,9.9,0,0,1,196.4,13.906Z" transform="translate(-184.706 -7.5)" fill="#883f2e"/>
          <path id="Path_1044621" data-name="Path 1044621" d="M151.557,68.443h1.385V67.288a.554.554,0,0,1,.327-.5l10.212-4.573a2.4,2.4,0,0,1,.985-.21h4.705a2.414,2.414,0,0,1,2.411,2.411v4.033h1.385a3.406,3.406,0,0,1,1.74.476V63.742a9.924,9.924,0,0,0-9.924-9.924h-5.044a9.924,9.924,0,0,0-9.924,9.924V68.92a3.405,3.405,0,0,1,1.74-.476Z" transform="translate(-147.992 -47.413)" fill="#883f2e"/>
          <path id="Path_1044622" data-name="Path 1044622" d="M151.557,68.305H152.8V67.288a.691.691,0,0,1,.409-.631l1.192-.534V63.742a9.924,9.924,0,0,1,9.924-9.924h-4.588a9.924,9.924,0,0,0-9.924,9.924v5.017A3.548,3.548,0,0,1,151.557,68.305Z" transform="translate(-147.992 -47.413)" fill="#6d3326"/>
          <g id="Group_1203750" data-name="Group 1203750" transform="translate(0 20.892)">
            <path id="Path_1044623" data-name="Path 1044623" d="M141.427,164.927v-6.334h-1.247a3.566,3.566,0,0,0-3.566,3.566v1.5a3.566,3.566,0,0,0,3.566,3.566h1.529A9.482,9.482,0,0,1,141.427,164.927Z" transform="translate(-136.615 -158.593)" fill="#ffc495"/>
            <path id="Path_1044624" data-name="Path 1044624" d="M312.712,164.285a3.583,3.583,0,0,0,.056-.629v-1.5a3.566,3.566,0,0,0-3.566-3.566h-1.247v6.334c0,.309-.016.614-.045.915A8.353,8.353,0,0,1,312.712,164.285Z" transform="translate(-284.226 -158.593)" fill="#ffc495"/>
          </g>
          <path id="Path_1044625" data-name="Path 1044625" d="M190.292,125.685c.029-.3.045-.606.045-.915V114.541a2.549,2.549,0,0,0-2.549-2.549h-4.705a2.549,2.549,0,0,0-1.042.223l-10.212,4.573a.691.691,0,0,0-.409.631v7.351a9.456,9.456,0,0,0,15.36,7.389,8.38,8.38,0,0,1,3.512-6.474Z" transform="translate(-166.608 -97.544)" fill="#ffe6c3"/>
          <g id="Group_1203751" data-name="Group 1203751" transform="translate(4.812 17.843)">
            <path id="Path_1044626" data-name="Path 1044626" d="M184.415,154.166a9.459,9.459,0,0,1-9.459-9.459v-8.165l-3.128,1.4a.692.692,0,0,0-.409.631v7.351a9.457,9.457,0,0,0,14.248,8.156A9.541,9.541,0,0,1,184.415,154.166Z" transform="translate(-171.419 -136.542)" fill="#ffd2a9"/>
          </g>
        </g>
        <path id="Path_1044627" data-name="Path 1044627" d="M301.2,324.582v-1.24a1.649,1.649,0,0,1,1.647-1.647h.5c-.861-4.365-2.644-7.953-4.933-10.016a8.351,8.351,0,0,1-4.5,1.308h-2.859a5.511,5.511,0,0,1-2.4-.546,15.618,15.618,0,0,0-2.638,4.238Z" transform="translate(-188.642 -268.583)" fill="#00a7d3"/>
        <path id="Path_1044628" data-name="Path 1044628" d="M289.9,323.445a18.084,18.084,0,0,1,2.936-5.711h-1.776a5.511,5.511,0,0,1-2.4-.546,15.62,15.62,0,0,0-2.638,4.238Z" transform="translate(-188.642 -273.33)" fill="#0096d3"/>
        <path id="Path_1044629" data-name="Path 1044629" d="M327.847,316.872H325.4l2.052,3.554a.736.736,0,0,0,1.276,0l2.447-4.239A8.361,8.361,0,0,1,327.847,316.872Z" transform="translate(-222.573 -272.469)" fill="#ffb392"/>
        <g id="Group_1203753" data-name="Group 1203753" transform="translate(96.882 27.62)">
          <path id="Path_1044630" data-name="Path 1044630" d="M290.831,216.539a8.392,8.392,0,1,0-8.392-8.392v2.859a5.533,5.533,0,0,0,5.533,5.533h2.859Z" transform="translate(-282.439 -199.756)" fill="#ffc495"/>
        </g>
        <g id="Group_1203754" data-name="Group 1203754" transform="translate(96.882 27.62)">
          <path id="Path_1044631" data-name="Path 1044631" d="M285.921,212.146v-2.859a8.392,8.392,0,0,1,8.788-8.382q.2.009.392.028a8.3,8.3,0,0,0-3.874-1.167,8.392,8.392,0,0,0-8.788,8.383v2.859a5.533,5.533,0,0,0,5.533,5.533h.119A5.523,5.523,0,0,1,285.921,212.146Z" transform="translate(-282.439 -199.756)" fill="#ffb392"/>
        </g>
        <path id="Path_1044632" data-name="Path 1044632" d="M163.324,299.439a1.785,1.785,0,0,1-1.785-1.785v-2.916l-33.145-17.261a1.473,1.473,0,0,0-1.98.613l-2.127,3.984a1.473,1.473,0,0,0,.1,1.542l8.006,11.36h4.443a.416.416,0,0,1,.416.433,9.942,9.942,0,0,1-1.332,4.572l6.162,8.743h15.165a7.153,7.153,0,0,0,7.153-7.153v-2.131h-1.071Z" transform="translate(-49.123 -238.966)" fill="#fac600"/>
        <path id="Path_1044633" data-name="Path 1044633" d="M129.068,283.614a1.473,1.473,0,0,1-.1-1.542l1.794-3.361-2.373-1.236a1.473,1.473,0,0,0-1.98.613l-2.127,3.984a1.473,1.473,0,0,0,.1,1.542l8.006,11.36h4.443a.416.416,0,0,1,.416.433,9.942,9.942,0,0,1-1.332,4.572l6.162,8.743h4.685Z" transform="translate(-49.123 -238.965)" fill="#e8b800"/>
        <g id="Group_1203757" data-name="Group 1203757" transform="translate(96.021 62.683)">
          <g id="Group_1203755" data-name="Group 1203755" transform="translate(0)">
            <path id="Path_1044634" data-name="Path 1044634" d="M285.437,460.415H276.21v-6.8a.276.276,0,0,1,.277-.277h8.674a.276.276,0,0,1,.277.277Z" transform="translate(-276.21 -453.341)" fill="#fd4755"/>
          </g>
          <g id="Group_1203756" data-name="Group 1203756" transform="translate(0)">
            <path id="Path_1044635" data-name="Path 1044635" d="M279.952,453.341h-3.465a.277.277,0,0,0-.277.277v6.8h3.465v-6.8A.276.276,0,0,1,279.952,453.341Z" transform="translate(-276.21 -453.341)" fill="#fb2b3a"/>
          </g>
        </g>
        <g id="Group_1203760" data-name="Group 1203760" transform="translate(81.399 41.194)">
          <g id="Group_1203758" data-name="Group 1203758" transform="translate(0)">
            <path id="Path_1044636" data-name="Path 1044636" d="M173.484,297.928l-2.991,5.325a.277.277,0,0,0,.106.377l7.667,4.306a.276.276,0,0,0,.377-.106l3.135-5.582Z" transform="translate(-170.458 -297.928)" fill="#fff"/>
          </g>
          <g id="Group_1203759" data-name="Group 1203759" transform="translate(0 0)">
            <path id="Path_1044637" data-name="Path 1044637" d="M174.131,303.63a.276.276,0,0,1-.106-.376l2.191-3.9-2.732-1.423-2.991,5.325a.276.276,0,0,0,.106.376l7.667,4.306a.277.277,0,0,0,.377-.106l.712-1.267Z" transform="translate(-170.458 -297.929)" fill="#eaf6ff"/>
          </g>
        </g>
        <g id="Group_1203761" data-name="Group 1203761" transform="translate(112.416 52.974)">
          <path id="Path_1044638" data-name="Path 1044638" d="M398.888,390.618h-2.321a1.785,1.785,0,0,1-1.785-1.785V384.9a1.785,1.785,0,0,1,1.785-1.785h2.321a1.785,1.785,0,0,1,1.785,1.785v3.928A1.785,1.785,0,0,1,398.888,390.618Z" transform="translate(-394.781 -383.119)" fill="#ffe6c3"/>
        </g>
        <g id="Group_1203762" data-name="Group 1203762" transform="translate(112.416 52.974)">
          <path id="Path_1044639" data-name="Path 1044639" d="M397.077,388.832V384.9a1.785,1.785,0,0,1,1.785-1.785h-2.3a1.785,1.785,0,0,0-1.785,1.785v3.928a1.785,1.785,0,0,0,1.785,1.785h2.3A1.785,1.785,0,0,1,397.077,388.832Z" transform="translate(-394.781 -383.119)" fill="#ffd2a9"/>
        </g>
        <path id="Path_1044640" data-name="Path 1044640" d="M94.17,405.071H75.022a.416.416,0,0,0-.415.433,9.944,9.944,0,0,0,1.8,5.307l.932-.932a1.785,1.785,0,0,1,2.525,0l2.778,2.778a1.785,1.785,0,0,1,.217,2.26A9.991,9.991,0,0,0,94.585,405.5.416.416,0,0,0,94.17,405.071Z" transform="translate(-6.461 -349.062)" fill="#fe9901"/>
        <g id="Group_1203763" data-name="Group 1203763" transform="translate(68.145 56.009)">
          <path id="Path_1044641" data-name="Path 1044641" d="M77.342,409.879a1.785,1.785,0,0,1,2.525,0l.39.39a9.937,9.937,0,0,1-1.448-4.765.416.416,0,0,1,.416-.433h-4.2a.416.416,0,0,0-.415.433,9.944,9.944,0,0,0,1.8,5.307Z" transform="translate(-74.606 -405.071)" fill="#fb8801"/>
        </g>
        <g id="Group_1203764" data-name="Group 1203764" transform="translate(68.717 60.294)">
          <path id="Path_1044642" data-name="Path 1044642" d="M86.207,441.886l-1.641,1.641a1.785,1.785,0,0,1-2.525,0l-2.778-2.778a1.785,1.785,0,0,1,0-2.525l1.641-1.641a1.785,1.785,0,0,1,2.525,0l2.778,2.778A1.785,1.785,0,0,1,86.207,441.886Z" transform="translate(-78.74 -436.061)" fill="#ffe6c3"/>
        </g>
        <g id="Group_1203765" data-name="Group 1203765" transform="translate(68.717 60.294)">
          <path id="Path_1044643" data-name="Path 1044643" d="M82.2,440.75a1.785,1.785,0,0,1,0-2.525l1.434-1.434-.207-.207a1.785,1.785,0,0,0-2.525,0l-1.641,1.641a1.785,1.785,0,0,0,0,2.525l2.778,2.778a1.785,1.785,0,0,0,2.525,0l.207-.207Z" transform="translate(-78.74 -436.061)" fill="#ffd2a9"/>
        </g>
        <g id="Group_1203766" data-name="Group 1203766" transform="translate(67.109 0)">
          <path id="Path_1044644" data-name="Path 1044644" d="M200.022,163.85a1.037,1.037,0,0,0,1.037-1.037v-2.079a1.037,1.037,0,0,0-2.074,0v2.079A1.037,1.037,0,0,0,200.022,163.85Z" transform="translate(-180.75 -137.616)"/>
          <path id="Path_1044645" data-name="Path 1044645" d="M266.706,163.85a1.037,1.037,0,0,0,1.037-1.037v-2.079a1.037,1.037,0,0,0-2.074,0v2.079A1.037,1.037,0,0,0,266.706,163.85Z" transform="translate(-238.214 -137.616)"/>
          <path id="Path_1044646" data-name="Path 1044646" d="M222.8,179l1.366,1.2a1.037,1.037,0,1,0,1.366-1.561l-.628-.55.763-.978a1.037,1.037,0,1,0-1.635-1.276l-1.366,1.751A1.037,1.037,0,0,0,222.8,179Z" transform="translate(-200.969 -151.178)"/>
          <path id="Path_1044647" data-name="Path 1044647" d="M219.78,227.22h3.757a1.037,1.037,0,1,0,0-2.074H219.78a1.037,1.037,0,1,0,0,2.074Z" transform="translate(-197.777 -194.015)"/>
          <path id="Path_1044648" data-name="Path 1044648" d="M116.522,51.937h-1.008a23.122,23.122,0,0,0-2.266-6.024,15.241,15.241,0,0,0-1.893-2.7,9.69,9.69,0,0,0,.737-.694,9.357,9.357,0,0,0,2.6-6.955,9.5,9.5,0,0,0-8.394-8.927V25.494a4.6,4.6,0,0,0-1.825-3.667V18.182h1.885a1.037,1.037,0,0,0,0-2.074H104.4a10.926,10.926,0,0,0-2.953-6.294l1.893-1.893a1.037,1.037,0,0,0-1.467-1.466l-2,2a10.964,10.964,0,0,0-1.655-.98A5.512,5.512,0,0,0,93.065,0H88.916a5.512,5.512,0,0,0-5.158,7.47,11.032,11.032,0,0,0-5.089,4.994l-.753-.753a1.037,1.037,0,0,0-1.466,1.466l1.414,1.414a10.942,10.942,0,0,0-.356,2.773v4.462a4.6,4.6,0,0,0-1.825,3.667v1.5a4.608,4.608,0,0,0,4.6,4.6h.755a10.512,10.512,0,0,0,2.594,4.138A9.2,9.2,0,0,0,79.2,37.386a2.519,2.519,0,0,0-2.826,1.249L74.25,42.619a2.5,2.5,0,0,0,.163,2.628l.109.155-3.613,9.571H68.562a1.453,1.453,0,0,0-1.452,1.514,11,11,0,0,0,1.51,5.126l-.113.113a2.826,2.826,0,0,0,0,3.992l2.778,2.777a2.826,2.826,0,0,0,3.992,0l.037-.037v.608a1.73,1.73,0,0,0,1.728,1.728h5.677a1.037,1.037,0,0,0,0-2.074H77.387v-1.7c.247.017.5.026.748.026a11.01,11.01,0,0,0,8.679-4.2l4.141,5.876h-3.4a1.037,1.037,0,1,0,0,2.074H108.12a8.2,8.2,0,0,0,8.19-8.19V61.51h.213a2.826,2.826,0,0,0,2.822-2.823V54.759a2.826,2.826,0,0,0-2.822-2.823Zm-11.251-23.28q.175,0,.351.008a7.4,7.4,0,0,1,7,7,7.355,7.355,0,0,1-7.347,7.7h-2.859a4.5,4.5,0,0,1-4.5-4.5V36.012a7.355,7.355,0,0,1,7.352-7.355Zm1.177,16.709-.937,1.622-.894-1.548h.656A9.636,9.636,0,0,0,106.449,45.366ZM89.79,48.342l.114.064-.853,1.519-.7-.4.141-.25a1.037,1.037,0,1,0-1.808-1.016l-.141.25-1.315-.739.14-.25a1.037,1.037,0,0,0-1.808-1.016l-.141.25-.7-.4.853-1.519.114.064A1.037,1.037,0,0,0,84.694,43.1l-.114-.064.257-.458,6.453,3.361-.37.659-.114-.064a1.037,1.037,0,1,0-1.015,1.808Zm.94-6.255h0Zm.26-.451-1.746-3.024a10.474,10.474,0,0,0,3.492,0Zm1.536,1.488,3.095-5.361h.224v1.108a6.559,6.559,0,0,0,2.618,5.242,16.269,16.269,0,0,0-1.164,1.8c-.117.209-.23.423-.34.64l-5.211-2.714a1.759,1.759,0,0,0,.777-.716Zm11.7-17.63v.684l-2.738-.911v-2.3h.21a2.531,2.531,0,0,1,2.529,2.529ZM88.916,2.074h4.149a3.438,3.438,0,0,1,3.21,4.683A10.941,10.941,0,0,0,93.512,6.4H88.468a10.94,10.94,0,0,0-2.762.353,3.438,3.438,0,0,1,3.21-4.683ZM80.285,29.521a2.531,2.531,0,0,1-2.529-2.529v-1.5a2.531,2.531,0,0,1,2.529-2.529h.21v5.3a10.526,10.526,0,0,0,.078,1.258Zm2.284-1.258V21.135l3.824-1.712a1.037,1.037,0,0,0-.848-1.893l-4.028,1.8A1.73,1.73,0,0,0,80.5,20.892h-.21a4.626,4.626,0,0,0-.7.054v-3.58a8.9,8.9,0,0,1,8.887-8.887h5.044a8.9,8.9,0,0,1,8.887,8.887v3.58a4.626,4.626,0,0,0-.7-.054h-.21V18.034A3.59,3.59,0,0,0,97.9,14.448H93.194a3.563,3.563,0,0,0-1.466.313l-1.765.79a1.037,1.037,0,0,0,.848,1.893l1.765-.79a1.5,1.5,0,0,1,.618-.132H97.9a1.514,1.514,0,0,1,1.512,1.512V24.61a1.037,1.037,0,0,0-.4,2.017l.4.135v.5H97.42a1.037,1.037,0,1,0,0,2.074h1.2a9.326,9.326,0,0,0-2.735,5.774,8.414,8.414,0,0,1-13.32-6.843Zm1.944,9.5h1.847l2.7,4.675-7.624-3.97A7.084,7.084,0,0,1,84.512,37.763Zm-8.548,9.686,5.3,7.523H73.125Zm-.514,17.937-1.641,1.641a.749.749,0,0,1-1.058,0L69.973,64.25a.749.749,0,0,1,0-1.058l1.641-1.641a.749.749,0,0,1,1.059,0l2.777,2.778A.749.749,0,0,1,75.451,65.386Zm11.319-6.967H81.331a1.037,1.037,0,0,0,0,2.074H85.9a8.932,8.932,0,0,1-.646.968H81.193a1.037,1.037,0,1,0,0,2.074h1.819a8.945,8.945,0,0,1-4.877,1.436c-.133,0-.266,0-.4-.01a2.812,2.812,0,0,0-.82-2.1L74.14,60.084a2.826,2.826,0,0,0-3.992,0h0a8.907,8.907,0,0,1-.914-3.039H87.038a8.987,8.987,0,0,1-.268,1.373Zm17.441,6.995h-.116a1.037,1.037,0,0,0,0,2.074h.116V68.72H97.058V67.488h.116a1.037,1.037,0,0,0,0-2.074h-.116V63.72h.771v.27a1.037,1.037,0,1,0,2.074,0v-.27h1.463v.27a1.037,1.037,0,1,0,2.074,0v-.27h.771Zm10.025-2.81a6.123,6.123,0,0,1-6.116,6.116h-1.835V67.488h.27a1.037,1.037,0,1,0,0-2.074h-.27V62.96a1.315,1.315,0,0,0-1.314-1.314H103.44V61.53a1.037,1.037,0,1,0-2.074,0v.116H99.9V61.53a1.037,1.037,0,0,0-2.074,0v.116H96.3a1.315,1.315,0,0,0-1.314,1.314v2.454h-.27a1.037,1.037,0,1,0,0,2.074h.27V68.72H93.492l-5.479-7.775a11.025,11.025,0,0,0,1.147-4.459,1.453,1.453,0,0,0-1.451-1.514H83.8l-7.7-10.92a.434.434,0,0,1-.028-.456l2.127-3.984a.437.437,0,0,1,.586-.181L83,41.62l-.225.4-.25-.14a1.037,1.037,0,1,0-1.016,1.808l.25.141L80.53,46.011a1.314,1.314,0,0,0,.5,1.789l1.367.768-.064.114A1.037,1.037,0,1,0,84.143,49.7l.064-.114,1.315.739-.064.114a1.037,1.037,0,1,0,1.808,1.016l.064-.114,1.368.768a1.314,1.314,0,0,0,1.788-.5l1.226-2.182.25.14a1.037,1.037,0,0,0,1.016-1.808l-.25-.141.4-.716,10.945,5.7a1.037,1.037,0,0,0,.958-1.84L98.8,47.51c.1-.2.2-.394.31-.585a13.93,13.93,0,0,1,1.212-1.829,6.534,6.534,0,0,0,1.9.339l1.756,3.041a1.773,1.773,0,0,0,3.072,0h0l2.278-3.945c.1-.046.193-.1.288-.145a12.826,12.826,0,0,1,1.826,2.539,20.773,20.773,0,0,1,1.97,5.127,2.831,2.831,0,0,0-1.95,2.051l-2.129-1.109a1.037,1.037,0,0,0-.958,1.84l3.007,1.566v2.287a2.826,2.826,0,0,0,2.822,2.823h.034V62.6Zm3.035-3.917a.749.749,0,0,1-.748.748H114.2a.749.749,0,0,1-.748-.748V54.759a.749.749,0,0,1,.748-.748h2.321a.749.749,0,0,1,.748.748Z" transform="translate(-67.109 0)"/>
          <path id="Path_1044649" data-name="Path 1044649" d="M303.434,255.362a2.808,2.808,0,0,0,3.966,0,1.037,1.037,0,0,0-1.467-1.466.729.729,0,0,1-1.033,0,1.037,1.037,0,0,0-1.467,1.466Z" transform="translate(-270.496 -218.528)"/>
          <path id="Path_1044650" data-name="Path 1044650" d="M350.927,255.467a.9.9,0,1,1,.124,1.594,1.037,1.037,0,0,0-.81,1.909,2.975,2.975,0,1,0-.407-5.266,1.037,1.037,0,0,0,1.093,1.763Z" transform="translate(-310.319 -218.239)"/>
        </g>
      </g>
    </g>
  </g>
</svg>
