<svg xmlns="http://www.w3.org/2000/svg" xmlns:xlink="http://www.w3.org/1999/xlink" width="113" height="113" viewBox="0 0 113 113">
  <defs>
    <filter id="Path_982547" x="0" y="0" width="113" height="113" filterUnits="userSpaceOnUse">
      <feOffset dy="3" input="SourceAlpha"/>
      <feGaussianBlur stdDeviation="3" result="blur"/>
      <feFlood flood-opacity="0.161"/>
      <feComposite operator="in" in2="blur"/>
      <feComposite in="SourceGraphic"/>
    </filter>
  </defs>
  <g id="Group_1203943" data-name="Group 1203943" transform="translate(-1249.51 -3654.893)">
    <g id="Group_1203772" data-name="Group 1203772">
      <g id="Group_1203573" data-name="Group 1203573" transform="translate(1258.51 3660.893)">
        <g id="Group_1177337" data-name="Group 1177337" transform="translate(0 0)">
          <g id="Group_1176922" data-name="Group 1176922">
            <g id="Group_1172322" data-name="Group 1172322">
              <g id="Group_1164700" data-name="Group 1164700">
                <g id="Group_1160931" data-name="Group 1160931">
                  <g id="Group_1160749" data-name="Group 1160749">
                    <g id="Group_1158891" data-name="Group 1158891">
                      <g id="Group_1157406" data-name="Group 1157406">
                        <g id="Group_1155793" data-name="Group 1155793">
                          <g id="Group_1154704" data-name="Group 1154704">
                            <g id="Group_1150790" data-name="Group 1150790">
                              <g id="Group_1154214" data-name="Group 1154214">
                                <g id="Group_1152583" data-name="Group 1152583">
                                  <g id="Group_1146973" data-name="Group 1146973">
                                    <g id="Group_1146954" data-name="Group 1146954">
                                      <g transform="matrix(1, 0, 0, 1, -9, -6)" filter="url(#Path_982547)">
                                        <g id="Path_982547-2" data-name="Path 982547" transform="translate(9 6)" fill="#fff6f9">
                                          <path d="M 47.5000114440918 93.49987030029297 C 41.28938293457031 93.49987030029297 35.26534652709961 92.28384399414062 29.5951976776123 89.88558959960938 C 24.11773109436035 87.56881713867188 19.19814491271973 84.25183868408203 14.97310447692871 80.02680206298828 C 10.74805164337158 75.80176544189453 7.43107795715332 70.88218688964844 5.114304542541504 65.40472412109375 C 2.716038227081299 59.73458862304688 1.500011444091797 53.71054840087891 1.500011444091797 47.49993515014648 C 1.500011444091797 41.28932189941406 2.716038227081299 35.26528167724609 5.114304542541504 29.59514808654785 C 7.43107795715332 24.1176815032959 10.74805164337158 19.1981086730957 14.97310447692871 14.97306823730469 C 19.19814491271973 10.74802875518799 24.11773109436035 7.431055068969727 29.5951976776123 5.11428165435791 C 35.26534652709961 2.716028451919556 41.28938293457031 1.500001788139343 47.5000114440918 1.500001788139343 C 53.71063995361328 1.500001788139343 59.73467636108398 2.716028451919556 65.40482330322266 5.11428165435791 C 70.88229370117188 7.431055068969727 75.8018798828125 10.74802875518799 80.02691650390625 14.97306823730469 C 84.25196838378906 19.1981086730957 87.56894683837891 24.1176815032959 89.88571929931641 29.59514808654785 C 92.28398132324219 35.26528167724609 93.50001525878906 41.28932189941406 93.50001525878906 47.49993515014648 C 93.50001525878906 53.71054840087891 92.28398132324219 59.73458862304688 89.88571929931641 65.40472412109375 C 87.56894683837891 70.88218688964844 84.25196838378906 75.80176544189453 80.02691650390625 80.02680206298828 C 75.8018798828125 84.25183868408203 70.88229370117188 87.56881713867188 65.40482330322266 89.88558959960938 C 59.73467636108398 92.28384399414062 53.71063995361328 93.49987030029297 47.5000114440918 93.49987030029297 Z" stroke="none"/>
                                          <path d="M 47.5000114440918 3 C 41.49122619628906 3 35.66378021240234 4.1761474609375 30.17951965332031 6.495796203613281 C 24.880859375 8.7369384765625 20.12153625488281 11.94596862792969 16.03376770019531 16.03373718261719 C 11.94598388671875 20.12149047851562 8.736968994140625 24.88081359863281 6.495811462402344 30.17947387695312 C 4.176162719726562 35.66371917724609 3.000007629394531 41.49116516113281 3.000007629394531 47.49993515014648 C 3.000007629394531 53.50870513916016 4.176162719726562 59.33615112304688 6.495811462402344 64.82039642333984 C 8.736968994140625 70.11905670166016 11.94598388671875 74.87837982177734 16.03376770019531 78.96613311767578 C 20.12153625488281 83.05390167236328 24.880859375 86.26293182373047 30.17951965332031 88.50407409667969 C 35.66378021240234 90.82372283935547 41.49122619628906 91.99987030029297 47.5000114440918 91.99987030029297 C 53.50879669189453 91.99987030029297 59.33624267578125 90.82372283935547 64.82050323486328 88.50407409667969 C 70.11916351318359 86.26293182373047 74.87848663330078 83.05390167236328 78.96625518798828 78.96613311767578 C 83.05403900146484 74.87837982177734 86.2630615234375 70.11905670166016 88.50421142578125 64.82039642333984 C 90.82386016845703 59.33615112304688 92.00001525878906 53.50870513916016 92.00001525878906 47.49993515014648 C 92.00001525878906 41.49116516113281 90.82386016845703 35.66371917724609 88.50421142578125 30.17947387695312 C 86.2630615234375 24.88081359863281 83.05403900146484 20.12149047851562 78.96625518798828 16.03373718261719 C 74.87848663330078 11.94596862792969 70.11916351318359 8.7369384765625 64.82050323486328 6.495796203613281 C 59.33624267578125 4.1761474609375 53.50879669189453 3 47.5000114440918 3 M 47.5000114440918 0 C 73.73353576660156 0 95.00001525878906 21.26644134521484 95.00001525878906 47.49993515014648 C 95.00001525878906 73.73342895507812 73.73353576660156 94.99987030029297 47.5000114440918 94.99987030029297 C 21.26648712158203 94.99987030029297 7.62939453125e-06 73.73342895507812 7.62939453125e-06 47.49993515014648 C 7.62939453125e-06 21.26644134521484 21.26648712158203 0 47.5000114440918 0 Z" stroke="none" fill="#8b5e6f"/>
                                        </g>
                                      </g>
                                    </g>
                                  </g>
                                </g>
                              </g>
                            </g>
                          </g>
                        </g>
                      </g>
                    </g>
                  </g>
                </g>
              </g>
            </g>
          </g>
        </g>
      </g>
      <g id="exclusion-social" transform="translate(1274.487 3677.777)">
        <g id="Group_1203769" data-name="Group 1203769" transform="translate(0.653 0.758)">
          <path id="Path_1044651" data-name="Path 1044651" d="M336.937,13.393l-2.073,2.073-1.676,3.593-3.155,3.155a4.066,4.066,0,0,1-5.011.583l-4.368-2.7-3.673,3.673a2.258,2.258,0,0,1-3.193-3.194l5.907-5.907a3.161,3.161,0,0,1,0-4.471l2.715-2.715a3.161,3.161,0,0,1,4.471,0l2.073-2.073Z" transform="translate(-275.236 -5.409)" fill="#ffdba9"/>
          <path id="Path_1044652" data-name="Path 1044652" d="M28.487,355.794,22.58,361.7a3.161,3.161,0,0,1,0,4.471l-2.715,2.715a3.162,3.162,0,0,1-4.471,0l-2.1,2.1L5.313,363l2.1-2.1,1.676-3.593,3.155-3.155a4,4,0,0,1,1.081-.77,4.054,4.054,0,0,1,3.191-.172c.448.087,4.615,2.787,5.107,3.059l3.673-3.673a2.258,2.258,0,0,1,3.193,3.194Z" transform="translate(-5.312 -309.285)" fill="#ffdba9"/>
          <path id="Path_1044653" data-name="Path 1044653" d="M336.974,363.039l-7.984,7.984-2.112-2.112a3.161,3.161,0,0,1-4.471,0l-2.715-2.715a3.161,3.161,0,0,1,0-4.471l-5.907-5.907a2.258,2.258,0,1,1,3.193-3.194l3.673,3.673,4.368-2.7a4.066,4.066,0,0,1,5.011.583l3.155,3.155,1.676,3.593Z" transform="translate(-275.234 -309.308)" fill="#ffdba9"/>
          <path id="Path_1044654" data-name="Path 1044654" d="M195.9,251.272a3.3,3.3,0,0,0,3.3-3.3h0c0-3.738-4.648-6.2-6.586-7.058h-5.391c-1.939.863-6.587,3.32-6.587,7.058a3.3,3.3,0,0,0,3.3,3.3Z" transform="translate(-159.055 -211.929)" fill="#84b9f9"/>
          <path id="Path_1044655" data-name="Path 1044655" d="M183.714,247.976c0-3.738,4.648-6.195,6.586-7.058h-3.077c-1.939.863-6.587,3.32-6.587,7.058a3.3,3.3,0,0,0,3.3,3.3h3.077A3.3,3.3,0,0,1,183.714,247.976Z" transform="translate(-159.055 -211.929)" fill="#2f94f6"/>
          <path id="Path_1044656" data-name="Path 1044656" d="M226.373,175.2a4.165,4.165,0,0,1-4.165-4.165v-2.023a4.165,4.165,0,1,1,8.33,0v2.023A4.165,4.165,0,0,1,226.373,175.2Z" transform="translate(-195.509 -145.218)" fill="#ffdba9"/>
          <g id="Group_1203768" data-name="Group 1203768" transform="translate(0.001 1.147)">
            <path id="Path_1044657" data-name="Path 1044657" d="M225.285,171.029v-2.023a4.166,4.166,0,0,1,2.626-3.87,4.165,4.165,0,0,0-5.7,3.87v2.023a4.165,4.165,0,0,0,5.7,3.87A4.165,4.165,0,0,1,225.285,171.029Z" transform="translate(-195.51 -146.364)" fill="#ffb87e"/>
            <path id="Path_1044658" data-name="Path 1044658" d="M11.1,368.234a3.885,3.885,0,0,0,0,5.493l3.391,3.39-1.2,1.2-7.984-7.984,2.1-2.1,1.676-3.593c.13-.117,3.425-3.457,3.46-3.431a4.081,4.081,0,0,1,4.142-.6c-.5.711-3.282,3.372-3.909,4.027L11.1,368.234Z" transform="translate(-5.313 -317.762)" fill="#ffb87e"/>
            <path id="Path_1044659" data-name="Path 1044659" d="M317.482,28.749l7.693-8.321-1.784-1.282,3.491-3.491a3.161,3.161,0,0,0-4.471,0L319.7,18.371a3.161,3.161,0,0,0,0,4.471l-5.908,5.908a2.258,2.258,0,0,0,3.193,3.193l.271-.271A2.257,2.257,0,0,1,317.482,28.749Z" transform="translate(-275.239 -14.73)" fill="#ffb87e"/>
            <path id="Path_1044660" data-name="Path 1044660" d="M325.37,363.558l-9.048-8.442c-1.068-1.068-.687-2.081.068-2.931a2.257,2.257,0,0,0-2.6,3.618l5.908,5.908a3.161,3.161,0,0,0,0,4.471l2.714,2.714a3.161,3.161,0,0,0,4.471,0l-3.491-3.491Z" transform="translate(-275.239 -310.441)" fill="#ffb87e"/>
          </g>
          <path id="Path_1044661" data-name="Path 1044661" d="M13.287,5.409l2.073,2.073a3.162,3.162,0,0,1,4.471,0L22.545,10.2a3.161,3.161,0,0,1,0,4.471l5.907,5.907a2.258,2.258,0,0,1-3.193,3.194L21.587,20.1l-4.368,2.7a4.066,4.066,0,0,1-5.011-.583L9.052,19.058,7.376,15.465,5.3,13.393Z" transform="translate(-5.303 -5.409)" fill="#ffdba9"/>
          <path id="Path_1044662" data-name="Path 1044662" d="M11.258,17.959,9.907,14.92a2.159,2.159,0,0,1,0-3.054l4.918-4.918L13.287,5.409,5.3,13.393l2.073,2.073,1.676,3.593,3.155,3.155a4.066,4.066,0,0,0,4.586.812Z" transform="translate(-5.303 -5.409)" fill="#ffb87e"/>
        </g>
        <g id="Group_1203770" data-name="Group 1203770" transform="translate(0 0.105)">
          <path id="Path_1044663" data-name="Path 1044663" d="M308.821,20.7a3.161,3.161,0,0,0,2.249-.931l3.156-3.156,3.747,2.317c4.263,2.442,6.708-1.384,9.419-3.986l1.676-3.593,1.958-1.958-1.305-1.306-2.188,2.188-1.676,3.593-3.039,3.039a3.132,3.132,0,0,1-3.873.451l-4.99-3.085-4.19,4.19a1.335,1.335,0,1,1-1.887-1.889l5.907-5.907,3.694-3.695-1.305-1.306-2.9,2.9a2.239,2.239,0,0,1,.511-2.371L316.5,3.483a2.249,2.249,0,0,1,3.165,0l.653.653,2.726-2.726L321.737.1,320.243,1.6a4.106,4.106,0,0,0-5.05.579c-2.155,2.27-5.305,4.194-3.294,7.765l-5.328,5.328a3.181,3.181,0,0,0,2.249,5.431Z" transform="translate(-268.02 -0.105)"/>
          <path id="Path_1044664" data-name="Path 1044664" d="M22.24,344.439a3.161,3.161,0,0,0-2.249.931l-3.156,3.156-3.747-2.317c-4.263-2.442-6.708,1.384-9.419,3.986l-1.676,3.593L.01,355.771l1.305,1.306,2.213-2.213L5.2,351.271l3.039-3.039a3.132,3.132,0,0,1,3.873-.451l4.99,3.085,4.19-4.19a1.335,1.335,0,0,1,1.887,1.889l-5.907,5.907-3.694,3.695,1.305,1.306,2.9-2.9a2.239,2.239,0,0,1-.511,2.371l-2.715,2.715a2.249,2.249,0,0,1-3.165,0L10.744,361l-2.75,2.75L9.3,365.061l1.518-1.518a4.106,4.106,0,0,0,5.05-.579c2.155-2.27,5.305-4.194,3.294-7.765l5.328-5.328a3.181,3.181,0,0,0-2.249-5.431Z" transform="translate(-0.009 -302.055)"/>
          <path id="Path_1044665" data-name="Path 1044665" d="M462.963,383.039l-1.676-3.593-1.651-1.651L458.33,379.1l1.421,1.421,1.677,3.593,2.227,2.227,1.306-1.306Z" transform="translate(-401.914 -331.305)"/>
          <path id="Path_1044666" data-name="Path 1044666" d="M317.984,346.209l-3.747,2.316-3.156-3.156a3.181,3.181,0,0,0-4.5,4.5l5.328,5.328a4.1,4.1,0,0,0,.579,5.05c2.271,2.155,4.193,5.3,7.765,3.295l1.533,1.533,1.306-1.306L320.328,361l-.653.653a2.25,2.25,0,0,1-3.165,0l-2.715-2.715a2.24,2.24,0,0,1-.51-2.37l2.9,2.9,1.305-1.306-3.694-3.694-5.907-5.907a1.335,1.335,0,0,1,1.887-1.889l4.19,4.19,4.99-3.085a3.2,3.2,0,0,1,4.183.761l1.306-1.305a5.029,5.029,0,0,0-6.459-1.026Z" transform="translate(-268.031 -302.054)"/>
          <path id="Path_1044667" data-name="Path 1044667" d="M193.547,174.687c0-3.63-3.611-6.112-6.01-7.359,1.047-1.374.9-3.243.893-4.9a5.088,5.088,0,0,0-10.176,0c-.011,1.656-.154,3.524.893,4.9-2.4,1.248-6.01,3.73-6.01,7.359a4.224,4.224,0,0,0,4.219,4.219h11.971A4.224,4.224,0,0,0,193.547,174.687ZM180.1,162.43a3.242,3.242,0,0,1,6.484,0v2.023a3.242,3.242,0,0,1-6.484,0V162.43Zm9.227,14.63H177.356a2.375,2.375,0,0,1-2.373-2.373c0-2.963,3.787-5.137,5.556-5.99a5.115,5.115,0,0,0,5.605,0c1.769.853,5.556,3.027,5.556,5.99A2.375,2.375,0,0,1,189.328,177.06Z" transform="translate(-151.826 -137.988)"/>
          <path id="Path_1044668" data-name="Path 1044668" d="M3.634,71.821c2.715,2.607,5.159,6.427,9.419,3.986L16.8,73.491l3.156,3.156a3.181,3.181,0,0,0,4.5-4.5L22.611,70.3l-1.305,1.306,1.844,1.844a1.335,1.335,0,0,1-1.887,1.889l-4.19-4.19-4.99,3.085a3.132,3.132,0,0,1-3.873-.451l-3.04-3.04L3.493,67.153,1.306,64.965,0,66.271l1.958,1.958Z" transform="translate(0 -56.981)"/>
          <path id="Path_1044669" data-name="Path 1044669" d="M68.238,3.483a2.249,2.249,0,0,1,3.165,0L74.119,6.2a2.24,2.24,0,0,1,.51,2.37l-2.9-2.9L70.424,6.975l3.694,3.695,2.759,2.759,1.305-1.306L76,9.942a4.092,4.092,0,0,0-.578-5.049C73.156,2.74,71.231-.411,67.659,1.6L66.166.105,64.86,1.411l2.726,2.726Z" transform="translate(-56.876 -0.105)"/>
        </g>
        <g id="Group_1203771" data-name="Group 1203771" transform="translate(28.747 34)">
          <path id="Path_1044670" data-name="Path 1044670" d="M233.543,275.477h1.846v1.846h-1.846Z" transform="translate(-233.543 -275.477)" fill="#fff"/>
          <path id="Path_1044671" data-name="Path 1044671" d="M263.543,275.477h1.846v1.846h-1.846Z" transform="translate(-259.85 -275.477)" fill="#fff"/>
        </g>
      </g>
    </g>
  </g>
</svg>
