<svg xmlns="http://www.w3.org/2000/svg" xmlns:xlink="http://www.w3.org/1999/xlink" width="113" height="113" viewBox="0 0 113 113">
  <defs>
    <filter id="Path_982547" x="0" y="0" width="113" height="113" filterUnits="userSpaceOnUse">
      <feOffset dy="3" input="SourceAlpha"/>
      <feGaussianBlur stdDeviation="3" result="blur"/>
      <feFlood flood-opacity="0.161"/>
      <feComposite operator="in" in2="blur"/>
      <feComposite in="SourceGraphic"/>
    </filter>
  </defs>
  <g id="Group_1203927" data-name="Group 1203927" transform="translate(-1216.56 -1154.448)">
    <g id="Group_1203719" data-name="Group 1203719">
      <g id="Group_1203495" data-name="Group 1203495" transform="translate(0 -984.148)">
        <g id="Group_1202592" data-name="Group 1202592" transform="translate(1225.561 2144.596)">
          <g id="Group_1172010" data-name="Group 1172010" transform="translate(0)">
            <g id="Group_1171046" data-name="Group 1171046">
              <g id="Group_1148525" data-name="Group 1148525">
                <g transform="matrix(1, 0, 0, 1, -9, -6)" filter="url(#Path_982547)">
                  <g id="Path_982547-2" data-name="Path 982547" transform="translate(9 6)" fill="#f4f4fd">
                    <path d="M 47.5 93.5 C 41.28937149047852 93.5 35.26533508300781 92.28397369384766 29.59518623352051 89.88570404052734 C 24.11771965026855 87.56893157958984 19.19813346862793 84.25196075439453 14.97309303283691 80.02691650390625 C 10.74804019927979 75.80186462402344 7.431066513061523 70.88229370117188 5.114293098449707 65.40481567382812 C 2.716026782989502 59.73468017578125 1.5 53.71062850952148 1.5 47.5 C 1.5 41.28937149047852 2.716026782989502 35.26533508300781 5.114293098449707 29.59518623352051 C 7.431066513061523 24.11771965026855 10.74804019927979 19.19813346862793 14.97309303283691 14.97309303283691 C 19.19813346862793 10.74804019927979 24.11771965026855 7.431066513061523 29.59518623352051 5.114293098449707 C 35.26533508300781 2.716026782989502 41.28937149047852 1.5 47.5 1.5 C 53.71062850952148 1.5 59.73468017578125 2.716026782989502 65.40481567382812 5.114293098449707 C 70.88229370117188 7.431066513061523 75.80186462402344 10.74804019927979 80.02691650390625 14.97309303283691 C 84.25196075439453 19.19813346862793 87.56893157958984 24.11771965026855 89.88570404052734 29.59518623352051 C 92.28397369384766 35.26533508300781 93.5 41.28937149047852 93.5 47.5 C 93.5 53.71062850952148 92.28397369384766 59.73468017578125 89.88570404052734 65.40481567382812 C 87.56893157958984 70.88229370117188 84.25196075439453 75.80186462402344 80.02691650390625 80.02691650390625 C 75.80186462402344 84.25196075439453 70.88229370117188 87.56893157958984 65.40481567382812 89.88570404052734 C 59.73468017578125 92.28397369384766 53.71062850952148 93.5 47.5 93.5 Z" stroke="none"/>
                    <path d="M 47.5 3 C 41.49121475219727 3 35.66376876831055 4.176155090332031 30.17950439453125 6.495796203613281 C 24.88084411621094 8.736953735351562 20.12152099609375 11.94598388671875 16.03375244140625 16.03375244140625 C 11.94598388671875 20.12152099609375 8.736953735351562 24.88084411621094 6.495796203613281 30.17950439453125 C 4.176155090332031 35.66376876831055 3 41.49121475219727 3 47.5 C 3 53.50878524780273 4.176155090332031 59.33623123168945 6.495796203613281 64.82049560546875 C 8.736953735351562 70.11915588378906 11.94598388671875 74.87847900390625 16.03375244140625 78.96624755859375 C 20.12152099609375 83.05401611328125 24.88084411621094 86.26304626464844 30.17950439453125 88.50419616699219 C 35.66376876831055 90.82384490966797 41.49121475219727 92 47.5 92 C 53.50878524780273 92 59.33623123168945 90.82384490966797 64.82049560546875 88.50419616699219 C 70.11915588378906 86.26304626464844 74.87847900390625 83.05401611328125 78.96624755859375 78.96624755859375 C 83.05401611328125 74.87847900390625 86.26304626464844 70.11915588378906 88.50419616699219 64.82049560546875 C 90.82384490966797 59.33623123168945 92 53.50878524780273 92 47.5 C 92 41.49121475219727 90.82384490966797 35.66376876831055 88.50419616699219 30.17950439453125 C 86.26304626464844 24.88084411621094 83.05401611328125 20.12152099609375 78.96624755859375 16.03375244140625 C 74.87847900390625 11.94598388671875 70.11915588378906 8.736953735351562 64.82049560546875 6.495796203613281 C 59.33623123168945 4.176155090332031 53.50878524780273 3 47.5 3 M 47.5 0 C 73.7335205078125 0 95 21.2664794921875 95 47.5 C 95 73.7335205078125 73.7335205078125 95 47.5 95 C 21.2664794921875 95 0 73.7335205078125 0 47.5 C 0 21.2664794921875 21.2664794921875 0 47.5 0 Z" stroke="none" fill="#6f6e88"/>
                  </g>
                </g>
              </g>
            </g>
          </g>
        </g>
      </g>
      <g id="Icons" transform="translate(1233.939 1170.582)">
        <g id="Group_1203718" data-name="Group 1203718" transform="translate(9.46 2.939)">
          <path id="Path_1044436" data-name="Path 1044436" d="M200.539,157.967v21.807H186.021v-6.108c0-.045,0-.09,0-.135a2.654,2.654,0,0,1,2.66-2.537l1.2.005,4,.013a3.024,3.024,0,0,0,3.025-3.025V157.967a1.815,1.815,0,1,1,3.631,0Z" transform="translate(-141.842 -117.813)" fill="#72c2e9"/>
          <path id="Path_1044437" data-name="Path 1044437" d="M208.477,203.45V205.2a3.629,3.629,0,0,1-7.026,1.261l4,.013a3.024,3.024,0,0,0,3.025-3.025Z" transform="translate(-153.411 -153.278)" fill="#4ba5c8"/>
          <path id="Path_1044438" data-name="Path 1044438" d="M207.785,183.041v2.386a3.629,3.629,0,0,1-7.257-.019v-2.367a3.629,3.629,0,1,1,7.257,0Z" transform="translate(-152.719 -135.254)" fill="#ffb79f"/>
          <path id="Path_1044439" data-name="Path 1044439" d="M26.479,173.666v6.108H11.961V157.967a1.815,1.815,0,1,1,3.631,0v10.019a3.024,3.024,0,0,0,3.025,3.025h5.21A2.654,2.654,0,0,1,26.479,173.666Z" transform="translate(-11.335 -117.813)" fill="#72c2e9"/>
          <path id="Path_1044440" data-name="Path 1044440" d="M33.492,206.475a3.629,3.629,0,0,1-7.021-1.274V203.45a3.024,3.024,0,0,0,3.025,3.025Z" transform="translate(-22.214 -153.278)" fill="#4ba5c8"/>
          <path id="Path_1044441" data-name="Path 1044441" d="M33.727,183.041v2.367a3.629,3.629,0,0,1-7.257.019v-2.386a3.629,3.629,0,1,1,7.257,0Z" transform="translate(-22.214 -135.254)" fill="#ffb79f"/>
          <path id="Path_1044442" data-name="Path 1044442" d="M84.5,218.4v5.858H69.981V218.4a2.917,2.917,0,0,1,2.918-2.918h.958l6.771-.005h.951A2.92,2.92,0,0,1,84.5,218.4Z" transform="translate(-54.837 -162.298)" fill="#f0c020"/>
          <path id="Path_1044443" data-name="Path 1044443" d="M92.242,215.48a3.628,3.628,0,0,1-6.771.005Z" transform="translate(-66.451 -162.298)" fill="#e8a61e"/>
          <path id="Path_1044444" data-name="Path 1044444" d="M91.75,182.936V185.3a3.63,3.63,0,1,1-7.26,0v-2.367a3.63,3.63,0,0,1,7.26,0Z" transform="translate(-65.716 -135.175)" fill="#ffb79f"/>
          <path id="Path_1044445" data-name="Path 1044445" d="M142.519,218.4v5.858H128V218.4a2.917,2.917,0,0,1,2.918-2.918h.958l6.771-.005h.951A2.92,2.92,0,0,1,142.519,218.4Z" transform="translate(-98.339 -162.298)" fill="#fc5d3d"/>
          <path id="Path_1044446" data-name="Path 1044446" d="M150.262,215.48a3.628,3.628,0,0,1-6.771.005Z" transform="translate(-109.953 -162.298)" fill="#b25035"/>
          <path id="Path_1044447" data-name="Path 1044447" d="M149.769,182.936V185.3a3.63,3.63,0,0,1-7.26,0v-2.367a3.63,3.63,0,0,1,7.26,0Z" transform="translate(-109.217 -135.175)" fill="#ffb79f"/>
          <path id="Path_1044448" data-name="Path 1044448" d="M85.787,44.4A19.433,19.433,0,1,1,55.623,20.1a19.236,19.236,0,0,1,10.169-5.663,19.549,19.549,0,0,1,7.857.008A19.455,19.455,0,0,1,85.787,44.4Z" transform="translate(-40.049 -11.263)" fill="#72c2e9"/>
          <path id="Path_1044449" data-name="Path 1044449" d="M103.884,14.35l-3.833,6.643a2.1,2.1,0,0,0-.813-.163H98.121l3.558-6.163A19.325,19.325,0,0,1,103.884,14.35Z" transform="translate(-75.936 -11.495)" fill="#4ba5c8"/>
          <path id="Path_1044450" data-name="Path 1044450" d="M111.041,67.83h6.846v1.752h-6.846Z" transform="translate(-85.623 -51.593)" fill="#4ba5c8"/>
          <path id="Path_1044451" data-name="Path 1044451" d="M141.277,21.882h-2.024l-4.341-7.522a18.88,18.88,0,0,1,2.209.323Z" transform="translate(-103.52 -11.502)" fill="#4ba5c8"/>
          <path id="Path_1044452" data-name="Path 1044452" d="M153.85,63.467a19.766,19.766,0,0,1-1.974,3.711h-5.1a2.794,2.794,0,0,1-2.792-2.792V59.829a2.794,2.794,0,0,0-2.792-2.792,2.794,2.794,0,0,1-2.792-2.792V47.212a2.794,2.794,0,0,1,2.792-2.792H151.2a19.746,19.746,0,0,1,1.664,2.557,19.23,19.23,0,0,1,.986,16.49Z" transform="translate(-106.137 -34.041)" fill="#13bf6d"/>
          <path id="Path_1044453" data-name="Path 1044453" d="M143.951,52.029H138.4V47.212a2.794,2.794,0,0,1,2.792-2.792h2.7l2.224,3.856A2.5,2.5,0,0,1,143.951,52.029Z" transform="translate(-106.137 -34.041)" fill="#139c6e"/>
          <path id="Path_1044454" data-name="Path 1044454" d="M65.469,42.367v7.895a2.118,2.118,0,0,1-2.117,2.117H61.641a2.117,2.117,0,1,0,0,4.234h.18a2.118,2.118,0,0,1,2.117,2.117v5.4a2.118,2.118,0,0,1-2.117,2.117H60.56a2.118,2.118,0,0,1-2.117-2.117V61.792a2.118,2.118,0,0,0-2.117-2.117H51.412A19.319,19.319,0,0,1,55.168,40.25h8.185A2.118,2.118,0,0,1,65.469,42.367Z" transform="translate(-40.052 -30.914)" fill="#13bf6d"/>
          <path id="Path_1044455" data-name="Path 1044455" d="M91.865,42.367V48.9h-3.9A2.5,2.5,0,0,1,85.8,45.147s1.281-2.219,2.825-4.9h1.118A2.118,2.118,0,0,1,91.865,42.367Z" transform="translate(-66.447 -30.914)" fill="#139c6e"/>
          <path id="Path_1044456" data-name="Path 1044456" d="M109.514,21.051H93.222a.749.749,0,0,1-.648-1.126l8.145-14.11a.752.752,0,0,1,1.3,0c6.8,11.785,4.486,7.775,8.145,14.11A.75.75,0,0,1,109.514,21.051Z" transform="translate(-71.7 -4.814)" fill="#f0c020"/>
          <path id="Path_1044457" data-name="Path 1044457" d="M128.5,128.938a.938.938,0,0,0-.938-.938h-1.186a.938.938,0,0,0-.938.938v2.792a.938.938,0,0,0,.938.938h3.348a.938.938,0,0,0,.938-.938v-.916a.938.938,0,0,0-.938-.938h-.285A.938.938,0,0,1,128.5,128.938Z" transform="translate(-96.42 -96.707)" fill="#13bf6d"/>
          <path id="Path_1044458" data-name="Path 1044458" d="M104.847,147.974a.626.626,0,0,1,.385-1.19,16.51,16.51,0,0,0,11.846-.626.626.626,0,1,1,.515,1.14A17.759,17.759,0,0,1,104.847,147.974ZM119,145.869a.625.625,0,0,1,.184-.865c.2-.13.4-.267.6-.407a.626.626,0,1,1,.729,1.017c-.211.151-.427.3-.644.44A.626.626,0,0,1,119,145.869Z" transform="translate(-80.654 -109.063)" fill="#c5e5fe"/>
          <g id="Group_1203717" data-name="Group 1203717" transform="translate(13.412 14.192)">
            <path id="Path_1044459" data-name="Path 1044459" d="M178.886,111.171a.625.625,0,0,1-.626-.626v-.586a.626.626,0,0,1,1.251,0v.586A.626.626,0,0,1,178.886,111.171Z" transform="translate(-149.435 -96.904)" fill="#139c6e"/>
            <path id="Path_1044460" data-name="Path 1044460" d="M63.687,83.917a.625.625,0,0,1-.626-.626v-.586a.626.626,0,0,1,1.251,0v.586A.625.625,0,0,1,63.687,83.917Z" transform="translate(-63.061 -76.47)" fill="#139c6e"/>
            <path id="Path_1044461" data-name="Path 1044461" d="M75.207,61.495a.625.625,0,0,1-.626-.626v-.586a.626.626,0,1,1,1.251,0v.586A.625.625,0,0,1,75.207,61.495Z" transform="translate(-71.698 -59.658)" fill="#139c6e"/>
            <path id="Path_1044462" data-name="Path 1044462" d="M190.377,94.717a.625.625,0,0,1-.626-.626v-.586a.626.626,0,0,1,1.251,0v.586A.625.625,0,0,1,190.377,94.717Z" transform="translate(-158.05 -84.567)" fill="#139c6e"/>
          </g>
          <path id="Path_1044463" data-name="Path 1044463" d="M199.279,239.978v-2.906a.626.626,0,1,0-1.251,0v2.906a.626.626,0,1,0,1.251,0Z" transform="translate(-150.844 -178.018)"/>
          <path id="Path_1044464" data-name="Path 1044464" d="M68.157,178.527a.625.625,0,0,0,.626-.626V156.095a2.441,2.441,0,1,0-4.881,0c0,1.4,0,2.54,0,4.625a4.252,4.252,0,0,0-7.259,3.009V166.1a4.231,4.231,0,0,0,.757,2.418H56.293a3.276,3.276,0,0,0-2.715,1.442,3.54,3.54,0,0,0-2.86-1.457H49.87a4.229,4.229,0,0,0,.767-2.43V163.7a4.256,4.256,0,1,0-8.511,0v2.367A4.228,4.228,0,0,0,42.9,168.5h-.856a3.54,3.54,0,0,0-2.916,1.537A3.544,3.544,0,0,0,36.2,168.5h-.848a4.229,4.229,0,0,0,.767-2.43V163.7a4.256,4.256,0,1,0-8.511,0v2.367a4.228,4.228,0,0,0,.769,2.433h-.857a3.537,3.537,0,0,0-2.855,1.454,3.278,3.278,0,0,0-2.716-1.444H20.842A4.231,4.231,0,0,0,21.6,166.1v-2.367a4.252,4.252,0,0,0-7.258-3.01c0-1.241,0-2.76,0-4.624a2.44,2.44,0,0,0-4.881-.007s0,0,0,.007v12.511a.626.626,0,1,0,1.251,0V156.1s0,0,0,0a1.189,1.189,0,1,1,2.379,0c0,3.3,0,5.519,0,7.02,0,2.38-.013,3.05.02,3.368a4.245,4.245,0,0,0,6.381,3.282h2.46a2.03,2.03,0,0,1,2.028,2.028c0,1.073,0,6.083,0,6.109a.626.626,0,0,0,1.251,0v-5.86a2.3,2.3,0,0,1,2.293-2.287l2.219,0a4.221,4.221,0,0,0,4.246,0l2.214,0a2.3,2.3,0,0,1,2.295,2.3V177.9a.626.626,0,1,0,1.251,0v-5.857a2.3,2.3,0,0,1,2.293-2.291l2.219,0a4.221,4.221,0,0,0,4.246,0l2.214,0a2.3,2.3,0,0,1,2.294,2.29V177.9a.626.626,0,1,0,1.251,0c0-4.352,0-6.163,0-6.212a2.028,2.028,0,0,1,2.026-1.925h2.46a4.219,4.219,0,0,0,2.144.587,4.265,4.265,0,0,0,4.235-3.85c.032-.234.022-7.433.021-10.407a1.189,1.189,0,1,1,2.379,0V177.9A.626.626,0,0,0,68.157,178.527Zm-53.814-12.4c0-.1,0,.01,0-2.4a3,3,0,1,1,6.007,0V166.1a3,3,0,0,1-6.006.03Zm14.517-.056V163.7a3,3,0,1,1,6.009,0v2.367a3,3,0,0,1-6.009,0Zm14.518,0V163.7a3,3,0,1,1,6.009,0v2.367a3,3,0,0,1-6.009,0ZM60.9,169.1a3.007,3.007,0,0,1-3-3v-2.367a3,3,0,1,1,6.007,0h0c0,1.372-.005,2.33-.01,2.568A3.006,3.006,0,0,1,60.9,169.1Z" transform="translate(-9.46 -115.942)"/>
          <path id="Path_1044465" data-name="Path 1044465" d="M81.989,236.977v2.93a.626.626,0,0,0,1.251,0v-2.93a.626.626,0,0,0-1.251,0Z" transform="translate(-63.841 -177.946)"/>
          <path id="Path_1044466" data-name="Path 1044466" d="M111,236.977v2.93a.626.626,0,0,0,1.251,0v-2.93a.626.626,0,0,0-1.251,0Z" transform="translate(-85.595 -177.946)"/>
          <path id="Path_1044467" data-name="Path 1044467" d="M140.008,236.977v2.93a.626.626,0,0,0,1.251,0v-2.93a.626.626,0,0,0-1.251,0Z" transform="translate(-107.342 -177.946)"/>
          <path id="Path_1044468" data-name="Path 1044468" d="M170.274,239.906v-2.93a.626.626,0,1,0-1.251,0v2.93a.626.626,0,1,0,1.251,0Z" transform="translate(-129.097 -177.946)"/>
          <circle id="Ellipse_12683" data-name="Ellipse 12683" cx="0.626" cy="0.626" r="0.626" transform="translate(0 54.541)"/>
          <path id="Path_1044469" data-name="Path 1044469" d="M10.087,230.91a.626.626,0,0,0-.626.626v4.291a.626.626,0,1,0,1.251,0v-4.291A.626.626,0,0,0,10.087,230.91Z" transform="translate(-9.461 -173.867)"/>
          <path id="Path_1044470" data-name="Path 1044470" d="M52.974,237.073v2.906a.626.626,0,0,0,1.251,0v-2.906a.626.626,0,0,0-1.251,0Z" transform="translate(-42.086 -178.018)"/>
          <path id="Path_1044471" data-name="Path 1044471" d="M164.219,68.019l-1.961,1.961-.871-.871a.625.625,0,0,0-.885,0l-2.17,2.17a.625.625,0,0,0,.885.885l1.728-1.728,1.728,1.728a.625.625,0,0,0,.885-.885l-.415-.415,1.519-1.519,2.381,2.381a.625.625,0,1,0,.885-.885L165.1,68.019A.624.624,0,0,0,164.219,68.019Z" transform="translate(-120.944 -51.597)"/>
          <path id="Path_1044472" data-name="Path 1044472" d="M52.825,11.86a19.918,19.918,0,0,0-3.876,20.051,20.053,20.053,0,0,0,35.484,4.516h0v0A20.07,20.07,0,0,0,69.951,5.209L69.039,3.63v0a1.376,1.376,0,0,0-2.384,0l-.912,1.58A19.954,19.954,0,0,0,52.825,11.86ZM64.956,6.569,61.994,11.7c-.463-.088-.12-.032-7.238-.05a18.69,18.69,0,0,1,10.2-5.08ZM53.581,12.9H61.3l-2.792,4.836A1.376,1.376,0,0,0,59.7,19.8h3.27v2.485a1.493,1.493,0,0,1-1.491,1.491H59.767a2.742,2.742,0,0,0,0,5.485h.18a1.493,1.493,0,0,1,1.491,1.491v5.4a1.493,1.493,0,0,1-1.491,1.491H58.686a1.493,1.493,0,0,1-1.491-1.491V33.817a2.746,2.746,0,0,0-2.742-2.742H49.989A18.638,18.638,0,0,1,53.581,12.9Zm29.992,22.55H78.818a2.133,2.133,0,0,1-1.384-.5.646.646,0,0,0-.883.08.628.628,0,0,0,.08.881,3.422,3.422,0,0,0,2.185.79h3.872a18.8,18.8,0,0,1-32.236-4.376h4a1.493,1.493,0,0,1,1.491,1.491v2.342A2.746,2.746,0,0,0,58.686,38.9h1.261a2.746,2.746,0,0,0,2.742-2.742v-5.4a2.746,2.746,0,0,0-2.742-2.742h-.18a1.491,1.491,0,0,1,0-2.983h1.712a2.746,2.746,0,0,0,2.742-2.742V19.8h5.595v3.341a3.417,3.417,0,0,0,3.418,3.418A2.169,2.169,0,0,1,75.4,28.726h0v2a.626.626,0,0,0,1.251,0v-2h0a3.422,3.422,0,0,0-3.418-3.418,2.167,2.167,0,0,1-2.167-2.167V19.8h4.925a1.375,1.375,0,0,0,1.2-2.051s0-.008-.006-.012L75,13.944h7.929a18.708,18.708,0,0,1,.649,21.507ZM67.738,4.253a.125.125,0,0,1,.216,0h0l2.017,3.491a.626.626,0,1,0,1.083-.626l-.316-.547A18.759,18.759,0,0,1,81.91,12.693H74.273l-.716-1.241a.643.643,0,0,0-.856-.228.624.624,0,0,0-.228.853l3.625,6.28,0,.005a.125.125,0,0,1-.108.188H59.7a.125.125,0,0,1-.108-.188Z" transform="translate(-38.177 -2.939)"/>
          <circle id="Ellipse_12684" data-name="Ellipse 12684" cx="0.626" cy="0.626" r="0.626" transform="translate(37.223 29.667)"/>
          <path id="Path_1044473" data-name="Path 1044473" d="M142.122,28.235a.627.627,0,0,0,.23-.856.643.643,0,0,0-.856-.228.626.626,0,0,0,.626,1.083Z" transform="translate(-108.224 -21.034)"/>
          <path id="Path_1044474" data-name="Path 1044474" d="M126.155,29.752a.625.625,0,0,0,.626-.626V24.647a.626.626,0,1,0-1.251,0v4.479A.625.625,0,0,0,126.155,29.752Z" transform="translate(-96.486 -18.746)"/>
          <path id="Path_1044475" data-name="Path 1044475" d="M126.155,56.108a.625.625,0,0,0,.626-.626V55a.626.626,0,1,0-1.251,0v.481A.626.626,0,0,0,126.155,56.108Z" transform="translate(-96.486 -41.505)"/>
          <path id="Path_1044476" data-name="Path 1044476" d="M218.922,105.437a.625.625,0,0,0,.626-.626v-4.479a.626.626,0,1,0-1.251,0v4.479A.626.626,0,0,0,218.922,105.437Z" transform="translate(-166.041 -75.493)"/>
          <path id="Path_1044477" data-name="Path 1044477" d="M218.3,131.166a.626.626,0,0,0,1.251,0v-.481a.626.626,0,1,0-1.251,0Z" transform="translate(-166.041 -98.252)"/>
          <path id="Path_1044478" data-name="Path 1044478" d="M233.452,105.437a.625.625,0,0,0,.626-.626v-4.479a.626.626,0,1,0-1.251,0v4.479A.626.626,0,0,0,233.452,105.437Z" transform="translate(-176.935 -75.493)"/>
          <path id="Path_1044479" data-name="Path 1044479" d="M232.826,131.166a.626.626,0,0,0,1.251,0v-.481a.626.626,0,1,0-1.251,0Z" transform="translate(-176.935 -98.252)"/>
          <path id="Path_1044480" data-name="Path 1044480" d="M18.8,107.284a.625.625,0,0,0,.626-.626v-4.479a.626.626,0,0,0-1.251,0v4.479A.625.625,0,0,0,18.8,107.284Z" transform="translate(-15.995 -76.878)"/>
          <path id="Path_1044481" data-name="Path 1044481" d="M18.176,133.014a.626.626,0,0,0,1.251,0v-.481a.626.626,0,1,0-1.251,0Z" transform="translate(-15.995 -99.637)"/>
          <path id="Path_1044482" data-name="Path 1044482" d="M33.332,107.284a.625.625,0,0,0,.626-.626v-4.479a.626.626,0,0,0-1.251,0v4.479A.625.625,0,0,0,33.332,107.284Z" transform="translate(-26.889 -76.878)"/>
          <path id="Path_1044483" data-name="Path 1044483" d="M32.706,133.014a.626.626,0,0,0,1.251,0v-.481a.626.626,0,1,0-1.251,0Z" transform="translate(-26.889 -99.637)"/>
          <path id="Path_1044484" data-name="Path 1044484" d="M127.853,127.377h-.285a.313.313,0,0,1-.313-.313,1.566,1.566,0,0,0-1.564-1.564H124.5a1.566,1.566,0,0,0-1.564,1.564v2.792a1.566,1.566,0,0,0,1.564,1.564h3.348a1.566,1.566,0,0,0,1.564-1.564v-.916A1.566,1.566,0,0,0,127.853,127.377Zm.313,2.48a.313.313,0,0,1-.313.313H124.5a.313.313,0,0,1-.313-.313v-2.792a.313.313,0,0,1,.313-.313h1.186a.313.313,0,0,1,.313.313,1.566,1.566,0,0,0,1.564,1.564h.285a.313.313,0,0,1,.313.313Z" transform="translate(-94.546 -94.833)"/>
        </g>
      </g>
    </g>
  </g>
</svg>
