<svg xmlns="http://www.w3.org/2000/svg" xmlns:xlink="http://www.w3.org/1999/xlink" width="113" height="113" viewBox="0 0 113 113">
  <defs>
    <filter id="Path_982547" x="0" y="0" width="113" height="113" filterUnits="userSpaceOnUse">
      <feOffset dy="3" input="SourceAlpha"/>
      <feGaussianBlur stdDeviation="3" result="blur"/>
      <feFlood flood-opacity="0.161"/>
      <feComposite operator="in" in2="blur"/>
      <feComposite in="SourceGraphic"/>
    </filter>
  </defs>
  <g id="Group_1203933" data-name="Group 1203933" transform="translate(-1216.56 -1940.875)">
    <g id="Group_1203739" data-name="Group 1203739">
      <g id="Group_1203500" data-name="Group 1203500" transform="translate(0 -197.72)">
        <g id="Group_1202592" data-name="Group 1202592" transform="translate(1225.561 2144.596)">
          <g id="Group_1172010" data-name="Group 1172010" transform="translate(0)">
            <g id="Group_1171046" data-name="Group 1171046">
              <g id="Group_1148525" data-name="Group 1148525">
                <g transform="matrix(1, 0, 0, 1, -9, -6)" filter="url(#Path_982547)">
                  <g id="Path_982547-2" data-name="Path 982547" transform="translate(9 6)" fill="#fff6f9">
                    <path d="M 47.5 93.5 C 41.28937149047852 93.5 35.26533508300781 92.28397369384766 29.59518623352051 89.88570404052734 C 24.11771965026855 87.56893157958984 19.19813346862793 84.25196075439453 14.97309303283691 80.02691650390625 C 10.74804019927979 75.80186462402344 7.431066513061523 70.88229370117188 5.114293098449707 65.40481567382812 C 2.716026782989502 59.73468017578125 1.5 53.71062850952148 1.5 47.5 C 1.5 41.28937149047852 2.716026782989502 35.26533508300781 5.114293098449707 29.59518623352051 C 7.431066513061523 24.11771965026855 10.74804019927979 19.19813346862793 14.97309303283691 14.97309303283691 C 19.19813346862793 10.74804019927979 24.11771965026855 7.431066513061523 29.59518623352051 5.114293098449707 C 35.26533508300781 2.716026782989502 41.28937149047852 1.5 47.5 1.5 C 53.71062850952148 1.5 59.73468017578125 2.716026782989502 65.40481567382812 5.114293098449707 C 70.88229370117188 7.431066513061523 75.80186462402344 10.74804019927979 80.02691650390625 14.97309303283691 C 84.25196075439453 19.19813346862793 87.56893157958984 24.11771965026855 89.88570404052734 29.59518623352051 C 92.28397369384766 35.26533508300781 93.5 41.28937149047852 93.5 47.5 C 93.5 53.71062850952148 92.28397369384766 59.73468017578125 89.88570404052734 65.40481567382812 C 87.56893157958984 70.88229370117188 84.25196075439453 75.80186462402344 80.02691650390625 80.02691650390625 C 75.80186462402344 84.25196075439453 70.88229370117188 87.56893157958984 65.40481567382812 89.88570404052734 C 59.73468017578125 92.28397369384766 53.71062850952148 93.5 47.5 93.5 Z" stroke="none"/>
                    <path d="M 47.5 3 C 41.49121475219727 3 35.66376876831055 4.176155090332031 30.17950439453125 6.495796203613281 C 24.88084411621094 8.736953735351562 20.12152099609375 11.94598388671875 16.03375244140625 16.03375244140625 C 11.94598388671875 20.12152099609375 8.736953735351562 24.88084411621094 6.495796203613281 30.17950439453125 C 4.176155090332031 35.66376876831055 3 41.49121475219727 3 47.5 C 3 53.50878524780273 4.176155090332031 59.33623123168945 6.495796203613281 64.82049560546875 C 8.736953735351562 70.11915588378906 11.94598388671875 74.87847900390625 16.03375244140625 78.96624755859375 C 20.12152099609375 83.05401611328125 24.88084411621094 86.26304626464844 30.17950439453125 88.50419616699219 C 35.66376876831055 90.82384490966797 41.49121475219727 92 47.5 92 C 53.50878524780273 92 59.33623123168945 90.82384490966797 64.82049560546875 88.50419616699219 C 70.11915588378906 86.26304626464844 74.87847900390625 83.05401611328125 78.96624755859375 78.96624755859375 C 83.05401611328125 74.87847900390625 86.26304626464844 70.11915588378906 88.50419616699219 64.82049560546875 C 90.82384490966797 59.33623123168945 92 53.50878524780273 92 47.5 C 92 41.49121475219727 90.82384490966797 35.66376876831055 88.50419616699219 30.17950439453125 C 86.26304626464844 24.88084411621094 83.05401611328125 20.12152099609375 78.96624755859375 16.03375244140625 C 74.87847900390625 11.94598388671875 70.11915588378906 8.736953735351562 64.82049560546875 6.495796203613281 C 59.33623123168945 4.176155090332031 53.50878524780273 3 47.5 3 M 47.5 0 C 73.7335205078125 0 95 21.2664794921875 95 47.5 C 95 73.7335205078125 73.7335205078125 95 47.5 95 C 21.2664794921875 95 0 73.7335205078125 0 47.5 C 0 21.2664794921875 21.2664794921875 0 47.5 0 Z" stroke="none" fill="#8b5e6f"/>
                  </g>
                </g>
              </g>
            </g>
          </g>
        </g>
      </g>
      <g id="unemployment_17899252_1_" data-name="unemployment_17899252 (1)" transform="translate(1240.162 1943.68)">
        <path id="Path_1044570" data-name="Path 1044570" d="M20.15,94.93H31.829a12.183,12.183,0,0,1,12.146,12.146v10.262a12.183,12.183,0,0,1-12.146,12.146H20.15A12.184,12.184,0,0,1,8,117.338V107.076A12.184,12.184,0,0,1,20.15,94.93Z" transform="translate(-6.972 -64.934)" fill="#0593fc" fill-rule="evenodd"/>
        <path id="Path_1044571" data-name="Path 1044571" d="M59.323,264.08A7.557,7.557,0,0,1,72.4,269.253v3.158a12.074,12.074,0,0,1-7.232,2.4H53.484a12.087,12.087,0,0,1-7.234-2.4v-3.158a7.557,7.557,0,0,1,13.073-5.173Z" transform="translate(-40.306 -210.263)" fill="#0584e3" fill-rule="evenodd"/>
        <path id="Path_1044572" data-name="Path 1044572" d="M67.769,277.68a5.525,5.525,0,0,1,5.506,5.509v15.445a5.508,5.508,0,0,1-11.015,0V283.189A5.525,5.525,0,0,1,67.769,277.68Z" transform="translate(-54.259 -224.198)" fill="#056bb8" fill-rule="evenodd"/>
        <path id="Path_1044573" data-name="Path 1044573" d="M153.469,277.68a5.525,5.525,0,0,0-5.509,5.509v15.445a5.509,5.509,0,0,0,11.019,0V283.189A5.525,5.525,0,0,0,153.469,277.68Z" transform="translate(-128.945 -224.198)" fill="#056bb8" fill-rule="evenodd"/>
        <path id="Path_1044574" data-name="Path 1044574" d="M85.236,47.972a9.766,9.766,0,1,0-9.766-9.766,9.786,9.786,0,0,0,9.766,9.766Z" transform="translate(-65.771 -6.989)" fill="#fbbd80" fill-rule="evenodd"/>
        <path id="Path_1044575" data-name="Path 1044575" d="M322.83,155.332v-7.789a.579.579,0,0,1,.573-.573h8.911a.576.576,0,0,1,.4.17.567.567,0,0,1,.17.4v7.789h3.179v-7.789a3.756,3.756,0,0,0-3.753-3.753H323.4a3.756,3.756,0,0,0-3.753,3.753v7.789Z" transform="translate(-278.57 -107.515)" fill="#223c55"/>
        <g id="Group_1203737" data-name="Group 1203737" transform="translate(9.699 21.449)">
          <path id="Path_1044576" data-name="Path 1044576" d="M299.845,258.5H270.9v13.914a1.787,1.787,0,0,0,1.817,1.746h25.311a1.787,1.787,0,0,0,1.817-1.746Z" transform="translate(-245.784 -228.933)" fill="#223c55" fill-rule="evenodd"/>
          <path id="Path_1044577" data-name="Path 1044577" d="M292.476,206.3l-13.737,1.7a1.734,1.734,0,0,1-.432,0l-13.737-1.7a1.739,1.739,0,0,1-1.531-1.732v-6.365a1.751,1.751,0,0,1,1.747-1.747h27.475a1.751,1.751,0,0,1,1.747,1.747v6.365A1.741,1.741,0,0,1,292.476,206.3Z" transform="translate(-238.934 -174.866)" fill="#2f5274" fill-rule="evenodd"/>
          <path id="Path_1044578" data-name="Path 1044578" d="M372.873,258.5h-1.817a.8.8,0,0,0-.8.8v4.66a.8.8,0,0,0,.8.8h1.817a.8.8,0,0,0,.8-.8V259.3A.8.8,0,0,0,372.873,258.5Z" transform="translate(-332.375 -228.933)" fill="#ffd400" fill-rule="evenodd"/>
          <path id="Path_1044579" data-name="Path 1044579" d="M317.286,351.139a9.765,9.765,0,1,0-9.766-9.763A9.783,9.783,0,0,0,317.286,351.139Z" transform="translate(-277.698 -292.647)" fill="#fea832" fill-rule="evenodd"/>
          <path id="Path_1044580" data-name="Path 1044580" d="M350.882,366.28l1.93,1.93-3.38,3.38,3.38,3.377-1.93,1.93-3.381-3.376-3.38,3.376-1.93-1.93,3.38-3.38-3.38-3.377,1.93-1.93,3.38,3.376Z" transform="translate(-307.912 -322.861)" fill="#daeafa" fill-rule="evenodd"/>
          <path id="Path_1044581" data-name="Path 1044581" d="M78.242,36.994a9.763,9.763,0,0,1,8.344-8.472,9.947,9.947,0,0,0-1.351-.093A9.761,9.761,0,0,0,75.5,37.479c-.018.236-.028.474-.028.718a9.768,9.768,0,0,0,9.766,9.766,9.549,9.549,0,0,0,1.351-.1A9.764,9.764,0,0,1,78.168,38.2,9.551,9.551,0,0,1,78.242,36.994Z" transform="translate(-75.47 -28.43)" fill="#e2aa73" fill-rule="evenodd"/>
          <path id="Path_1044582" data-name="Path 1044582" d="M309.45,341.373a9.765,9.765,0,0,1,8.8-9.717,9.6,9.6,0,0,0-.965-.046,9.765,9.765,0,1,0,0,19.529,9.6,9.6,0,0,0,.965-.046A9.768,9.768,0,0,1,309.45,341.373Z" transform="translate(-277.698 -292.647)" fill="#e5972d" fill-rule="evenodd"/>
          <path id="Path_1044583" data-name="Path 1044583" d="M265.735,204.433v-6.227a1.744,1.744,0,0,1,1.747-1.747h-2.705a1.751,1.751,0,0,0-1.746,1.747v6.365a1.733,1.733,0,0,0,1.011,1.585,1.822,1.822,0,0,0,.519.149l1.651.206.533.067v-.42a1.774,1.774,0,0,1-.517-.361,1.749,1.749,0,0,1-.495-1.223v-.14Z" transform="translate(-238.926 -174.866)" fill="#2a4a68" fill-rule="evenodd"/>
          <path id="Path_1044584" data-name="Path 1044584" d="M273.071,272.245l-1.651-.206a1.77,1.77,0,0,1-.519-.149v12.192a1.787,1.787,0,0,0,1.817,1.746h2.705a1.787,1.787,0,0,1-1.817-1.746V272.31Z" transform="translate(-245.784 -240.602)" fill="#1f364d" fill-rule="evenodd"/>
          <path id="Path_1044585" data-name="Path 1044585" d="M371.125,261.223V259.3a.806.806,0,0,1,.806-.8h-.888a.8.8,0,0,0-.8.8v4.66a.8.8,0,0,0,.8.8h.888a.8.8,0,0,1-.806-.8Z" transform="translate(-332.358 -228.933)" fill="#e6bf00" fill-rule="evenodd"/>
        </g>
        <g id="Group_1203738" data-name="Group 1203738" transform="translate(0 20.42)">
          <path id="Path_1044586" data-name="Path 1044586" d="M63.028,42.016H58.522V40.026a4.792,4.792,0,0,0-4.777-4.781H44.831a4.8,4.8,0,0,0-4.781,4.781v1.989H38.03A13.29,13.29,0,0,0,30.2,30.107a10.793,10.793,0,0,0-21.427-.379A13.282,13.282,0,0,0,0,42.144V52.4A13.263,13.263,0,0,0,6.973,64.015v10.42a6.532,6.532,0,0,0,12.043,3.51,6.532,6.532,0,0,0,12.043-3.51V64.016a13.287,13.287,0,0,0,2.728-1.948v2.867a2.811,2.811,0,0,0,2.841,2.772h2.154a10.792,10.792,0,1,0,21.006,0h2.15a2.813,2.813,0,0,0,2.845-2.772V53.294a2.773,2.773,0,0,0,1.013-2.14v-6.36a2.774,2.774,0,0,0-2.769-2.778Zm.717,2.776v6.36a.711.711,0,0,1-.63.715l-11.1,1.376V51.815A1.825,1.825,0,0,0,50.2,49.99H48.378a1.825,1.825,0,0,0-1.821,1.825v1.428l-11.1-1.376a.711.711,0,0,1-.63-.715v-6.36a.721.721,0,0,1,.717-.721H63.026a.721.721,0,0,1,.718.721ZM49.964,52.045v4.2H48.612v-4.2ZM53.29,42.016h-8V40.483h8ZM42.105,40.028A2.74,2.74,0,0,1,44.83,37.3h8.914a2.734,2.734,0,0,1,2.721,2.725v1.989H55.342V40.028a1.61,1.61,0,0,0-1.6-1.6H44.83a1.61,1.61,0,0,0-1.6,1.6v1.989H42.105ZM19.465,22.475a8.739,8.739,0,1,1-8.739,8.739A8.749,8.749,0,0,1,19.465,22.475ZM13.508,78.916a4.486,4.486,0,0,1-4.481-4.481V58.993a4.481,4.481,0,1,1,8.963,0V74.435a4.487,4.487,0,0,1-4.481,4.481Zm15.5-4.481a4.481,4.481,0,0,1-8.963,0V58.993a4.481,4.481,0,1,1,8.963,0Zm2.054-12.817V58.993a6.541,6.541,0,0,0-3.548-5.81V47.717a1.027,1.027,0,0,0-2.054,0v4.808a6.515,6.515,0,0,0-6.441,2.957,6.523,6.523,0,0,0-6.437-2.958V47.717a1.027,1.027,0,1,0-2.054,0V53.18a6.541,6.541,0,0,0-3.552,5.811v2.624A11.191,11.191,0,0,1,2.055,52.4V42.144A11.214,11.214,0,0,1,8.7,31.97a10.792,10.792,0,0,0,21.493.428,11.221,11.221,0,0,1,5.783,9.618h-.428a2.777,2.777,0,0,0-2.772,2.776v6.36a2.771,2.771,0,0,0,1.013,2.14v5.715A11.3,11.3,0,0,1,31.059,61.618Zm18.226,17.3a8.737,8.737,0,1,1,8.739-8.739A8.748,8.748,0,0,1,49.286,78.916ZM61.942,65.652H59.082a10.787,10.787,0,0,0-19.588,0H36.631a.755.755,0,0,1-.787-.717V53.986l10.714,1.329v1.162A1.824,1.824,0,0,0,48.379,58.3H50.2a1.823,1.823,0,0,0,1.821-1.821V55.314l10.714-1.329V64.934A.76.76,0,0,1,61.942,65.652ZM55.625,66.8a1.026,1.026,0,0,0-.3-.726l-1.93-1.93a1.027,1.027,0,0,0-1.452,0l-2.654,2.651-2.651-2.651a1.027,1.027,0,0,0-1.452,0l-1.93,1.93a1.027,1.027,0,0,0,0,1.452l2.651,2.651-2.651,2.654a1.027,1.027,0,0,0,0,1.452l1.93,1.93a1.027,1.027,0,0,0,1.452,0l2.65-2.654,2.654,2.654a1.027,1.027,0,0,0,1.452,0l1.93-1.93a1.027,1.027,0,0,0,0-1.452l-2.654-2.654,2.654-2.65A1.038,1.038,0,0,0,55.625,66.8Zm-5.134,2.65a1.027,1.027,0,0,0,0,1.452l2.654,2.654-.478.478L50.013,71.38a1.027,1.027,0,0,0-1.452,0l-2.65,2.654-.478-.478L48.084,70.9a1.027,1.027,0,0,0,0-1.452l-2.65-2.65.478-.478,2.65,2.65a1.027,1.027,0,0,0,1.452,0l2.654-2.651.478.478Z" transform="translate(0 -20.42)"/>
        </g>
      </g>
    </g>
  </g>
</svg>
