<svg xmlns="http://www.w3.org/2000/svg" xmlns:xlink="http://www.w3.org/1999/xlink" width="118" height="118" viewBox="0 0 118 118">
  <defs>
    <filter id="Path_982547" x="0" y="0" width="118" height="118" filterUnits="userSpaceOnUse">
      <feOffset dy="3" input="SourceAlpha"/>
      <feGaussianBlur stdDeviation="3" result="blur"/>
      <feFlood flood-opacity="0.161"/>
      <feComposite operator="in" in2="blur"/>
      <feComposite in="SourceGraphic"/>
    </filter>
  </defs>
  <g id="Group_1203988" data-name="Group 1203988" transform="translate(-834.5 -4681.832)">
    <g id="Group_1203897" data-name="Group 1203897">
      <g id="Group_1203664" data-name="Group 1203664" transform="translate(843.5 4687.832)">
        <g id="Group_1178316" data-name="Group 1178316">
          <g id="Group_1173988" data-name="Group 1173988">
            <g id="Group_1172010" data-name="Group 1172010">
              <g id="Group_1171046" data-name="Group 1171046">
                <g id="Group_1148525" data-name="Group 1148525">
                  <g transform="matrix(1, 0, 0, 1, -9, -6)" filter="url(#Path_982547)">
                    <g id="Path_982547-2" data-name="Path 982547" transform="translate(9 6)" fill="#f7fbfc">
                      <path d="M 50 98.5 C 43.45188522338867 98.5 37.10042953491211 97.21787261962891 31.12207221984863 94.68923950195312 C 25.34691429138184 92.24655914306641 20.15997123718262 88.74931335449219 15.70532894134521 84.29468536376953 C 11.2506856918335 79.84004211425781 7.753442764282227 74.65309906005859 5.310757160186768 68.8779296875 C 2.782128572463989 62.89957046508789 1.5 56.54811477661133 1.5 50 C 1.5 43.45188522338867 2.782128572463989 37.10042953491211 5.310757160186768 31.12207221984863 C 7.753442764282227 25.34691429138184 11.2506856918335 20.15997123718262 15.70532894134521 15.70532894134521 C 20.15997123718262 11.2506856918335 25.34691429138184 7.753442764282227 31.12207221984863 5.310757160186768 C 37.10042953491211 2.782128572463989 43.45188522338867 1.5 50 1.5 C 56.54811477661133 1.5 62.89957046508789 2.782128572463989 68.8779296875 5.310757160186768 C 74.65309906005859 7.753442764282227 79.84004211425781 11.2506856918335 84.29468536376953 15.70532894134521 C 88.74931335449219 20.15997123718262 92.24655914306641 25.34691429138184 94.68923950195312 31.12207221984863 C 97.21787261962891 37.10042953491211 98.5 43.45188522338867 98.5 50 C 98.5 56.54811477661133 97.21787261962891 62.89957046508789 94.68923950195312 68.8779296875 C 92.24655914306641 74.65309906005859 88.74931335449219 79.84004211425781 84.29468536376953 84.29468536376953 C 79.84004211425781 88.74931335449219 74.65309906005859 92.24655914306641 68.8779296875 94.68923950195312 C 62.89957046508789 97.21787261962891 56.54811477661133 98.5 50 98.5 Z" stroke="none"/>
                      <path d="M 50 3 C 43.65372467041016 3 37.49886322021484 4.242263793945312 31.70639801025391 6.6922607421875 C 26.11003112792969 9.059326171875 21.08335113525391 12.44861602783203 16.76598358154297 16.76598358154297 C 12.44861602783203 21.08335113525391 9.059326171875 26.11003112792969 6.6922607421875 31.70639801025391 C 4.242263793945312 37.49886322021484 3 43.65372467041016 3 50 C 3 56.34627532958984 4.242263793945312 62.50113677978516 6.6922607421875 68.29360198974609 C 9.059326171875 73.88996887207031 12.44861602783203 78.91666412353516 16.76598358154297 83.23401641845703 C 21.08335113525391 87.55138397216797 26.11003112792969 90.940673828125 31.70639801025391 93.3077392578125 C 37.49886322021484 95.75773620605469 43.65372467041016 97 50 97 C 56.34627532958984 97 62.50113677978516 95.75773620605469 68.29360198974609 93.3077392578125 C 73.88996887207031 90.940673828125 78.91666412353516 87.55138397216797 83.23401641845703 83.23401641845703 C 87.55138397216797 78.91666412353516 90.940673828125 73.88996887207031 93.3077392578125 68.29360198974609 C 95.75773620605469 62.50113677978516 97 56.34627532958984 97 50 C 97 43.65372467041016 95.75773620605469 37.49886322021484 93.3077392578125 31.70639801025391 C 90.940673828125 26.11003112792969 87.55138397216797 21.08335113525391 83.23401641845703 16.76598358154297 C 78.91666412353516 12.44861602783203 73.88996887207031 9.059326171875 68.29360198974609 6.6922607421875 C 62.50113677978516 4.242263793945312 56.34627532958984 3 50 3 M 50 0 C 77.61424255371094 0 100 22.38577270507812 100 50 C 100 77.61424255371094 77.61424255371094 100 50 100 C 22.38577270507812 100 0 77.61424255371094 0 50 C 0 22.38577270507812 22.38577270507812 0 50 0 Z" stroke="none" fill="#62797e"/>
                    </g>
                  </g>
                </g>
              </g>
            </g>
          </g>
        </g>
      </g>
      <g id="people_2640931_1_" data-name="people_2640931 (1)" transform="translate(861.227 4704)">
        <g id="Group_1203895" data-name="Group 1203895">
          <g id="Group_1203879" data-name="Group 1203879">
            <path id="Path_1044983" data-name="Path 1044983" d="M29.75,53.53a2.893,2.893,0,0,0-4.6-.68L24,54H10V50H2V45.1a8.84,8.84,0,0,1,7.25-8.69l4.97-.9L17,42l5-4,5,4,2.78-6.49.56.1A2.947,2.947,0,0,0,30,37a3,3,0,0,0,3,3h1.2a9.995,9.995,0,0,0,2.73,5.07,9.89,9.89,0,0,0,3.03,2.07v.01L39,51l-4.88.7a9.578,9.578,0,0,0-3.91,1.49,4.713,4.713,0,0,0-.45.33Z" fill="#fcd770"/>
          </g>
          <g id="Group_1203880" data-name="Group 1203880">
            <path id="Path_1044984" data-name="Path 1044984" d="M22,38l-5,4-2.78-6.49L17,35Z" fill="#ffc729"/>
          </g>
          <g id="Group_1203881" data-name="Group 1203881">
            <path id="Path_1044985" data-name="Path 1044985" d="M29.78,35.51,27,42l-5-4,5-3Z" fill="#ffc729"/>
          </g>
          <g id="Group_1203882" data-name="Group 1203882">
            <path id="Path_1044986" data-name="Path 1044986" d="M30.21,53.19a9.578,9.578,0,0,1,3.91-1.49L39,51l.34.5A5.607,5.607,0,0,0,44,54a5.674,5.674,0,0,0,2.64-.66,5.74,5.74,0,0,0,2.02-1.84L49,51l4.88.7A9.461,9.461,0,0,1,62,61.06V62H32a4,4,0,1,0,0-8H30l-.2-.39a.218.218,0,0,0-.05-.08l.01-.01a4.714,4.714,0,0,1,.45-.33Z" fill="#75b1f2"/>
          </g>
          <g id="Group_1203883" data-name="Group 1203883">
            <path id="Path_1044987" data-name="Path 1044987" d="M16.1,11.56l-1.17.7A5.988,5.988,0,0,0,12,17.41V18H11a3.008,3.008,0,0,0-2.06.82A19.568,19.568,0,0,1,8,12.84,10.836,10.836,0,0,1,18.84,2H30.55A4.439,4.439,0,0,1,35,6.45a4.316,4.316,0,0,1-.13,1.08L34,11l.48.48A5.215,5.215,0,0,1,36,15.16a5.125,5.125,0,0,1-.27,1.64l-.67,2.02A2.981,2.981,0,0,0,33,18H32v-.23a2.007,2.007,0,0,0-1.75-1.99L19.28,14.41a3.767,3.767,0,0,1-3.18-2.85Z" fill="#b27946"/>
          </g>
          <g id="Group_1203884" data-name="Group 1203884">
            <path id="Path_1044988" data-name="Path 1044988" d="M54,28a3,3,0,0,1-3,3H44.1a6.216,6.216,0,0,1-5.26-2.9l-1.44.86a6.977,6.977,0,0,0-3.33,5.05L34,34H33a2.929,2.929,0,0,0-2.24,1.02l-.01-.01-.4-1.63a11.548,11.548,0,0,1-.35-2.8,12.569,12.569,0,0,1,.4-3.14,12.442,12.442,0,0,1,1.37-3.3,12.673,12.673,0,0,1,1.91-2.46,13.057,13.057,0,0,1,2.14-1.71A12.481,12.481,0,0,1,42.58,18h2.84A12.577,12.577,0,0,1,58,30.58a11.548,11.548,0,0,1-.35,2.8l-.6,2.43A2.975,2.975,0,0,0,55,35H54Z" fill="#656d78"/>
          </g>
          <g id="Group_1203885" data-name="Group 1203885">
            <path id="Path_1044989" data-name="Path 1044989" d="M10,54H24l1.15-1.15a2.893,2.893,0,0,1,4.6.68.218.218,0,0,1,.05.08L30,54h2a4,4,0,1,1,0,8H9a7,7,0,0,1-7-7V50h8Z" fill="#f0d0b4"/>
          </g>
          <g id="Group_1203886" data-name="Group 1203886">
            <path id="Path_1044990" data-name="Path 1044990" d="M57.05,35.81A3,3,0,0,1,55,41H53.54A9.908,9.908,0,0,0,54,38V35h1A2.975,2.975,0,0,1,57.05,35.81Z" fill="#f0d0b4"/>
          </g>
          <g id="Group_1203887" data-name="Group 1203887">
            <path id="Path_1044991" data-name="Path 1044991" d="M48.04,47.15,49,51l-.34.5a5.74,5.74,0,0,1-2.02,1.84A5.674,5.674,0,0,1,44,54a5.607,5.607,0,0,1-4.66-2.5L39,51l.96-3.85v-.01a9.919,9.919,0,0,0,8.08,0Z" fill="#f0d0b4"/>
          </g>
          <g id="Group_1203888" data-name="Group 1203888">
            <path id="Path_1044992" data-name="Path 1044992" d="M54,28V38a9.981,9.981,0,0,1-5.96,9.14,9.919,9.919,0,0,1-8.08,0,9.89,9.89,0,0,1-3.03-2.07A9.961,9.961,0,0,1,34,38V34.96a5.987,5.987,0,0,1,.07-.95,6.977,6.977,0,0,1,3.33-5.05l1.44-.86A6.216,6.216,0,0,0,44.1,31H51a3,3,0,0,0,3-3Z" fill="#f0d0b4"/>
          </g>
          <g id="Group_1203889" data-name="Group 1203889">
            <path id="Path_1044993" data-name="Path 1044993" d="M34,34.96V38a10.048,10.048,0,0,0,.2,2H33a3,3,0,0,1-3-3,2.947,2.947,0,0,1,.34-1.39,3.018,3.018,0,0,1,.42-.59A2.929,2.929,0,0,1,33,34h1l.07.01a5.987,5.987,0,0,0-.07.95Z" fill="#f0d0b4"/>
          </g>
          <g id="Group_1203890" data-name="Group 1203890">
            <path id="Path_1044994" data-name="Path 1044994" d="M26.21,31.07,27,35l-5,3-5-3,.78-3.92.01-.02A9.728,9.728,0,0,0,22,32,10.017,10.017,0,0,0,26.21,31.07Z" fill="#f0d0b4"/>
          </g>
          <g id="Group_1203891" data-name="Group 1203891">
            <path id="Path_1044995" data-name="Path 1044995" d="M35.06,18.82a2.968,2.968,0,0,1,.76,1.15,13.057,13.057,0,0,0-2.14,1.71,12.673,12.673,0,0,0-1.91,2.46A10.093,10.093,0,0,0,32,22V18h1A2.981,2.981,0,0,1,35.06,18.82Z" fill="#f0d0b4"/>
          </g>
          <g id="Group_1203892" data-name="Group 1203892">
            <path id="Path_1044996" data-name="Path 1044996" d="M32,18v4a10.093,10.093,0,0,1-.23,2.14,12.442,12.442,0,0,0-1.37,3.3A10.032,10.032,0,0,1,22,32a9.728,9.728,0,0,1-4.21-.94,9.86,9.86,0,0,1-2.86-1.99A9.961,9.961,0,0,1,12,22V17.41a5.988,5.988,0,0,1,2.93-5.15l1.17-.7a3.767,3.767,0,0,0,3.18,2.85l10.97,1.37A2.007,2.007,0,0,1,32,17.77Z" fill="#f0d0b4"/>
          </g>
          <g id="Group_1203893" data-name="Group 1203893">
            <path id="Path_1044997" data-name="Path 1044997" d="M12.2,24H11a3,3,0,0,1,0-6h1v4A10.048,10.048,0,0,0,12.2,24Z" fill="#f0d0b4"/>
          </g>
          <g id="Group_1203894" data-name="Group 1203894">
            <path id="Path_1044998" data-name="Path 1044998" d="M18,24h8a4,4,0,1,1-8,0Z" fill="#ff826e"/>
          </g>
        </g>
        <g id="Group_1203896" data-name="Group 1203896">
          <path id="Path_1044999" data-name="Path 1044999" d="M18,20a1,1,0,0,1,1,1h2a3,3,0,0,0-6,0h2A1,1,0,0,1,18,20Z"/>
          <path id="Path_1045000" data-name="Path 1045000" d="M26,20a1,1,0,0,1,1,1h2a3,3,0,0,0-6,0h2A1,1,0,0,1,26,20Z"/>
          <path id="Path_1045001" data-name="Path 1045001" d="M27,24V23H17v1a5,5,0,0,0,10,0Zm-7.829,1h5.658a3,3,0,0,1-5.658,0Z"/>
          <path id="Path_1045002" data-name="Path 1045002" d="M40,36a1,1,0,0,1,1,1h2a3,3,0,0,0-6,0h2A1,1,0,0,1,40,36Z"/>
          <path id="Path_1045003" data-name="Path 1045003" d="M48,34a3,3,0,0,0-3,3h2a1,1,0,0,1,2,0h2A3,3,0,0,0,48,34Z"/>
          <path id="Path_1045004" data-name="Path 1045004" d="M58.341,52.359a10.526,10.526,0,0,0-4.324-1.652l-4.21-.6-.6-2.417A11.055,11.055,0,0,0,54.236,42H55a4,4,0,0,0,4-4,3.963,3.963,0,0,0-.858-2.446l.482-1.929A12.549,12.549,0,0,0,59,30.575,13.591,13.591,0,0,0,45.425,17h-2.85a13.493,13.493,0,0,0-6.381,1.6l-.005-.007.493-1.476a6.2,6.2,0,0,0-1.5-6.348l-.075-.075.73-2.92A5.525,5.525,0,0,0,36,6.452,5.458,5.458,0,0,0,30.548,1H18.838A11.852,11.852,0,0,0,7,12.838a20.474,20.474,0,0,0,.836,5.743A3.958,3.958,0,0,0,7,21a4,4,0,0,0,4,4h.426a11.037,11.037,0,0,0,5.232,6.608l-.506,2.53L9.073,35.425A9.832,9.832,0,0,0,1,45.1V55a8.009,8.009,0,0,0,8,8H63V61.064a10.441,10.441,0,0,0-4.659-8.7ZM47.923,50.813l-.091.136a4.605,4.605,0,0,1-7.664,0l-.091-.136.584-2.335a10.94,10.94,0,0,0,6.678,0ZM44,47a9.01,9.01,0,0,1-9-9V34.963a6.03,6.03,0,0,1,2.913-5.145l.665-.4A7.225,7.225,0,0,0,44.1,32H51a3.959,3.959,0,0,0,2-.556V38a9.01,9.01,0,0,1-9,9Zm11-7h-.191A10.989,10.989,0,0,0,55,38V36a2,2,0,0,1,0,4ZM45.425,19A11.587,11.587,0,0,1,57,30.575a10.607,10.607,0,0,1-.315,2.564L56.4,34.267A3.968,3.968,0,0,0,55,34V28a4,4,0,0,0-8,0h2a2,2,0,1,1,2,2H44.1a5.234,5.234,0,0,1-5.118-4.2L37.02,26.2a7.141,7.141,0,0,0,.5,1.529l-.631.379A8.036,8.036,0,0,0,33.253,33H33a3.958,3.958,0,0,0-1.631.356l-.054-.216A10.622,10.622,0,0,1,31,30.575,11.587,11.587,0,0,1,42.575,19Zm-10.93.693A13.737,13.737,0,0,0,33,20.963V19a2,2,0,0,1,1.495.693ZM29.376,33.625l.207.829-1.735-.316-.5-2.524a11.018,11.018,0,0,0,1.664-1.156c0,.04-.006.078-.006.117a12.5,12.5,0,0,0,.375,3.05Zm-2.185,2.426,1.178.214L26.6,40.4l-2.851-2.281ZM33,35v3c0,.338.021.67.051,1H33a2,2,0,0,1,0-4ZM11,23a2,2,0,0,1,0-4v3c0,.338.021.67.051,1Zm.027-6H11a3.965,3.965,0,0,0-1.452.283A18.472,18.472,0,0,1,9,12.838,9.849,9.849,0,0,1,18.838,3h11.71A3.452,3.452,0,0,1,33.9,7.289l-1.005,4.018.876.876a4.206,4.206,0,0,1,1.017,4.3l-.275.825A3.968,3.968,0,0,0,33,17h-.112a3,3,0,0,0-2.516-2.211L19.4,13.417A2.742,2.742,0,0,1,18.874,8.1l.441-.147-.631-1.9-.442.147A4.734,4.734,0,0,0,15,10.7c0,.114.023.222.031.334l-.613.365A7.025,7.025,0,0,0,11.027,17ZM13,22V17.41a5.025,5.025,0,0,1,2.441-4.3l.176-.1A4.732,4.732,0,0,0,19.153,15.4l10.971,1.372a1,1,0,0,1,.876.993V22a9.091,9.091,0,0,1-.191,1.834A13.487,13.487,0,0,0,29.5,26.963,9,9,0,0,1,13,22Zm9,11a10.976,10.976,0,0,0,3.464-.578l.417,2.083L22,36.834l-3.881-2.329.415-2.073A10.953,10.953,0,0,0,22,33Zm-5.192,3.051,3.444,2.066L17.4,40.4,15.63,36.265ZM4.717,40.206a7.826,7.826,0,0,1,4.714-2.813l4.181-.76L16.6,43.6,21,40.081V49h2V40.081L27.4,43.6l2.053-4.79A3.991,3.991,0,0,0,33,41h.426A11.045,11.045,0,0,0,38.8,47.688l-.6,2.417-4.21.6a10.518,10.518,0,0,0-3.994,1.458,3.91,3.91,0,0,0-5.548-.021L23.586,53H11V45.764l-1.1-2.211-1.789.9L9,46.236V49H3V45.1a7.852,7.852,0,0,1,1.717-4.892ZM9,61a6.006,6.006,0,0,1-6-6V51H9v2H7v2H24.414l1.441-1.442a1.908,1.908,0,0,1,3.054.5l.472.947H32a3,3,0,0,1,0,6Zm26.974,0a4.955,4.955,0,0,0-3.257-7.928,8.408,8.408,0,0,1,1.55-.386l4.253-.607a6.6,6.6,0,0,0,10.961,0l4.253.607A8.464,8.464,0,0,1,61,61Z"/>
          <path id="Path_1045005" data-name="Path 1045005" d="M47,40.838a3.162,3.162,0,0,1-6,0l-.052-.154-1.9.638.052.151a5.161,5.161,0,0,0,9.792,0l.052-.154-1.9-.638Z"/>
        </g>
      </g>
    </g>
  </g>
</svg>
